font.ufo
<glyph name="dollar" format="2">
	<unicode hex="0024"/>
	<advance width="485"/>
	<outline>
		<contour>
			<point x="240" y="14" type="curve" smooth="yes"/>
			<point x="186" y="14"/>
			<point x="146" y="25"/>
			<point x="102" y="64" type="curve"/>
			<point x="141" y="23" type="line"/>
			<point x="118" y="113" type="line" smooth="yes"/>
			<point x="111" y="141"/>
			<point x="97" y="149"/>
			<point x="82" y="149" type="curve" smooth="yes"/>
			<point x="65" y="149"/>
			<point x="55" y="141"/>
			<point x="51" y="125" type="curve"/>
			<point x="69" y="40"/>
			<point x="136" y="-13"/>
			<point x="240" y="-13" type="curve" smooth="yes"/>
			<point x="346" y="-13"/>
			<point x="431" y="49"/>
			<point x="431" y="159" type="curve" smooth="yes"/>
			<point x="431" y="236"/>
			<point x="395" y="297"/>
			<point x="269" y="350" type="curve" smooth="yes"/>
			<point x="241" y="362" type="line" smooth="yes"/>
			<point x="159" y="396"/>
			<point x="118" y="439"/>
			<point x="118" y="505" type="curve" smooth="yes"/>
			<point x="118" y="594"/>
			<point x="177" y="638"/>
			<point x="259" y="638" type="curve" smooth="yes"/>
			<point x="305" y="638"/>
			<point x="339" y="627"/>
			<point x="381" y="589" type="curve"/>
			<point x="342" y="629" type="line"/>
			<point x="365" y="539" type="line" smooth="yes"/>
			<point x="373" y="511"/>
			<point x="386" y="503"/>
			<point x="402" y="503" type="curve" smooth="yes"/>
			<point x="417" y="503"/>
			<point x="428" y="511"/>
			<point x="431" y="527" type="curve"/>
			<point x="414" y="613"/>
			<point x="344" y="664"/>
			<point x="256" y="664" type="curve" smooth="yes"/>
			<point x="157" y="664"/>
			<point x="75" y="604"/>
			<point x="75" y="497" type="curve" smooth="yes"/>
			<point x="75" y="410"/>
			<point x="128" y="358"/>
			<point x="221" y="318" type="curve" smooth="yes"/>
			<point x="256" y="302" type="line" smooth="yes"/>
			<point x="356" y="258"/>
			<point x="388" y="218"/>
			<point x="388" y="153" type="curve" smooth="yes"/>
			<point x="388" y="63"/>
			<point x="327" y="14"/>
		</contour>
		<contour>
			<point x="264" y="329" type="line"/>
			<point x="264" y="757" type="line"/>
			<point x="238" y="757" type="line"/>
			<point x="238" y="329" type="line"/>
		</contour>
		<contour>
			<point x="237" y="-115" type="line"/>
			<point x="263" y="-115" type="line"/>
			<point x="263" y="329" type="line"/>
			<point x="237" y="329" type="line"/>
		</contour>
	</outline>
</glyph>
<glyph name="ampersand" format="2">
	<unicode hex="0026"/>
	<advance width="701"/>
	<outline>
		<contour>
			<point x="244" y="-13" type="curve" smooth="yes"/>
			<point x="351" y="-13"/>
			<point x="418" y="40"/>
			<point x="467" y="105" type="curve"/>
			<point x="469" y="107" type="line"/>
			<point x="450" y="119" type="line"/>
			<point x="399" y="55"/>
			<point x="335" y="23"/>
			<point x="254" y="23" type="curve" smooth="yes"/>
			<point x="152" y="23"/>
			<point x="90" y="103"/>
			<point x="90" y="183" type="curve" smooth="yes"/>
			<point x="90" y="254"/>
			<point x="129" y="320"/>
			<point x="227" y="375" type="curve"/>
			<point x="217" y="392" type="line"/>
			<point x="215" y="390" type="line"/>
			<point x="97" y="332"/>
			<point x="42" y="263"/>
			<point x="42" y="170" type="curve" smooth="yes"/>
			<point x="42" y="70"/>
			<point x="122" y="-13"/>
		</contour>
		<contour>
			<point x="472" y="110" type="line"/>
			<point x="542" y="204"/>
			<point x="569" y="284"/>
			<point x="591" y="420" type="curve"/>
			<point x="560" y="420" type="line"/>
			<point x="542" y="288"/>
			<point x="517" y="215"/>
			<point x="455" y="124" type="curve"/>
			<point x="451" y="124" type="line"/>
		</contour>
		<contour>
			<point x="565" y="390" type="line"/>
			<point x="578" y="390" type="line"/>
			<point x="659" y="400" type="line"/>
			<point x="659" y="422" type="line"/>
			<point x="472" y="422" type="line"/>
			<point x="472" y="400" type="line"/>
		</contour>
		<contour>
			<point x="601" y="-8" type="curve" smooth="yes"/>
			<point x="621" y="-8"/>
			<point x="640" y="-5"/>
			<point x="660" y="-1" type="curve"/>
			<point x="662" y="21" type="line"/>
			<point x="543" y="33" type="line"/>
			<point x="584" y="16" type="line"/>
			<point x="472" y="138"/>
			<point x="404" y="212"/>
			<point x="334" y="290" type="curve" smooth="yes"/>
			<point x="285" y="344"/>
			<point x="253" y="379"/>
			<point x="207" y="436" type="curve" smooth="yes"/>
			<point x="164" y="487"/>
			<point x="155" y="518"/>
			<point x="155" y="557" type="curve" smooth="yes"/>
			<point x="155" y="622"/>
			<point x="204" y="665"/>
			<point x="261" y="665" type="curve" smooth="yes"/>
			<point x="320" y="665"/>
			<point x="359" y="624"/>
			<point x="359" y="562" type="curve" smooth="yes"/>
			<point x="359" y="492"/>
			<point x="307" y="446"/>
			<point x="228" y="395" type="curve"/>
			<point x="236" y="378" type="line"/>
			<point x="238" y="379" type="line"/>
			<point x="337" y="433"/>
			<point x="398" y="485"/>
			<point x="398" y="561" type="curve" smooth="yes"/>
			<point x="398" y="632"/>
			<point x="352" y="687"/>
			<point x="262" y="687" type="curve" smooth="yes"/>
			<point x="179" y="687"/>
			<point x="114" y="633"/>
			<point x="114" y="551" type="curve" smooth="yes"/>
			<point x="114" y="501"/>
			<point x="134" y="455"/>
			<point x="179" y="404" type="curve" smooth="yes"/>
			<point x="236" y="338"/>
			<point x="261" y="309"/>
			<point x="309" y="252" type="curve" smooth="yes"/>
			<point x="372" y="180"/>
			<point x="433" y="112"/>
			<point x="509" y="25" type="curve" smooth="yes"/>
			<point x="532" y="0"/>
			<point x="557" y="-8"/>
		</contour>
	</outline>
</glyph>
<glyph name="quotesingle" format="2">
	<unicode hex="0027"/>
	<advance width="159"/>
	<outline>
		<contour>
			<point x="80" y="744" type="curve" smooth="yes"/>
			<point x="61" y="744"/>
			<point x="51" y="731"/>
			<point x="51" y="705" type="curve" smooth="yes"/>
			<point x="51" y="671"/>
			<point x="59" y="605"/>
			<point x="62" y="553" type="curve" smooth="yes"/>
			<point x="69" y="454" type="line"/>
			<point x="90" y="454" type="line"/>
			<point x="97" y="553" type="line" smooth="yes"/>
			<point x="100" y="605"/>
			<point x="109" y="671"/>
			<point x="109" y="705" type="curve" smooth="yes"/>
			<point x="109" y="731"/>
			<point x="99" y="744"/>
		</contour>
	</outline>
</glyph>
<glyph name="parenleft" format="2">
	<unicode hex="0028"/>
	<advance width="316"/>
	<outline>
		<contour>
			<point x="133" y="277" type="curve" smooth="yes"/>
			<point x="133" y="454"/>
			<point x="177" y="583"/>
			<point x="292" y="752" type="curve"/>
			<point x="277" y="763" type="line"/>
			<point x="148" y="615"/>
			<point x="88" y="457"/>
			<point x="88" y="277" type="curve" smooth="yes"/>
			<point x="88" y="97"/>
			<point x="148" y="-60"/>
			<point x="277" y="-209" type="curve"/>
			<point x="292" y="-197" type="line"/>
			<point x="177" y="-28"/>
			<point x="133" y="101"/>
		</contour>
	</outline>
</glyph>
<glyph name="asterisk" format="2">
	<unicode hex="002A"/>
	<advance width="433"/>
	<outline>
		<contour>
			<point x="211" y="550" type="line"/>
			<point x="223" y="550" type="line"/>
			<point x="230" y="615" type="line" smooth="yes"/>
			<point x="236" y="665"/>
			<point x="241" y="706"/>
			<point x="241" y="726" type="curve" smooth="yes"/>
			<point x="241" y="744"/>
			<point x="232" y="754"/>
			<point x="217" y="754" type="curve" smooth="yes"/>
			<point x="202" y="754"/>
			<point x="193" y="744"/>
			<point x="193" y="726" type="curve" smooth="yes"/>
			<point x="193" y="705"/>
			<point x="198" y="665"/>
			<point x="203" y="615" type="curve" smooth="yes"/>
		</contour>
		<contour>
			<point x="215" y="544" type="line"/>
			<point x="219" y="556" type="line"/>
			<point x="159" y="583" type="line" smooth="yes"/>
			<point x="114" y="604"/>
			<point x="76" y="622"/>
			<point x="57" y="628" type="curve" smooth="yes"/>
			<point x="40" y="633"/>
			<point x="28" y="627"/>
			<point x="23" y="613" type="curve" smooth="yes"/>
			<point x="19" y="599"/>
			<point x="25" y="587"/>
			<point x="42" y="582" type="curve" smooth="yes"/>
			<point x="62" y="575"/>
			<point x="102" y="567"/>
			<point x="151" y="557" type="curve" smooth="yes"/>
		</contour>
		<contour>
			<point x="222" y="546" type="line"/>
			<point x="212" y="554" type="line"/>
			<point x="168" y="505" type="line" smooth="yes"/>
			<point x="134" y="468"/>
			<point x="105" y="438"/>
			<point x="94" y="422" type="curve" smooth="yes"/>
			<point x="83" y="407"/>
			<point x="86" y="394"/>
			<point x="98" y="385" type="curve" smooth="yes"/>
			<point x="109" y="377"/>
			<point x="123" y="379"/>
			<point x="133" y="393" type="curve" smooth="yes"/>
			<point x="146" y="410"/>
			<point x="165" y="446"/>
			<point x="190" y="489" type="curve" smooth="yes"/>
		</contour>
		<contour>
			<point x="222" y="554" type="line"/>
			<point x="212" y="546" type="line"/>
			<point x="244" y="490" type="line" smooth="yes"/>
			<point x="269" y="446"/>
			<point x="289" y="409"/>
			<point x="300" y="393" type="curve" smooth="yes"/>
			<point x="311" y="379"/>
			<point x="325" y="377"/>
			<point x="336" y="385" type="curve" smooth="yes"/>
			<point x="348" y="394"/>
			<point x="351" y="407"/>
			<point x="340" y="422" type="curve" smooth="yes"/>
			<point x="328" y="439"/>
			<point x="301" y="469"/>
			<point x="266" y="505" type="curve" smooth="yes"/>
		</contour>
		<contour>
			<point x="215" y="557" type="line"/>
			<point x="219" y="544" type="line"/>
			<point x="283" y="558" type="line" smooth="yes"/>
			<point x="332" y="567"/>
			<point x="373" y="575"/>
			<point x="392" y="581" type="curve" smooth="yes"/>
			<point x="409" y="587"/>
			<point x="415" y="599"/>
			<point x="411" y="613" type="curve" smooth="yes"/>
			<point x="406" y="627"/>
			<point x="394" y="633"/>
			<point x="377" y="627" type="curve" smooth="yes"/>
			<point x="357" y="621"/>
			<point x="321" y="604"/>
			<point x="274" y="583" type="curve" smooth="yes"/>
		</contour>
	</outline>
</glyph>
<glyph name="plus" format="2">
	<unicode hex="002B"/>
	<advance width="522"/>
	<outline>
		<contour>
			<point x="243" y="93" type="line"/>
			<point x="279" y="93" type="line"/>
			<point x="279" y="569" type="line"/>
			<point x="243" y="569" type="line"/>
		</contour>
		<contour>
			<point x="486" y="317" type="line"/>
			<point x="486" y="350" type="line"/>
			<point x="36" y="350" type="line"/>
			<point x="36" y="317" type="line"/>
		</contour>
	</outline>
</glyph>
<glyph name="comma" format="2">
	<unicode hex="002C"/>
	<advance width="291"/>
	<outline>
		<contour>
			<point x="72" y="-152" type="line"/>
			<point x="143" y="-118"/>
			<point x="189" y="-64"/>
			<point x="189" y="11" type="curve" smooth="yes"/>
			<point x="189" y="31"/>
			<point x="188" y="44"/>
			<point x="182" y="60" type="curve"/>
			<point x="170" y="72"/>
			<point x="158" y="76"/>
			<point x="144" y="76" type="curve" smooth="yes"/>
			<point x="117" y="76"/>
			<point x="103" y="58"/>
			<point x="103" y="36" type="curve" smooth="yes"/>
			<point x="103" y="18"/>
			<point x="113" y="4"/>
			<point x="133" y="-9" type="curve" smooth="yes"/>
			<point x="168" y="-32" type="line"/>
			<point x="160" y="-4" type="line"/>
			<point x="151" y="-68"/>
			<point x="124" y="-97"/>
			<point x="62" y="-131" type="curve"/>
		</contour>
	</outline>
</glyph>
<glyph name="hyphen" format="2">
	<unicode hex="002D"/>
	<unicode hex="00AD"/>
	<unicode hex="2010"/>
	<advance width="304"/>
	<outline>
		<contour>
			<point x="39" y="220" type="line"/>
			<point x="265" y="220" type="line"/>
			<point x="265" y="256" type="line"/>
			<point x="39" y="256" type="line"/>
		</contour>
	</outline>
</glyph>
<glyph name="period" format="2">
	<unicode hex="002E"/>
	<advance width="290"/>
	<outline>
		<contour>
			<point x="145" y="-11" type="curve" smooth="yes"/>
			<point x="171" y="-11"/>
			<point x="190" y="9"/>
			<point x="190" y="33" type="curve" smooth="yes"/>
			<point x="190" y="58"/>
			<point x="171" y="77"/>
			<point x="145" y="77" type="curve" smooth="yes"/>
			<point x="119" y="77"/>
			<point x="100" y="58"/>
			<point x="100" y="33" type="curve" smooth="yes"/>
			<point x="100" y="9"/>
			<point x="119" y="-11"/>
		</contour>
	</outline>
</glyph>
<glyph name="slash" format="2">
	<unicode hex="002F"/>
	<advance width="299"/>
	<outline>
		<contour>
			<point x="1" y="-160" type="line"/>
			<point x="35" y="-160" type="line"/>
			<point x="298" y="709" type="line"/>
			<point x="265" y="709" type="line"/>
		</contour>
	</outline>
</glyph>
<glyph name="zero" format="2">
	<unicode hex="0030"/>
	<advance width="485"/>
	<outline>
		<contour>
			<point x="243" y="-13" type="curve" smooth="yes"/>
			<point x="343" y="-13"/>
			<point x="437" y="82"/>
			<point x="437" y="324" type="curve" smooth="yes"/>
			<point x="437" y="568"/>
			<point x="343" y="664"/>
			<point x="243" y="664" type="curve" smooth="yes"/>
			<point x="142" y="664"/>
			<point x="49" y="568"/>
			<point x="49" y="324" type="curve" smooth="yes"/>
			<point x="49" y="82"/>
			<point x="142" y="-13"/>
		</contour>
		<contour>
			<point x="243" y="13" type="curve" smooth="yes"/>
			<point x="172" y="13"/>
			<point x="100" y="89"/>
			<point x="100" y="324" type="curve" smooth="yes"/>
			<point x="100" y="560"/>
			<point x="172" y="639"/>
			<point x="243" y="639" type="curve" smooth="yes"/>
			<point x="313" y="639"/>
			<point x="385" y="560"/>
			<point x="385" y="324" type="curve" smooth="yes"/>
			<point x="385" y="90"/>
			<point x="313" y="13"/>
		</contour>
	</outline>
</glyph>
<glyph name="one" format="2">
	<unicode hex="0031"/>
	<advance width="485"/>
	<outline>
		<contour>
			<point x="79" y="0" type="line"/>
			<point x="426" y="0" type="line"/>
			<point x="426" y="22" type="line"/>
			<point x="271" y="34" type="line"/>
			<point x="239" y="34" type="line"/>
			<point x="79" y="22" type="line"/>
		</contour>
		<contour>
			<point x="229" y="0" type="curve"/>
			<point x="281" y="0" type="line"/>
			<point x="279" y="72"/>
			<point x="278" y="146"/>
			<point x="278" y="222" type="curve" smooth="yes"/>
			<point x="278" y="479" type="line"/>
			<point x="282" y="651" type="line"/>
			<point x="270" y="660" type="line"/>
			<point x="87" y="609" type="line"/>
			<point x="87" y="586" type="line"/>
			<point x="232" y="611" type="line"/>
			<point x="232" y="222" type="line" smooth="yes"/>
			<point x="232" y="146"/>
			<point x="231" y="72"/>
		</contour>
	</outline>
</glyph>
<glyph name="less" format="2">
	<unicode hex="003C"/>
	<advance width="521"/>
	<outline>
		<contour>
			<point x="61" y="321" type="line"/>
			<point x="442" y="91" type="line"/>
			<point x="459" y="120" type="line"/>
			<point x="89" y="342" type="line"/>
			<point x="89" y="326" type="line"/>
			<point x="459" y="547" type="line"/>
			<point x="442" y="576" type="line"/>
			<point x="61" y="347" type="line"/>
		</contour>
	</outline>
</glyph>
<glyph name="question" format="2">
	<unicode hex="003F"/>
	<advance width="376"/>
	<outline>
		<contour>
			<point x="139" y="-10" type="curve" smooth="yes"/>
			<point x="163" y="-10"/>
			<point x="181" y="9"/>
			<point x="181" y="31" type="curve" smooth="yes"/>
			<point x="181" y="55"/>
			<point x="163" y="73"/>
			<point x="139" y="73" type="curve" smooth="yes"/>
			<point x="115" y="73"/>
			<point x="98" y="55"/>
			<point x="98" y="31" type="curve" smooth="yes"/>
			<point x="98" y="9"/>
			<point x="115" y="-10"/>
		</contour>
		<contour>
			<point x="324" y="487" type="curve" smooth="yes"/>
			<point x="324" y="609"/>
			<point x="212" y="669"/>
			<point x="104" y="691" type="curve"/>
			<point x="83" y="686"/>
			<point x="72" y="675"/>
			<point x="72" y="657" type="curve" smooth="yes"/>
			<point x="72" y="639"/>
			<point x="83" y="626"/>
			<point x="119" y="621" type="curve" smooth="yes"/>
			<point x="270" y="598" type="line"/>
			<point x="179" y="647" type="line"/>
			<point x="255" y="603"/>
			<point x="292" y="561"/>
			<point x="292" y="498" type="curve" smooth="yes"/>
			<point x="292" y="448"/>
			<point x="272" y="419"/>
			<point x="218" y="386" type="curve" smooth="yes"/>
			<point x="179" y="367" type="line" smooth="yes"/>
			<point x="125" y="338"/>
			<point x="109" y="320"/>
			<point x="109" y="291" type="curve" smooth="yes"/>
			<point x="109" y="274"/>
			<point x="113" y="258"/>
			<point x="120" y="224" type="curve" smooth="yes"/>
			<point x="128" y="187" type="line"/>
			<point x="149" y="187" type="line"/>
			<point x="146" y="261" type="line" smooth="yes"/>
			<point x="145" y="296"/>
			<point x="156" y="307"/>
			<point x="201" y="331" type="curve" smooth="yes"/>
			<point x="234" y="350" type="line" smooth="yes"/>
			<point x="294" y="381"/>
			<point x="324" y="420"/>
		</contour>
	</outline>
</glyph>
<glyph name="at" format="2">
	<unicode hex="0040"/>
	<advance width="820"/>
	<outline>
		<contour>
			<point x="338" y="54" type="curve" smooth="yes"/>
			<point x="399" y="54"/>
			<point x="449" y="100"/>
			<point x="503" y="174" type="curve"/>
			<point x="504" y="175" type="line"/>
			<point x="497" y="184" type="line"/>
			<point x="432" y="111"/>
			<point x="392" y="89"/>
			<point x="353" y="89" type="curve" smooth="yes"/>
			<point x="308" y="89"/>
			<point x="280" y="123"/>
			<point x="280" y="191" type="curve" smooth="yes"/>
			<point x="280" y="302"/>
			<point x="358" y="442"/>
			<point x="457" y="442" type="curve" smooth="yes"/>
			<point x="491" y="442"/>
			<point x="518" y="426"/>
			<point x="538" y="390" type="curve"/>
			<point x="556" y="422" type="line"/>
			<point x="530" y="456"/>
			<point x="500" y="471"/>
			<point x="465" y="471" type="curve" smooth="yes"/>
			<point x="345" y="471"/>
			<point x="237" y="307"/>
			<point x="237" y="176" type="curve" smooth="yes"/>
			<point x="237" y="91"/>
			<point x="284" y="54"/>
		</contour>
		<contour>
			<point x="564" y="54" type="curve" smooth="yes"/>
			<point x="663" y="54"/>
			<point x="787" y="151"/>
			<point x="787" y="338" type="curve" smooth="yes"/>
			<point x="787" y="528"/>
			<point x="662" y="663"/>
			<point x="468" y="663" type="curve" smooth="yes"/>
			<point x="218" y="663"/>
			<point x="34" y="449"/>
			<point x="34" y="198" type="curve" smooth="yes"/>
			<point x="34" y="-28"/>
			<point x="180" y="-155"/>
			<point x="383" y="-155" type="curve" smooth="yes"/>
			<point x="451" y="-155"/>
			<point x="516" y="-141"/>
			<point x="572" y="-112" type="curve"/>
			<point x="564" y="-95" type="line"/>
			<point x="512" y="-119"/>
			<point x="461" y="-131"/>
			<point x="390" y="-131" type="curve" smooth="yes"/>
			<point x="211" y="-131"/>
			<point x="71" y="-10"/>
			<point x="71" y="203" type="curve" smooth="yes"/>
			<point x="71" y="438"/>
			<point x="238" y="638"/>
			<point x="464" y="638" type="curve" smooth="yes"/>
			<point x="635" y="638"/>
			<point x="754" y="524"/>
			<point x="754" y="341" type="curve" smooth="yes"/>
			<point x="754" y="170"/>
			<point x="655" y="80"/>
			<point x="574" y="80" type="curve" smooth="yes"/>
			<point x="526" y="80"/>
			<point x="507" y="111"/>
			<point x="518" y="167" type="curve" smooth="yes"/>
			<point x="577" y="459" type="line"/>
			<point x="565" y="467" type="line"/>
			<point x="532" y="433" type="line"/>
			<point x="477" y="159" type="line"/>
			<point x="479" y="151" type="line"/>
			<point x="472" y="90"/>
			<point x="505" y="54"/>
		</contour>
	</outline>
</glyph>
<glyph name="B" format="2">
	<unicode hex="0042"/>
	<advance width="588"/>
	<outline>
		<contour>
			<point x="50" y="0" type="line"/>
			<point x="178" y="0" type="line"/>
			<point x="178" y="32" type="line"/>
			<point x="166" y="32" type="line"/>
			<point x="50" y="23" type="line"/>
		</contour>
		<contour>
			<point x="147" y="0" type="curve"/>
			<point x="203" y="0" type="line"/>
			<point x="200" y="97"/>
			<point x="200" y="209"/>
			<point x="200" y="335" type="curve" smooth="yes"/>
			<point x="200" y="358" type="line" smooth="yes"/>
			<point x="200" y="467"/>
			<point x="200" y="578"/>
			<point x="203" y="674" type="curve"/>
			<point x="147" y="674" type="line"/>
			<point x="150" y="577"/>
			<point x="150" y="466"/>
			<point x="150" y="363" type="curve" smooth="yes"/>
			<point x="150" y="313" type="line" smooth="yes"/>
			<point x="150" y="208"/>
			<point x="150" y="97"/>
		</contour>
		<contour>
			<point x="174" y="0" type="line"/>
			<point x="304" y="0" type="line" smooth="yes"/>
			<point x="469" y="0"/>
			<point x="543" y="82"/>
			<point x="543" y="180" type="curve" smooth="yes"/>
			<point x="543" y="276"/>
			<point x="476" y="350"/>
			<point x="316" y="355" type="curve"/>
			<point x="310" y="347" type="line"/>
			<point x="448" y="358"/>
			<point x="509" y="432"/>
			<point x="509" y="516" type="curve" smooth="yes"/>
			<point x="509" y="610"/>
			<point x="440" y="674"/>
			<point x="299" y="674" type="curve" smooth="yes"/>
			<point x="174" y="674" type="line"/>
			<point x="174" y="647" type="line"/>
			<point x="283" y="647" type="line" smooth="yes"/>
			<point x="409" y="647"/>
			<point x="460" y="598"/>
			<point x="460" y="515" type="curve" smooth="yes"/>
			<point x="460" y="420"/>
			<point x="394" y="363"/>
			<point x="266" y="363" type="curve" smooth="yes"/>
			<point x="174" y="363" type="line"/>
			<point x="174" y="337" type="line"/>
			<point x="275" y="337" type="line" smooth="yes"/>
			<point x="425" y="337"/>
			<point x="490" y="281"/>
			<point x="490" y="181" type="curve" smooth="yes"/>
			<point x="490" y="82"/>
			<point x="421" y="27"/>
			<point x="297" y="27" type="curve" smooth="yes"/>
			<point x="174" y="27" type="line"/>
		</contour>
		<contour>
			<point x="50" y="651" type="line"/>
			<point x="166" y="641" type="line"/>
			<point x="178" y="641" type="line"/>
			<point x="178" y="674" type="line"/>
			<point x="50" y="674" type="line"/>
		</contour>
	</outline>
	<anchor name="aboveUC" x="286" y="694"/>
	<anchor name="belowLC" x="308" y="-20"/>
</glyph>
<glyph name="C" format="2">
	<unicode hex="0043"/>
	<advance width="624"/>
	<outline>
		<contour>
			<point x="375" y="-14" type="curve" smooth="yes"/>
			<point x="444" y="-14"/>
			<point x="503" y="-2"/>
			<point x="566" y="37" type="curve"/>
			<point x="571" y="181" type="line"/>
			<point x="541" y="181" type="line"/>
			<point x="516" y="34" type="line"/>
			<point x="547" y="41" type="line"/>
			<point x="547" y="68" type="line"/>
			<point x="493" y="27"/>
			<point x="436" y="14"/>
			<point x="376" y="14" type="curve" smooth="yes"/>
			<point x="223" y="14"/>
			<point x="113" y="134"/>
			<point x="113" y="337" type="curve" smooth="yes"/>
			<point x="113" y="537"/>
			<point x="222" y="660"/>
			<point x="381" y="660" type="curve" smooth="yes"/>
			<point x="443" y="660"/>
			<point x="487" y="645"/>
			<point x="542" y="603" type="curve"/>
			<point x="542" y="633" type="line"/>
			<point x="509" y="642" type="line"/>
			<point x="534" y="493" type="line"/>
			<point x="564" y="493" type="line"/>
			<point x="559" y="636" type="line"/>
			<point x="499" y="674"/>
			<point x="443" y="687"/>
			<point x="376" y="687" type="curve" smooth="yes"/>
			<point x="190" y="687"/>
			<point x="57" y="545"/>
			<point x="57" y="337" type="curve" smooth="yes"/>
			<point x="57" y="128"/>
			<point x="184" y="-14"/>
		</contour>
	</outline>
	<anchor name="aboveUC" x="372" y="694"/>
	<anchor name="baseLC" x="372" y="0"/>
	<anchor name="belowLC" x="373" y="-20"/>
</glyph>
<glyph name="D" format="2">
	<unicode hex="0044"/>
	<advance width="687"/>
	<outline>
		<contour>
			<point x="50" y="0" type="line"/>
			<point x="178" y="0" type="line"/>
			<point x="178" y="32" type="line"/>
			<point x="166" y="32" type="line"/>
			<point x="50" y="23" type="line"/>
		</contour>
		<contour>
			<point x="147" y="0" type="curve"/>
			<point x="203" y="0" type="line"/>
			<point x="200" y="97"/>
			<point x="200" y="209"/>
			<point x="200" y="330" type="curve" smooth="yes"/>
			<point x="200" y="358" type="line" smooth="yes"/>
			<point x="200" y="467"/>
			<point x="200" y="578"/>
			<point x="203" y="674" type="curve"/>
			<point x="147" y="674" type="line"/>
			<point x="150" y="577"/>
			<point x="150" y="466"/>
			<point x="150" y="358" type="curve" smooth="yes"/>
			<point x="150" y="330" type="line" smooth="yes"/>
			<point x="150" y="208"/>
			<point x="150" y="97"/>
		</contour>
		<contour>
			<point x="177" y="0" type="line"/>
			<point x="299" y="0" type="line" smooth="yes"/>
			<point x="505" y="0"/>
			<point x="631" y="129"/>
			<point x="631" y="337" type="curve" smooth="yes"/>
			<point x="631" y="554"/>
			<point x="510" y="674"/>
			<point x="310" y="674" type="curve" smooth="yes"/>
			<point x="177" y="674" type="line"/>
			<point x="177" y="647" type="line"/>
			<point x="300" y="647" type="line" smooth="yes"/>
			<point x="479" y="647"/>
			<point x="575" y="540"/>
			<point x="575" y="337" type="curve" smooth="yes"/>
			<point x="575" y="147"/>
			<point x="480" y="27"/>
			<point x="288" y="27" type="curve" smooth="yes"/>
			<point x="177" y="27" type="line"/>
		</contour>
		<contour>
			<point x="50" y="651" type="line"/>
			<point x="166" y="641" type="line"/>
			<point x="178" y="641" type="line"/>
			<point x="178" y="674" type="line"/>
			<point x="50" y="674" type="line"/>
		</contour>
	</outline>
	<anchor name="aboveUC" x="323" y="694"/>
	<anchor name="belowLC" x="316" y="-20"/>
</glyph>
<glyph name="E" format="2">
	<unicode hex="0045"/>
	<advance width="584"/>
	<outline>
		<contour>
			<point x="50" y="0" type="line"/>
			<point x="176" y="0" type="line"/>
			<point x="176" y="32" type="line"/>
			<point x="166" y="32" type="line"/>
			<point x="50" y="23" type="line"/>
		</contour>
		<contour>
			<point x="147" y="0" type="curve"/>
			<point x="203" y="0" type="line"/>
			<point x="200" y="97"/>
			<point x="200" y="209"/>
			<point x="200" y="330" type="curve" smooth="yes"/>
			<point x="200" y="354" type="line" smooth="yes"/>
			<point x="200" y="467"/>
			<point x="200" y="578"/>
			<point x="203" y="674" type="curve"/>
			<point x="147" y="674" type="line"/>
			<point x="150" y="577"/>
			<point x="150" y="466"/>
			<point x="150" y="363" type="curve" smooth="yes"/>
			<point x="150" y="313" type="line" smooth="yes"/>
			<point x="150" y="208"/>
			<point x="150" y="97"/>
		</contour>
		<contour>
			<point x="175" y="0" type="line"/>
			<point x="532" y="0" type="line"/>
			<point x="542" y="167" type="line"/>
			<point x="513" y="167" type="line"/>
			<point x="486" y="11" type="line"/>
			<point x="509" y="28" type="line"/>
			<point x="175" y="28" type="line"/>
		</contour>
		<contour>
			<point x="175" y="329" type="line"/>
			<point x="388" y="329" type="line"/>
			<point x="388" y="356" type="line"/>
			<point x="175" y="356" type="line"/>
		</contour>
		<contour>
			<point x="386" y="232" type="line"/>
			<point x="410" y="232" type="line"/>
			<point x="410" y="453" type="line"/>
			<point x="386" y="453" type="line"/>
			<point x="372" y="352" type="line"/>
			<point x="372" y="334" type="line"/>
		</contour>
		<contour>
			<point x="50" y="651" type="line"/>
			<point x="166" y="641" type="line"/>
			<point x="176" y="641" type="line"/>
			<point x="176" y="674" type="line"/>
			<point x="50" y="674" type="line"/>
		</contour>
		<contour>
			<point x="497" y="510" type="line"/>
			<point x="526" y="510" type="line"/>
			<point x="517" y="674" type="line"/>
			<point x="175" y="674" type="line"/>
			<point x="175" y="646" type="line"/>
			<point x="495" y="646" type="line"/>
			<point x="471" y="664" type="line"/>
		</contour>
	</outline>
	<anchor name="aboveUC" x="328" y="694"/>
	<anchor name="belowLC" x="332" y="-20"/>
	<anchor name="ogonek" x="459" y="0"/>
</glyph>
<glyph name="F" format="2">
	<unicode hex="0046"/>
	<advance width="559"/>
	<outline>
		<contour>
			<point x="50" y="0" type="line"/>
			<point x="308" y="0" type="line"/>
			<point x="308" y="23" type="line"/>
			<point x="184" y="32" type="line"/>
			<point x="166" y="32" type="line"/>
			<point x="50" y="23" type="line"/>
		</contour>
		<contour>
			<point x="147" y="0" type="curve"/>
			<point x="203" y="0" type="line"/>
			<point x="200" y="97"/>
			<point x="200" y="209"/>
			<point x="200" y="330" type="curve" smooth="yes"/>
			<point x="200" y="354" type="line" smooth="yes"/>
			<point x="200" y="467"/>
			<point x="200" y="578"/>
			<point x="203" y="674" type="curve"/>
			<point x="147" y="674" type="line"/>
			<point x="150" y="577"/>
			<point x="150" y="466"/>
			<point x="150" y="363" type="curve" smooth="yes"/>
			<point x="150" y="313" type="line" smooth="yes"/>
			<point x="150" y="208"/>
			<point x="150" y="97"/>
		</contour>
		<contour>
			<point x="175" y="329" type="line"/>
			<point x="390" y="329" type="line"/>
			<point x="390" y="356" type="line"/>
			<point x="175" y="356" type="line"/>
		</contour>
		<contour>
			<point x="388" y="229" type="line"/>
			<point x="412" y="229" type="line"/>
			<point x="412" y="453" type="line"/>
			<point x="388" y="453" type="line"/>
			<point x="374" y="352" type="line"/>
			<point x="374" y="332" type="line"/>
		</contour>
		<contour>
			<point x="50" y="651" type="line"/>
			<point x="166" y="641" type="line"/>
			<point x="176" y="641" type="line"/>
			<point x="176" y="674" type="line"/>
			<point x="50" y="674" type="line"/>
		</contour>
		<contour>
			<point x="498" y="510" type="line"/>
			<point x="527" y="510" type="line"/>
			<point x="517" y="674" type="line"/>
			<point x="175" y="674" type="line"/>
			<point x="175" y="646" type="line"/>
			<point x="496" y="646" type="line"/>
			<point x="471" y="664" type="line"/>
		</contour>
	</outline>
	<anchor name="aboveUC" x="326" y="694"/>
	<anchor name="belowLC" x="175" y="-20"/>
</glyph>
<glyph name="G" format="2">
	<unicode hex="0047"/>
	<advance width="665"/>
	<outline>
		<contour>
			<point x="376" y="-14" type="curve" smooth="yes"/>
			<point x="452" y="-14"/>
			<point x="511" y="4"/>
			<point x="579" y="45" type="curve"/>
			<point x="579" y="95" type="line" smooth="yes"/>
			<point x="579" y="180"/>
			<point x="580" y="251"/>
			<point x="582" y="319" type="curve"/>
			<point x="527" y="319" type="line"/>
			<point x="529" y="246"/>
			<point x="530" y="171"/>
			<point x="530" y="95" type="curve" smooth="yes"/>
			<point x="530" y="40" type="line"/>
			<point x="552" y="64" type="line"/>
			<point x="497" y="29"/>
			<point x="444" y="14"/>
			<point x="380" y="14" type="curve" smooth="yes"/>
			<point x="218" y="14"/>
			<point x="113" y="136"/>
			<point x="113" y="337" type="curve" smooth="yes"/>
			<point x="113" y="536"/>
			<point x="222" y="660"/>
			<point x="383" y="660" type="curve" smooth="yes"/>
			<point x="453" y="660"/>
			<point x="500" y="642"/>
			<point x="554" y="600" type="curve"/>
			<point x="553" y="629" type="line"/>
			<point x="521" y="640" type="line"/>
			<point x="546" y="489" type="line"/>
			<point x="576" y="489" type="line"/>
			<point x="571" y="634" type="line"/>
			<point x="514" y="670"/>
			<point x="457" y="687"/>
			<point x="379" y="687" type="curve" smooth="yes"/>
			<point x="188" y="687"/>
			<point x="57" y="545"/>
			<point x="57" y="337" type="curve" smooth="yes"/>
			<point x="57" y="129"/>
			<point x="182" y="-14"/>
		</contour>
		<contour>
			<point x="415" y="297" type="line"/>
			<point x="543" y="288" type="line"/>
			<point x="560" y="288" type="line"/>
			<point x="651" y="297" type="line"/>
			<point x="651" y="319" type="line"/>
			<point x="415" y="319" type="line"/>
		</contour>
	</outline>
	<anchor name="aboveUC" x="380" y="694"/>
	<anchor name="belowLC" x="381" y="-20"/>
</glyph>
<glyph name="H" format="2">
	<unicode hex="0048"/>
	<advance width="765"/>
	<outline>
		<contour>
			<point x="50" y="0" type="line"/>
			<point x="300" y="0" type="line"/>
			<point x="300" y="23" type="line"/>
			<point x="184" y="32" type="line"/>
			<point x="166" y="32" type="line"/>
			<point x="50" y="23" type="line"/>
		</contour>
		<contour>
			<point x="147" y="0" type="curve"/>
			<point x="203" y="0" type="line"/>
			<point x="200" y="97"/>
			<point x="200" y="209"/>
			<point x="200" y="337" type="curve" smooth="yes"/>
			<point x="200" y="363" type="line" smooth="yes"/>
			<point x="200" y="467"/>
			<point x="200" y="578"/>
			<point x="203" y="674" type="curve"/>
			<point x="147" y="674" type="line"/>
			<point x="150" y="577"/>
			<point x="150" y="466"/>
			<point x="150" y="363" type="curve" smooth="yes"/>
			<point x="150" y="313" type="line" smooth="yes"/>
			<point x="150" y="208"/>
			<point x="150" y="97"/>
		</contour>
		<contour>
			<point x="175" y="338" type="line"/>
			<point x="591" y="338" type="line"/>
			<point x="591" y="365" type="line"/>
			<point x="175" y="365" type="line"/>
		</contour>
		<contour>
			<point x="465" y="0" type="line"/>
			<point x="715" y="0" type="line"/>
			<point x="715" y="23" type="line"/>
			<point x="599" y="32" type="line"/>
			<point x="582" y="32" type="line"/>
			<point x="465" y="23" type="line"/>
		</contour>
		<contour>
			<point x="562" y="0" type="curve"/>
			<point x="618" y="0" type="line"/>
			<point x="615" y="97"/>
			<point x="615" y="209"/>
			<point x="615" y="313" type="curve" smooth="yes"/>
			<point x="615" y="363" type="line" smooth="yes"/>
			<point x="615" y="467"/>
			<point x="615" y="578"/>
			<point x="618" y="674" type="curve"/>
			<point x="562" y="674" type="line"/>
			<point x="565" y="577"/>
			<point x="565" y="466"/>
			<point x="565" y="363" type="curve" smooth="yes"/>
			<point x="565" y="337" type="line" smooth="yes"/>
			<point x="565" y="208"/>
			<point x="565" y="97"/>
		</contour>
		<contour>
			<point x="50" y="651" type="line"/>
			<point x="166" y="641" type="line"/>
			<point x="184" y="641" type="line"/>
			<point x="300" y="651" type="line"/>
			<point x="300" y="674" type="line"/>
			<point x="50" y="674" type="line"/>
		</contour>
		<contour>
			<point x="465" y="651" type="line"/>
			<point x="582" y="641" type="line"/>
			<point x="599" y="641" type="line"/>
			<point x="715" y="651" type="line"/>
			<point x="715" y="674" type="line"/>
			<point x="465" y="674" type="line"/>
		</contour>
	</outline>
	<anchor name="aboveUC" x="383" y="694"/>
	<anchor name="belowLC" x="383" y="-20"/>
</glyph>
<glyph name="I" format="2">
	<unicode hex="0049"/>
	<advance width="350"/>
	<outline>
		<contour>
			<point x="50" y="0" type="line"/>
			<point x="300" y="0" type="line"/>
			<point x="300" y="23" type="line"/>
			<point x="184" y="32" type="line"/>
			<point x="166" y="32" type="line"/>
			<point x="50" y="23" type="line"/>
		</contour>
		<contour>
			<point x="147" y="0" type="curve"/>
			<point x="203" y="0" type="line"/>
			<point x="200" y="97"/>
			<point x="200" y="209"/>
			<point x="200" y="313" type="curve" smooth="yes"/>
			<point x="200" y="363" type="line" smooth="yes"/>
			<point x="200" y="467"/>
			<point x="200" y="578"/>
			<point x="203" y="674" type="curve"/>
			<point x="147" y="674" type="line"/>
			<point x="150" y="577"/>
			<point x="150" y="466"/>
			<point x="150" y="363" type="curve" smooth="yes"/>
			<point x="150" y="313" type="line" smooth="yes"/>
			<point x="150" y="208"/>
			<point x="150" y="97"/>
		</contour>
		<contour>
			<point x="50" y="651" type="line"/>
			<point x="166" y="641" type="line"/>
			<point x="184" y="641" type="line"/>
			<point x="300" y="651" type="line"/>
			<point x="300" y="674" type="line"/>
			<point x="50" y="674" type="line"/>
		</contour>
	</outline>
	<anchor name="aboveUC" x="175" y="694"/>
	<anchor name="belowLC" x="175" y="-20"/>
	<anchor name="ogonek" x="204" y="0"/>
</glyph>
<glyph name="J" format="2">
	<unicode hex="004A"/>
	<advance width="353"/>
	<outline>
		<contour>
			<point x="59" y="-125" type="curve" smooth="yes"/>
			<point x="100" y="-125"/>
			<point x="134" y="-108"/>
			<point x="164" y="-71" type="curve" smooth="yes"/>
			<point x="201" y="-25"/>
			<point x="214" y="35"/>
			<point x="214" y="175" type="curve" smooth="yes"/>
			<point x="214" y="361" type="line" smooth="yes"/>
			<point x="214" y="468"/>
			<point x="214" y="572"/>
			<point x="216" y="674" type="curve"/>
			<point x="162" y="674" type="line"/>
			<point x="165" y="367"/>
			<point x="166" y="257"/>
			<point x="166" y="127" type="curve" smooth="yes"/>
			<point x="166" y="-5"/>
			<point x="144" y="-69"/>
			<point x="96" y="-100" type="curve"/>
			<point x="96" y="-106" type="line"/>
			<point x="115" y="-106" type="line"/>
			<point x="115" y="-100" type="line"/>
			<point x="96" y="-86" type="line" smooth="yes"/>
			<point x="74" y="-70"/>
			<point x="59" y="-63"/>
			<point x="38" y="-63" type="curve" smooth="yes"/>
			<point x="16" y="-63"/>
			<point x="-1" y="-72"/>
			<point x="-5" y="-91" type="curve"/>
			<point x="-1" y="-116"/>
			<point x="27" y="-125"/>
		</contour>
		<contour>
			<point x="53" y="651" type="line"/>
			<point x="179" y="641" type="line"/>
			<point x="197" y="641" type="line"/>
			<point x="313" y="651" type="line"/>
			<point x="313" y="674" type="line"/>
			<point x="53" y="674" type="line"/>
		</contour>
	</outline>
	<anchor name="aboveUC" x="187" y="694"/>
	<anchor name="belowLC" x="134" y="-140"/>
</glyph>
<glyph name="K" format="2">
	<unicode hex="004B"/>
	<advance width="647"/>
	<outline>
		<contour>
			<point x="147" y="0" type="curve"/>
			<point x="202" y="0" type="line"/>
			<point x="199" y="97"/>
			<point x="199" y="200"/>
			<point x="199" y="271" type="curve" smooth="yes"/>
			<point x="199" y="363" type="line" smooth="yes"/>
			<point x="199" y="467"/>
			<point x="199" y="578"/>
			<point x="202" y="674" type="curve"/>
			<point x="147" y="674" type="line"/>
			<point x="150" y="577"/>
			<point x="150" y="466"/>
			<point x="150" y="363" type="curve" smooth="yes"/>
			<point x="150" y="313" type="line" smooth="yes"/>
			<point x="150" y="208"/>
			<point x="150" y="97"/>
		</contour>
		<contour>
			<point x="50" y="0" type="line"/>
			<point x="300" y="0" type="line"/>
			<point x="300" y="23" type="line"/>
			<point x="184" y="32" type="line"/>
			<point x="166" y="32" type="line"/>
			<point x="50" y="23" type="line"/>
		</contour>
		<contour>
			<point x="50" y="651" type="line"/>
			<point x="166" y="641" type="line"/>
			<point x="184" y="641" type="line"/>
			<point x="300" y="651" type="line"/>
			<point x="300" y="674" type="line"/>
			<point x="50" y="674" type="line"/>
		</contour>
		<contour>
			<point x="418" y="0" type="line"/>
			<point x="646" y="0" type="line"/>
			<point x="646" y="23" type="line"/>
			<point x="544" y="32" type="line"/>
			<point x="528" y="32" type="line"/>
			<point x="418" y="23" type="line"/>
		</contour>
		<contour>
			<point x="406" y="651" type="line"/>
			<point x="518" y="640" type="line"/>
			<point x="535" y="641" type="line"/>
			<point x="627" y="651" type="line"/>
			<point x="627" y="674" type="line"/>
			<point x="406" y="674" type="line"/>
		</contour>
		<contour>
			<point x="173" y="188" type="line"/>
			<point x="569" y="674" type="line"/>
			<point x="533" y="674" type="line"/>
			<point x="189" y="249" type="line"/>
			<point x="176" y="233" type="line"/>
			<point x="171" y="233" type="line"/>
		</contour>
		<contour>
			<point x="527" y="0" type="line"/>
			<point x="581" y="0" type="line"/>
			<point x="345" y="420" type="line"/>
			<point x="312" y="382" type="line"/>
		</contour>
	</outline>
	<anchor name="aboveUC" x="336" y="694"/>
	<anchor name="belowLC" x="348" y="-20"/>
</glyph>
<glyph name="L" format="2">
	<unicode hex="004C"/>
	<advance width="559"/>
	<outline>
		<contour>
			<point x="51" y="0" type="line"/>
			<point x="177" y="0" type="line"/>
			<point x="177" y="33" type="line"/>
			<point x="167" y="33" type="line"/>
			<point x="51" y="23" type="line"/>
		</contour>
		<contour>
			<point x="148" y="0" type="curve"/>
			<point x="204" y="0" type="line"/>
			<point x="201" y="97"/>
			<point x="201" y="208"/>
			<point x="201" y="298" type="curve" smooth="yes"/>
			<point x="201" y="346" type="line" smooth="yes"/>
			<point x="201" y="467"/>
			<point x="201" y="577"/>
			<point x="204" y="674" type="curve"/>
			<point x="148" y="674" type="line"/>
			<point x="150" y="577"/>
			<point x="150" y="467"/>
			<point x="150" y="363" type="curve" smooth="yes"/>
			<point x="150" y="313" type="line" smooth="yes"/>
			<point x="150" y="208"/>
			<point x="150" y="98"/>
		</contour>
		<contour>
			<point x="176" y="0" type="line"/>
			<point x="516" y="0" type="line"/>
			<point x="526" y="174" type="line"/>
			<point x="496" y="174" type="line"/>
			<point x="468" y="12" type="line"/>
			<point x="490" y="28" type="line"/>
			<point x="176" y="28" type="line"/>
		</contour>
		<contour>
			<point x="51" y="650" type="line"/>
			<point x="167" y="641" type="line"/>
			<point x="184" y="641" type="line"/>
			<point x="300" y="650" type="line"/>
			<point x="300" y="674" type="line"/>
			<point x="51" y="674" type="line"/>
		</contour>
	</outline>
	<anchor name="aboveUC" x="179" y="694"/>
	<anchor name="belowLC" x="308" y="-20"/>
</glyph>
<glyph name="M" format="2">
	<unicode hex="004D"/>
	<advance width="877"/>
	<outline>
		<contour>
			<point x="44" y="0" type="line"/>
			<point x="259" y="0" type="line"/>
			<point x="259" y="23" type="line"/>
			<point x="157" y="32" type="line"/>
			<point x="143" y="32" type="line"/>
			<point x="44" y="23" type="line"/>
		</contour>
		<contour>
			<point x="42" y="651" type="line"/>
			<point x="153" y="641" type="line"/>
			<point x="159" y="641" type="line"/>
			<point x="159" y="674" type="line"/>
			<point x="42" y="674" type="line"/>
		</contour>
		<contour>
			<point x="135" y="0" type="line"/>
			<point x="165" y="0" type="line"/>
			<point x="165" y="372" type="line"/>
			<point x="161" y="671" type="line"/>
			<point x="135" y="671" type="line"/>
		</contour>
		<contour>
			<point x="412" y="0" type="line"/>
			<point x="434" y="0" type="line"/>
			<point x="686" y="631" type="line"/>
			<point x="692" y="648" type="line"/>
			<point x="698" y="648" type="line"/>
			<point x="698" y="674" type="line"/>
			<point x="671" y="674" type="line"/>
			<point x="427" y="63" type="line"/>
			<point x="424" y="53" type="line"/>
			<point x="440" y="53" type="line"/>
			<point x="190" y="674" type="line"/>
			<point x="142" y="674" type="line"/>
			<point x="142" y="647" type="line"/>
			<point x="149" y="647" type="line"/>
		</contour>
		<contour>
			<point x="580" y="0" type="line"/>
			<point x="826" y="0" type="line"/>
			<point x="826" y="23" type="line"/>
			<point x="711" y="32" type="line"/>
			<point x="693" y="32" type="line"/>
			<point x="580" y="23" type="line"/>
		</contour>
		<contour>
			<point x="674" y="0" type="curve"/>
			<point x="729" y="0" type="line"/>
			<point x="727" y="97"/>
			<point x="727" y="209"/>
			<point x="727" y="313" type="curve" smooth="yes"/>
			<point x="727" y="363" type="line" smooth="yes"/>
			<point x="727" y="467"/>
			<point x="727" y="578"/>
			<point x="729" y="674" type="curve"/>
			<point x="678" y="674" type="line"/>
			<point x="677" y="309" type="line" smooth="yes"/>
			<point x="677" y="208"/>
			<point x="677" y="97"/>
		</contour>
		<contour>
			<point x="699" y="641" type="line"/>
			<point x="711" y="641" type="line"/>
			<point x="826" y="651" type="line"/>
			<point x="826" y="674" type="line"/>
			<point x="699" y="674" type="line"/>
		</contour>
	</outline>
	<anchor name="aboveUC" x="432" y="694"/>
	<anchor name="belowLC" x="422" y="-20"/>
</glyph>
<glyph name="N" format="2">
	<unicode hex="004E"/>
	<advance width="719"/>
	<outline>
		<contour>
			<point x="45" y="0" type="line"/>
			<point x="271" y="0" type="line"/>
			<point x="271" y="23" type="line"/>
			<point x="158" y="32" type="line"/>
			<point x="144" y="32" type="line"/>
			<point x="45" y="23" type="line"/>
		</contour>
		<contour>
			<point x="134" y="0" type="line"/>
			<point x="164" y="0" type="line"/>
			<point x="164" y="336" type="line"/>
			<point x="164" y="657" type="line"/>
			<point x="134" y="657" type="line"/>
		</contour>
		<contour>
			<point x="455" y="651" type="line"/>
			<point x="570" y="642" type="line"/>
			<point x="583" y="642" type="line"/>
			<point x="679" y="651" type="line"/>
			<point x="679" y="674" type="line"/>
			<point x="455" y="674" type="line"/>
		</contour>
		<contour>
			<point x="568" y="-7" type="line"/>
			<point x="591" y="-7" type="line"/>
			<point x="591" y="674" type="line"/>
			<point x="561" y="674" type="line"/>
			<point x="561" y="337" type="line"/>
			<point x="561" y="66" type="line"/>
			<point x="574" y="70" type="line"/>
			<point x="176" y="674" type="line"/>
			<point x="42" y="674" type="line"/>
			<point x="42" y="651" type="line"/>
			<point x="136" y="645" type="line"/>
			<point x="157" y="611" type="line"/>
			<point x="159" y="611" type="line"/>
		</contour>
	</outline>
	<anchor name="aboveUC" x="363" y="694"/>
	<anchor name="belowLC" x="361" y="-20"/>
</glyph>
<glyph name="O" format="2">
	<unicode hex="004F"/>
	<advance width="688"/>
	<outline>
		<contour>
			<point x="344" y="-14" type="curve" smooth="yes"/>
			<point x="502" y="-14"/>
			<point x="631" y="121"/>
			<point x="631" y="337" type="curve" smooth="yes"/>
			<point x="631" y="556"/>
			<point x="502" y="687"/>
			<point x="344" y="687" type="curve" smooth="yes"/>
			<point x="187" y="687"/>
			<point x="57" y="552"/>
			<point x="57" y="337" type="curve" smooth="yes"/>
			<point x="57" y="117"/>
			<point x="186" y="-14"/>
		</contour>
		<contour>
			<point x="344" y="14" type="curve" smooth="yes"/>
			<point x="195" y="14"/>
			<point x="113" y="160"/>
			<point x="113" y="337" type="curve" smooth="yes"/>
			<point x="113" y="513"/>
			<point x="195" y="660"/>
			<point x="344" y="660" type="curve" smooth="yes"/>
			<point x="493" y="660"/>
			<point x="575" y="514"/>
			<point x="575" y="337" type="curve" smooth="yes"/>
			<point x="575" y="160"/>
			<point x="493" y="14"/>
		</contour>
	</outline>
	<anchor name="aboveUC" x="344" y="694"/>
	<anchor name="belowLC" x="347" y="-20"/>
	<anchor name="hornLC" x="521" y="589"/>
	<anchor name="ogonek" x="428" y="0"/>
</glyph>
<glyph name="P" format="2">
	<unicode hex="0050"/>
	<advance width="563"/>
	<outline>
		<contour>
			<point x="50" y="0" type="line"/>
			<point x="308" y="0" type="line"/>
			<point x="308" y="23" type="line"/>
			<point x="184" y="32" type="line"/>
			<point x="166" y="32" type="line"/>
			<point x="50" y="23" type="line"/>
		</contour>
		<contour>
			<point x="147" y="0" type="curve"/>
			<point x="203" y="0" type="line"/>
			<point x="200" y="97"/>
			<point x="200" y="206"/>
			<point x="200" y="306" type="curve" smooth="yes"/>
			<point x="200" y="363" type="line" smooth="yes"/>
			<point x="200" y="467"/>
			<point x="200" y="578"/>
			<point x="203" y="674" type="curve"/>
			<point x="147" y="674" type="line"/>
			<point x="150" y="577"/>
			<point x="150" y="466"/>
			<point x="150" y="363" type="curve" smooth="yes"/>
			<point x="150" y="313" type="line" smooth="yes"/>
			<point x="150" y="208"/>
			<point x="150" y="97"/>
		</contour>
		<contour>
			<point x="174" y="282" type="line"/>
			<point x="264" y="282" type="line" smooth="yes"/>
			<point x="447" y="282"/>
			<point x="526" y="370"/>
			<point x="526" y="482" type="curve" smooth="yes"/>
			<point x="526" y="598"/>
			<point x="449" y="674"/>
			<point x="297" y="674" type="curve" smooth="yes"/>
			<point x="174" y="674" type="line"/>
			<point x="174" y="647" type="line"/>
			<point x="286" y="647" type="line" smooth="yes"/>
			<point x="418" y="647"/>
			<point x="474" y="588"/>
			<point x="474" y="482" type="curve" smooth="yes"/>
			<point x="474" y="381"/>
			<point x="417" y="308"/>
			<point x="260" y="308" type="curve" smooth="yes"/>
			<point x="174" y="308" type="line"/>
		</contour>
		<contour>
			<point x="50" y="651" type="line"/>
			<point x="166" y="641" type="line"/>
			<point x="176" y="641" type="line"/>
			<point x="176" y="674" type="line"/>
			<point x="50" y="674" type="line"/>
		</contour>
	</outline>
	<anchor name="aboveUC" x="291" y="694"/>
	<anchor name="belowLC" x="176" y="-20"/>
</glyph>
<glyph name="Q" format="2">
	<unicode hex="0051"/>
	<advance width="688"/>
	<outline>
		<contour>
			<point x="486" y="-205" type="curve" smooth="yes"/>
			<point x="521" y="-205"/>
			<point x="564" y="-196"/>
			<point x="596" y="-175" type="curve"/>
			<point x="589" y="-156" type="line"/>
			<point x="558" y="-168"/>
			<point x="531" y="-173"/>
			<point x="499" y="-173" type="curve" smooth="yes"/>
			<point x="415" y="-173"/>
			<point x="360" y="-105"/>
			<point x="366" y="4" type="curve"/>
			<point x="316" y="5" type="line"/>
			<point x="316" y="-12" type="line" smooth="yes"/>
			<point x="316" y="-110"/>
			<point x="368" y="-205"/>
		</contour>
		<component base="O"/>
	</outline>
	<anchor name="aboveUC" x="344" y="694"/>
</glyph>
<glyph name="R" format="2">
	<unicode hex="0052"/>
	<advance width="637"/>
	<outline>
		<contour>
			<point x="50" y="0" type="line"/>
			<point x="300" y="0" type="line"/>
			<point x="300" y="23" type="line"/>
			<point x="184" y="32" type="line"/>
			<point x="166" y="32" type="line"/>
			<point x="50" y="23" type="line"/>
		</contour>
		<contour>
			<point x="147" y="0" type="curve"/>
			<point x="203" y="0" type="line"/>
			<point x="200" y="97"/>
			<point x="200" y="209"/>
			<point x="200" y="320" type="curve" smooth="yes"/>
			<point x="200" y="343" type="line" smooth="yes"/>
			<point x="200" y="468"/>
			<point x="200" y="577"/>
			<point x="203" y="674" type="curve"/>
			<point x="147" y="674" type="line"/>
			<point x="150" y="577"/>
			<point x="150" y="466"/>
			<point x="150" y="363" type="curve" smooth="yes"/>
			<point x="150" y="313" type="line" smooth="yes"/>
			<point x="150" y="208"/>
			<point x="150" y="97"/>
		</contour>
		<contour>
			<point x="556" y="-6" type="curve" smooth="yes"/>
			<point x="584" y="-6"/>
			<point x="607" y="-3"/>
			<point x="621" y="0" type="curve"/>
			<point x="621" y="23" type="line"/>
			<point x="514" y="31" type="line"/>
			<point x="536" y="18" type="line"/>
			<point x="459" y="215" type="line" smooth="yes"/>
			<point x="430" y="291"/>
			<point x="398" y="321"/>
			<point x="321" y="327" type="curve"/>
			<point x="329" y="319" type="line"/>
			<point x="456" y="326"/>
			<point x="529" y="402"/>
			<point x="529" y="499" type="curve" smooth="yes"/>
			<point x="529" y="612"/>
			<point x="448" y="674"/>
			<point x="308" y="674" type="curve" smooth="yes"/>
			<point x="174" y="674" type="line"/>
			<point x="174" y="647" type="line"/>
			<point x="305" y="647" type="line" smooth="yes"/>
			<point x="424" y="647"/>
			<point x="478" y="590"/>
			<point x="478" y="499" type="curve" smooth="yes"/>
			<point x="478" y="409"/>
			<point x="411" y="340"/>
			<point x="308" y="340" type="curve" smooth="yes"/>
			<point x="174" y="340" type="line"/>
			<point x="174" y="314" type="line"/>
			<point x="270" y="314" type="line" smooth="yes"/>
			<point x="356" y="314"/>
			<point x="383" y="288"/>
			<point x="410" y="213" type="curve" smooth="yes"/>
			<point x="473" y="41" type="line" smooth="yes"/>
			<point x="485" y="7"/>
			<point x="502" y="-6"/>
		</contour>
		<contour>
			<point x="50" y="651" type="line"/>
			<point x="166" y="641" type="line"/>
			<point x="176" y="641" type="line"/>
			<point x="176" y="674" type="line"/>
			<point x="50" y="674" type="line"/>
		</contour>
	</outline>
	<anchor name="aboveUC" x="313" y="694"/>
	<anchor name="belowLC" x="337" y="-20"/>
</glyph>
<glyph name="S" format="2">
	<unicode hex="0053"/>
	<advance width="504"/>
	<outline>
		<contour>
			<point x="235" y="-14" type="curve" smooth="yes"/>
			<point x="364" y="-14"/>
			<point x="454" y="55"/>
			<point x="454" y="168" type="curve" smooth="yes"/>
			<point x="454" y="266"/>
			<point x="401" y="314"/>
			<point x="276" y="365" type="curve" smooth="yes"/>
			<point x="237" y="381" type="line" smooth="yes"/>
			<point x="164" y="411"/>
			<point x="114" y="451"/>
			<point x="114" y="527" type="curve" smooth="yes"/>
			<point x="114" y="618"/>
			<point x="180" y="660"/>
			<point x="266" y="660" type="curve" smooth="yes"/>
			<point x="322" y="660"/>
			<point x="362" y="647"/>
			<point x="405" y="611" type="curve"/>
			<point x="405" y="633" type="line"/>
			<point x="375" y="649" type="line"/>
			<point x="393" y="509" type="line"/>
			<point x="422" y="509" type="line"/>
			<point x="426" y="638" type="line"/>
			<point x="382" y="670"/>
			<point x="338" y="687"/>
			<point x="267" y="687" type="curve" smooth="yes"/>
			<point x="161" y="687"/>
			<point x="69" y="632"/>
			<point x="69" y="518" type="curve" smooth="yes"/>
			<point x="69" y="423"/>
			<point x="130" y="370"/>
			<point x="226" y="330" type="curve" smooth="yes"/>
			<point x="263" y="315" type="line" smooth="yes"/>
			<point x="364" y="274"/>
			<point x="409" y="237"/>
			<point x="409" y="161" type="curve" smooth="yes"/>
			<point x="409" y="62"/>
			<point x="337" y="14"/>
			<point x="235" y="14" type="curve" smooth="yes"/>
			<point x="167" y="14"/>
			<point x="124" y="30"/>
			<point x="71" y="69" type="curve"/>
			<point x="70" y="47" type="line"/>
			<point x="102" y="31" type="line"/>
			<point x="84" y="175" type="line"/>
			<point x="56" y="175" type="line"/>
			<point x="50" y="40" type="line"/>
			<point x="91" y="12"/>
			<point x="159" y="-14"/>
		</contour>
	</outline>
	<anchor name="aboveUC" x="267" y="694"/>
	<anchor name="baseLC" x="238" y="0"/>
	<anchor name="belowLC" x="238" y="-20"/>
</glyph>
<glyph name="T" format="2">
	<unicode hex="0054"/>
	<advance width="587"/>
	<outline>
		<contour>
			<point x="158" y="0" type="line"/>
			<point x="428" y="0" type="line"/>
			<point x="428" y="23" type="line"/>
			<point x="302" y="32" type="line"/>
			<point x="284" y="32" type="line"/>
			<point x="158" y="23" type="line"/>
		</contour>
		<contour>
			<point x="266" y="0" type="curve"/>
			<point x="321" y="0" type="line"/>
			<point x="318" y="97"/>
			<point x="318" y="209"/>
			<point x="318" y="313" type="curve" smooth="yes"/>
			<point x="318" y="363" type="line" smooth="yes"/>
			<point x="318" y="467"/>
			<point x="318" y="578"/>
			<point x="321" y="674" type="curve"/>
			<point x="266" y="674" type="line"/>
			<point x="268" y="577"/>
			<point x="268" y="466"/>
			<point x="268" y="363" type="curve" smooth="yes"/>
			<point x="268" y="313" type="line" smooth="yes"/>
			<point x="268" y="208"/>
			<point x="268" y="97"/>
		</contour>
		<contour>
			<point x="22" y="502" type="line"/>
			<point x="51" y="502" type="line"/>
			<point x="79" y="671" type="line"/>
			<point x="54" y="646" type="line"/>
			<point x="532" y="646" type="line"/>
			<point x="508" y="671" type="line"/>
			<point x="536" y="502" type="line"/>
			<point x="565" y="502" type="line"/>
			<point x="555" y="674" type="line"/>
			<point x="32" y="674" type="line"/>
		</contour>
	</outline>
	<anchor name="aboveUC" x="293" y="694"/>
	<anchor name="baseLC" x="293" y="0"/>
	<anchor name="belowLC" x="293" y="-20"/>
</glyph>
<glyph name="U" format="2">
	<unicode hex="0055"/>
	<advance width="718"/>
	<outline>
		<contour>
			<point x="361" y="-14" type="curve" smooth="yes"/>
			<point x="507" y="-14"/>
			<point x="587" y="73"/>
			<point x="587" y="253" type="curve" smooth="yes"/>
			<point x="587" y="674" type="line"/>
			<point x="557" y="674" type="line"/>
			<point x="557" y="275" type="line" smooth="yes"/>
			<point x="557" y="94"/>
			<point x="497" y="25"/>
			<point x="367" y="25" type="curve" smooth="yes"/>
			<point x="258" y="25"/>
			<point x="187" y="87"/>
			<point x="187" y="257" type="curve" smooth="yes"/>
			<point x="187" y="352" type="line" smooth="yes"/>
			<point x="187" y="472"/>
			<point x="187" y="574"/>
			<point x="189" y="674" type="curve"/>
			<point x="134" y="674" type="line"/>
			<point x="136" y="573"/>
			<point x="136" y="470"/>
			<point x="136" y="352" type="curve" smooth="yes"/>
			<point x="136" y="245" type="line" smooth="yes"/>
			<point x="136" y="61"/>
			<point x="226" y="-14"/>
		</contour>
		<contour>
			<point x="46" y="651" type="line"/>
			<point x="156" y="641" type="line"/>
			<point x="173" y="641" type="line"/>
			<point x="289" y="651" type="line"/>
			<point x="289" y="674" type="line"/>
			<point x="46" y="674" type="line"/>
		</contour>
		<contour>
			<point x="450" y="651" type="line"/>
			<point x="564" y="642" type="line"/>
			<point x="577" y="642" type="line"/>
			<point x="673" y="651" type="line"/>
			<point x="673" y="674" type="line"/>
			<point x="450" y="674" type="line"/>
		</contour>
	</outline>
	<anchor name="aboveUC" x="373" y="694"/>
	<anchor name="belowLC" x="365" y="-20"/>
	<anchor name="hornLC" x="584" y="607"/>
	<anchor name="ogonek" x="441" y="0"/>
</glyph>
<glyph name="V" format="2">
	<unicode hex="0056"/>
	<advance width="644"/>
	<outline>
		<contour>
			<point x="313" y="-8" type="line"/>
			<point x="337" y="-8" type="line"/>
			<point x="560" y="674" type="line"/>
			<point x="528" y="674" type="line"/>
			<point x="330" y="58" type="line"/>
			<point x="326" y="45" type="line"/>
			<point x="342" y="45" type="line"/>
			<point x="134" y="674" type="line"/>
			<point x="80" y="674" type="line"/>
		</contour>
		<contour>
			<point x="7" y="651" type="line"/>
			<point x="113" y="641" type="line"/>
			<point x="130" y="641" type="line"/>
			<point x="246" y="650" type="line"/>
			<point x="246" y="674" type="line"/>
			<point x="7" y="674" type="line"/>
		</contour>
		<contour>
			<point x="417" y="650" type="line"/>
			<point x="524" y="642" type="line"/>
			<point x="540" y="642" type="line"/>
			<point x="635" y="651" type="line"/>
			<point x="635" y="674" type="line"/>
			<point x="417" y="674" type="line"/>
		</contour>
	</outline>
	<anchor name="aboveUC" x="333" y="694"/>
	<anchor name="belowLC" x="327" y="-20"/>
</glyph>
<glyph name="W" format="2">
	<unicode hex="0057"/>
	<advance width="941"/>
	<outline>
		<contour>
			<point x="274" y="-8" type="line"/>
			<point x="299" y="-8" type="line"/>
			<point x="475" y="596" type="line"/>
			<point x="479" y="609" type="line"/>
			<point x="463" y="609" type="line"/>
			<point x="645" y="-8" type="line"/>
			<point x="670" y="-8" type="line"/>
			<point x="850" y="674" type="line"/>
			<point x="819" y="674" type="line"/>
			<point x="663" y="69" type="line"/>
			<point x="659" y="56" type="line"/>
			<point x="674" y="56" type="line"/>
			<point x="494" y="674" type="line"/>
			<point x="471" y="674" type="line"/>
			<point x="294" y="70" type="line"/>
			<point x="290" y="57" type="line"/>
			<point x="305" y="57" type="line"/>
			<point x="141" y="674" type="line"/>
			<point x="89" y="674" type="line"/>
		</contour>
		<contour>
			<point x="12" y="651" type="line"/>
			<point x="118" y="641" type="line"/>
			<point x="134" y="641" type="line"/>
			<point x="247" y="651" type="line"/>
			<point x="247" y="674" type="line"/>
			<point x="12" y="674" type="line"/>
		</contour>
		<contour>
			<point x="369" y="651" type="line"/>
			<point x="474" y="642" type="line"/>
			<point x="491" y="641" type="line"/>
			<point x="599" y="651" type="line"/>
			<point x="599" y="674" type="line"/>
			<point x="369" y="674" type="line"/>
		</contour>
		<contour>
			<point x="714" y="651" type="line"/>
			<point x="817" y="642" type="line"/>
			<point x="832" y="642" type="line"/>
			<point x="931" y="651" type="line"/>
			<point x="931" y="674" type="line"/>
			<point x="714" y="674" type="line"/>
		</contour>
	</outline>
	<anchor name="aboveUC" x="482" y="694"/>
	<anchor name="belowLC" x="475" y="-20"/>
</glyph>
<glyph name="X" format="2">
	<unicode hex="0058"/>
	<advance width="628"/>
	<outline>
		<contour>
			<point x="16" y="0" type="line"/>
			<point x="233" y="0" type="line"/>
			<point x="233" y="23" type="line"/>
			<point x="127" y="32" type="line"/>
			<point x="110" y="32" type="line"/>
			<point x="16" y="23" type="line"/>
		</contour>
		<contour>
			<point x="82" y="0" type="line"/>
			<point x="117" y="0" type="line"/>
			<point x="310" y="322" type="line"/>
			<point x="316" y="331" type="line"/>
			<point x="321" y="331" type="line"/>
			<point x="299" y="352" type="line"/>
		</contour>
		<contour>
			<point x="374" y="0" type="line"/>
			<point x="612" y="0" type="line"/>
			<point x="612" y="23" type="line"/>
			<point x="507" y="32" type="line"/>
			<point x="489" y="32" type="line"/>
			<point x="374" y="23" type="line"/>
		</contour>
		<contour>
			<point x="331" y="344" type="line"/>
			<point x="531" y="674" type="line"/>
			<point x="496" y="674" type="line"/>
			<point x="319" y="372" type="line"/>
			<point x="314" y="365" type="line"/>
			<point x="310" y="365" type="line"/>
		</contour>
		<contour>
			<point x="489" y="0" type="line"/>
			<point x="545" y="0" type="line"/>
			<point x="150" y="674" type="line"/>
			<point x="94" y="674" type="line"/>
		</contour>
		<contour>
			<point x="28" y="651" type="line"/>
			<point x="131" y="641" type="line"/>
			<point x="149" y="641" type="line"/>
			<point x="266" y="651" type="line"/>
			<point x="266" y="674" type="line"/>
			<point x="28" y="674" type="line"/>
		</contour>
		<contour>
			<point x="381" y="651" type="line"/>
			<point x="487" y="642" type="line"/>
			<point x="503" y="642" type="line"/>
			<point x="599" y="651" type="line"/>
			<point x="599" y="674" type="line"/>
			<point x="381" y="674" type="line"/>
		</contour>
	</outline>
	<anchor name="aboveUC" x="327" y="694"/>
	<anchor name="belowLC" x="308" y="-20"/>
</glyph>
<glyph name="Y" format="2">
	<unicode hex="0059"/>
	<advance width="623"/>
	<outline>
		<contour>
			<point x="177" y="0" type="line"/>
			<point x="448" y="0" type="line"/>
			<point x="448" y="23" type="line"/>
			<point x="321" y="32" type="line"/>
			<point x="303" y="32" type="line"/>
			<point x="177" y="23" type="line"/>
		</contour>
		<contour>
			<point x="285" y="0" type="curve"/>
			<point x="340" y="0" type="line"/>
			<point x="337" y="97"/>
			<point x="337" y="151"/>
			<point x="337" y="292" type="curve"/>
			<point x="287" y="292" type="line"/>
			<point x="287" y="151"/>
			<point x="287" y="96"/>
		</contour>
		<contour>
			<point x="301" y="240" type="line"/>
			<point x="323" y="240" type="line"/>
			<point x="536" y="674" type="line"/>
			<point x="505" y="674" type="line"/>
			<point x="319" y="290" type="line"/>
			<point x="314" y="281" type="line"/>
			<point x="333" y="281" type="line"/>
			<point x="142" y="674" type="line"/>
			<point x="86" y="674" type="line"/>
		</contour>
		<contour>
			<point x="25" y="651" type="line"/>
			<point x="123" y="641" type="line"/>
			<point x="141" y="641" type="line"/>
			<point x="257" y="651" type="line"/>
			<point x="257" y="674" type="line"/>
			<point x="25" y="674" type="line"/>
		</contour>
		<contour>
			<point x="390" y="651" type="line"/>
			<point x="498" y="642" type="line"/>
			<point x="513" y="642" type="line"/>
			<point x="605" y="651" type="line"/>
			<point x="605" y="674" type="line"/>
			<point x="390" y="674" type="line"/>
		</contour>
	</outline>
	<anchor name="aboveUC" x="328" y="694"/>
	<anchor name="belowLC" x="311" y="-20"/>
</glyph>
<glyph name="Z" format="2">
	<unicode hex="005A"/>
	<advance width="537"/>
	<outline>
		<contour>
			<point x="26" y="0" type="line"/>
			<point x="502" y="0" type="line"/>
			<point x="512" y="171" type="line"/>
			<point x="483" y="171" type="line"/>
			<point x="453" y="12" type="line"/>
			<point x="476" y="28" type="line"/>
			<point x="278" y="28" type="line"/>
			<point x="82" y="28" type="line"/>
			<point x="82" y="36" type="line"/>
			<point x="75" y="12" type="line"/>
			<point x="491" y="652" type="line"/>
			<point x="491" y="674" type="line"/>
			<point x="46" y="674" type="line"/>
			<point x="37" y="505" type="line"/>
			<point x="66" y="505" type="line"/>
			<point x="95" y="662" type="line"/>
			<point x="71" y="646" type="line"/>
			<point x="254" y="646" type="line"/>
			<point x="437" y="646" type="line"/>
			<point x="437" y="636" type="line"/>
			<point x="443" y="662" type="line"/>
			<point x="26" y="22" type="line"/>
		</contour>
	</outline>
	<anchor name="aboveUC" x="262" y="694"/>
	<anchor name="belowLC" x="280" y="-20"/>
</glyph>
<glyph name="bracketleft" format="2">
	<unicode hex="005B"/>
	<advance width="299"/>
	<outline>
		<contour>
			<point x="99" y="-159" type="curve"/>
			<point x="146" y="-159" type="line"/>
			<point x="143" y="-60"/>
			<point x="143" y="53"/>
			<point x="143" y="159" type="curve" smooth="yes"/>
			<point x="143" y="399" type="line" smooth="yes"/>
			<point x="143" y="505"/>
			<point x="143" y="618"/>
			<point x="146" y="715" type="curve"/>
			<point x="99" y="715" type="line"/>
			<point x="102" y="617"/>
			<point x="102" y="504"/>
			<point x="102" y="399" type="curve" smooth="yes"/>
			<point x="102" y="159" type="line" smooth="yes"/>
			<point x="102" y="52"/>
			<point x="102" y="-62"/>
		</contour>
		<contour>
			<point x="120" y="-159" type="line"/>
			<point x="256" y="-159" type="line"/>
			<point x="256" y="-135" type="line"/>
			<point x="136" y="-126" type="line"/>
			<point x="120" y="-126" type="line"/>
		</contour>
		<contour>
			<point x="120" y="682" type="line"/>
			<point x="136" y="682" type="line"/>
			<point x="256" y="691" type="line"/>
			<point x="256" y="715" type="line"/>
			<point x="120" y="715" type="line"/>
		</contour>
	</outline>
</glyph>
<glyph name="backslash" format="2">
	<unicode hex="005C"/>
	<advance width="299"/>
	<outline>
		<contour>
			<point x="298" y="-160" type="line"/>
			<point x="34" y="709" type="line"/>
			<point x="1" y="709" type="line"/>
			<point x="264" y="-160" type="line"/>
		</contour>
	</outline>
</glyph>
<glyph name="asciicircum" format="2">
	<unicode hex="005E"/>
	<advance width="520"/>
	<outline>
		<contour>
			<point x="87" y="230" type="line"/>
			<point x="113" y="213" type="line"/>
			<point x="272" y="472" type="line"/>
			<point x="246" y="472" type="line"/>
			<point x="410" y="213" type="line"/>
			<point x="436" y="230" type="line"/>
			<point x="274" y="491" type="line"/>
			<point x="245" y="491" type="line"/>
		</contour>
	</outline>
</glyph>
<glyph name="a" format="2">
	<unicode hex="0061"/>
	<advance width="492"/>
	<outline>
		<contour>
			<point x="174" y="-13" type="curve" smooth="yes"/>
			<point x="237" y="-13"/>
			<point x="280" y="17"/>
			<point x="338" y="82" type="curve"/>
			<point x="354" y="82" type="line"/>
			<point x="350" y="119" type="line"/>
			<point x="278" y="47"/>
			<point x="239" y="24"/>
			<point x="191" y="24" type="curve" smooth="yes"/>
			<point x="136" y="24"/>
			<point x="100" y="55"/>
			<point x="100" y="113" type="curve" smooth="yes"/>
			<point x="100" y="157"/>
			<point x="127" y="197"/>
			<point x="209" y="227" type="curve" smooth="yes"/>
			<point x="254" y="243"/>
			<point x="307" y="258"/>
			<point x="356" y="271" type="curve"/>
			<point x="356" y="292" type="line"/>
			<point x="304" y="279"/>
			<point x="251" y="266"/>
			<point x="201" y="250" type="curve" smooth="yes"/>
			<point x="91" y="216"/>
			<point x="51" y="169"/>
			<point x="51" y="104" type="curve" smooth="yes"/>
			<point x="51" y="28"/>
			<point x="104" y="-13"/>
		</contour>
		<contour>
			<point x="408" y="-11" type="curve" smooth="yes"/>
			<point x="435" y="-11"/>
			<point x="460" y="2"/>
			<point x="477" y="26" type="curve"/>
			<point x="464" y="39" type="line"/>
			<point x="450" y="26"/>
			<point x="438" y="20"/>
			<point x="422" y="20" type="curve" smooth="yes"/>
			<point x="395" y="20"/>
			<point x="380" y="37"/>
			<point x="380" y="95" type="curve" smooth="yes"/>
			<point x="380" y="326" type="line" smooth="yes"/>
			<point x="380" y="433"/>
			<point x="331" y="478"/>
			<point x="234" y="478" type="curve" smooth="yes"/>
			<point x="150" y="478"/>
			<point x="85" y="438"/>
			<point x="64" y="365" type="curve"/>
			<point x="67" y="348"/>
			<point x="77" y="338"/>
			<point x="94" y="338" type="curve" smooth="yes"/>
			<point x="111" y="338"/>
			<point x="122" y="346"/>
			<point x="127" y="367" type="curve" smooth="yes"/>
			<point x="146" y="442" type="line"/>
			<point x="117" y="416" type="line"/>
			<point x="155" y="441"/>
			<point x="187" y="452"/>
			<point x="226" y="452" type="curve" smooth="yes"/>
			<point x="299" y="452"/>
			<point x="334" y="423"/>
			<point x="334" y="319" type="curve" smooth="yes"/>
			<point x="334" y="90" type="line"/>
			<point x="334" y="86" type="line"/>
			<point x="336" y="24"/>
			<point x="359" y="-11"/>
		</contour>
	</outline>
	<anchor name="aboveLC" x="234" y="485"/>
	<anchor name="belowLC" x="242" y="-20"/>
	<anchor name="ogonek" x="422" y="0"/>
</glyph>
<glyph name="b" format="2">
	<unicode hex="0062"/>
	<advance width="564"/>
	<outline>
		<contour>
			<point x="41" y="0" type="line"/>
			<point x="166" y="-6" type="line"/>
			<point x="171" y="75" type="line"/>
			<point x="171" y="77" type="line"/>
			<point x="171" y="379" type="line"/>
			<point x="170" y="386" type="line"/>
			<point x="170" y="585" type="line"/>
			<point x="173" y="738" type="line"/>
			<point x="160" y="745" type="line"/>
			<point x="39" y="723" type="line"/>
			<point x="39" y="702" type="line"/>
			<point x="125" y="697" type="line"/>
			<point x="125" y="210" type="line" smooth="yes"/>
			<point x="125" y="157"/>
			<point x="124" y="84"/>
			<point x="123" y="30" type="curve"/>
			<point x="41" y="22" type="line"/>
		</contour>
		<contour>
			<point x="320" y="-13" type="curve" smooth="yes"/>
			<point x="433" y="-13"/>
			<point x="516" y="82"/>
			<point x="516" y="240" type="curve" smooth="yes"/>
			<point x="516" y="387"/>
			<point x="436" y="478"/>
			<point x="328" y="478" type="curve" smooth="yes"/>
			<point x="268" y="478"/>
			<point x="207" y="449"/>
			<point x="159" y="381" type="curve"/>
			<point x="149" y="381" type="line"/>
			<point x="158" y="354" type="line"/>
			<point x="213" y="421"/>
			<point x="263" y="445"/>
			<point x="315" y="445" type="curve" smooth="yes"/>
			<point x="402" y="445"/>
			<point x="466" y="374"/>
			<point x="466" y="237" type="curve" smooth="yes"/>
			<point x="466" y="86"/>
			<point x="395" y="20"/>
			<point x="313" y="20" type="curve" smooth="yes"/>
			<point x="257" y="20"/>
			<point x="211" y="44"/>
			<point x="158" y="105" type="curve"/>
			<point x="149" y="78" type="line"/>
			<point x="160" y="78" type="line"/>
			<point x="207" y="10"/>
			<point x="266" y="-13"/>
		</contour>
	</outline>
	<anchor name="aboveLC" x="152" y="746"/>
	<anchor name="belowLC" x="308" y="-20"/>
</glyph>
<glyph name="c" format="2">
	<unicode hex="0063"/>
	<advance width="472"/>
	<outline>
		<contour>
			<point x="264" y="-13" type="curve" smooth="yes"/>
			<point x="342" y="-13"/>
			<point x="395" y="22"/>
			<point x="434" y="80" type="curve"/>
			<point x="420" y="91" type="line"/>
			<point x="379" y="45"/>
			<point x="329" y="25"/>
			<point x="273" y="25" type="curve" smooth="yes"/>
			<point x="170" y="25"/>
			<point x="98" y="105"/>
			<point x="98" y="234" type="curve" smooth="yes"/>
			<point x="98" y="367"/>
			<point x="173" y="452"/>
			<point x="271" y="452" type="curve" smooth="yes"/>
			<point x="307" y="452"/>
			<point x="339" y="442"/>
			<point x="376" y="415" type="curve"/>
			<point x="342" y="448" type="line"/>
			<point x="368" y="368" type="line" smooth="yes"/>
			<point x="373" y="350"/>
			<point x="383" y="339"/>
			<point x="402" y="339" type="curve" smooth="yes"/>
			<point x="418" y="339"/>
			<point x="429" y="348"/>
			<point x="432" y="365" type="curve"/>
			<point x="410" y="436"/>
			<point x="348" y="478"/>
			<point x="271" y="478" type="curve" smooth="yes"/>
			<point x="156" y="478"/>
			<point x="48" y="388"/>
			<point x="48" y="229" type="curve" smooth="yes"/>
			<point x="48" y="77"/>
			<point x="134" y="-13"/>
		</contour>
	</outline>
	<anchor name="aboveLC" x="270" y="486"/>
	<anchor name="baseLC" x="264" y="0"/>
	<anchor name="belowLC" x="265" y="-20"/>
</glyph>
<glyph name="d" format="2">
	<unicode hex="0064"/>
	<advance width="557"/>
	<outline>
		<contour>
			<point x="242" y="-13" type="curve" smooth="yes"/>
			<point x="305" y="-13"/>
			<point x="359" y="16"/>
			<point x="402" y="79" type="curve"/>
			<point x="411" y="79" type="line"/>
			<point x="403" y="109" type="line"/>
			<point x="355" y="46"/>
			<point x="311" y="20"/>
			<point x="253" y="20" type="curve" smooth="yes"/>
			<point x="165" y="20"/>
			<point x="99" y="89"/>
			<point x="99" y="226" type="curve" smooth="yes"/>
			<point x="99" y="377"/>
			<point x="173" y="445"/>
			<point x="260" y="445" type="curve" smooth="yes"/>
			<point x="314" y="445"/>
			<point x="355" y="422"/>
			<point x="404" y="364" type="curve"/>
			<point x="412" y="392" type="line"/>
			<point x="402" y="392" type="line"/>
			<point x="359" y="454"/>
			<point x="306" y="478"/>
			<point x="255" y="478" type="curve" smooth="yes"/>
			<point x="141" y="478"/>
			<point x="49" y="384"/>
			<point x="49" y="225" type="curve" smooth="yes"/>
			<point x="49" y="81"/>
			<point x="130" y="-13"/>
		</contour>
		<contour>
			<point x="395" y="-7" type="line"/>
			<point x="530" y="0" type="line"/>
			<point x="530" y="22" type="line"/>
			<point x="440" y="29" type="line"/>
			<point x="440" y="587" type="line"/>
			<point x="442" y="738" type="line"/>
			<point x="431" y="745" type="line"/>
			<point x="308" y="723" type="line"/>
			<point x="308" y="702" type="line"/>
			<point x="394" y="697" type="line"/>
			<point x="394" y="391" type="line"/>
			<point x="394" y="384" type="line"/>
			<point x="394" y="88" type="line"/>
			<point x="394" y="86" type="line"/>
		</contour>
	</outline>
	<anchor name="aboveLC" x="409" y="746"/>
	<anchor name="belowLC" x="267" y="-20"/>
</glyph>
<glyph name="e" format="2">
	<unicode hex="0065"/>
	<advance width="482"/>
	<outline>
		<contour>
			<point x="268" y="-13" type="curve" smooth="yes"/>
			<point x="341" y="-13"/>
			<point x="401" y="21"/>
			<point x="440" y="79" type="curve"/>
			<point x="427" y="91" type="line"/>
			<point x="388" y="48"/>
			<point x="338" y="25"/>
			<point x="277" y="25" type="curve" smooth="yes"/>
			<point x="171" y="25"/>
			<point x="98" y="97"/>
			<point x="98" y="241" type="curve" smooth="yes"/>
			<point x="98" y="367"/>
			<point x="169" y="452"/>
			<point x="259" y="452" type="curve" smooth="yes"/>
			<point x="344" y="452"/>
			<point x="390" y="387"/>
			<point x="390" y="308" type="curve" smooth="yes"/>
			<point x="390" y="278"/>
			<point x="382" y="266"/>
			<point x="354" y="266" type="curve" smooth="yes"/>
			<point x="72" y="266" type="line"/>
			<point x="72" y="241" type="line"/>
			<point x="430" y="241" type="line"/>
			<point x="434" y="255"/>
			<point x="436" y="273"/>
			<point x="436" y="295" type="curve" smooth="yes"/>
			<point x="436" y="399"/>
			<point x="368" y="478"/>
			<point x="259" y="478" type="curve" smooth="yes"/>
			<point x="144" y="478"/>
			<point x="48" y="379"/>
			<point x="48" y="229" type="curve" smooth="yes"/>
			<point x="48" y="68"/>
			<point x="140" y="-13"/>
		</contour>
	</outline>
	<anchor name="aboveLC" x="261" y="485"/>
	<anchor name="belowLC" x="265" y="-20"/>
	<anchor name="ogonek" x="334" y="0"/>
</glyph>
<glyph name="f" format="2">
	<unicode hex="0066"/>
	<advance width="344"/>
	<outline>
		<contour>
			<point x="35" y="0" type="line"/>
			<point x="271" y="0" type="line"/>
			<point x="271" y="22" type="line"/>
			<point x="155" y="32" type="line"/>
			<point x="141" y="32" type="line"/>
			<point x="35" y="22" type="line"/>
		</contour>
		<contour>
			<point x="122" y="0" type="curve"/>
			<point x="175" y="0" type="line"/>
			<point x="173" y="63"/>
			<point x="172" y="142"/>
			<point x="172" y="210" type="curve" smooth="yes"/>
			<point x="172" y="446" type="line"/>
			<point x="169" y="578"/>
			<point x="183" y="631"/>
			<point x="212" y="675" type="curve" smooth="yes"/>
			<point x="236" y="712"/>
			<point x="271" y="734"/>
			<point x="308" y="737" type="curve"/>
			<point x="308" y="744" type="line"/>
			<point x="273" y="744" type="line"/>
			<point x="273" y="738" type="line"/>
			<point x="300" y="717" type="line" smooth="yes"/>
			<point x="324" y="699"/>
			<point x="342" y="689"/>
			<point x="361" y="689" type="curve" smooth="yes"/>
			<point x="384" y="689"/>
			<point x="397" y="701"/>
			<point x="398" y="717" type="curve"/>
			<point x="390" y="742"/>
			<point x="357" y="756"/>
			<point x="319" y="756" type="curve" smooth="yes"/>
			<point x="278" y="756"/>
			<point x="238" y="741"/>
			<point x="204" y="709" type="curve" smooth="yes"/>
			<point x="153" y="660"/>
			<point x="128" y="591"/>
			<point x="125" y="462" type="curve"/>
			<point x="125" y="457" type="line"/>
			<point x="144" y="469" type="line"/>
			<point x="34" y="460" type="line"/>
			<point x="34" y="436" type="line"/>
			<point x="125" y="436" type="line"/>
			<point x="125" y="210" type="line" smooth="yes"/>
			<point x="125" y="142"/>
			<point x="124" y="63"/>
		</contour>
		<contour>
			<point x="148" y="436" type="line"/>
			<point x="319" y="436" type="line"/>
			<point x="319" y="466" type="line"/>
			<point x="148" y="466" type="line"/>
		</contour>
	</outline>
	<anchor name="aboveLC" x="291" y="746"/>
	<anchor name="belowLC" x="150" y="-20"/>
</glyph>
<glyph name="g" format="2">
	<unicode hex="0067"/>
	<advance width="500"/>
	<outline>
		<contour>
			<point x="227" y="-249" type="curve" smooth="yes"/>
			<point x="386" y="-249"/>
			<point x="469" y="-169"/>
			<point x="469" y="-85" type="curve" smooth="yes"/>
			<point x="469" y="-7"/>
			<point x="418" y="33"/>
			<point x="323" y="33" type="curve" smooth="yes"/>
			<point x="185" y="33" type="line" smooth="yes"/>
			<point x="134" y="33"/>
			<point x="114" y="56"/>
			<point x="114" y="89" type="curve" smooth="yes"/>
			<point x="114" y="120"/>
			<point x="128" y="142"/>
			<point x="165" y="176" type="curve"/>
			<point x="145" y="188" type="line"/>
			<point x="145" y="180" type="line"/>
			<point x="97" y="141"/>
			<point x="73" y="110"/>
			<point x="73" y="72" type="curve" smooth="yes"/>
			<point x="73" y="29"/>
			<point x="98" y="2"/>
			<point x="145" y="-6" type="curve"/>
			<point x="145" y="-8" type="line"/>
			<point x="160" y="-11"/>
			<point x="176" y="-11"/>
			<point x="191" y="-11" type="curve" smooth="yes"/>
			<point x="314" y="-11" type="line" smooth="yes"/>
			<point x="397" y="-11"/>
			<point x="425" y="-48"/>
			<point x="425" y="-95" type="curve" smooth="yes"/>
			<point x="425" y="-166"/>
			<point x="359" y="-221"/>
			<point x="233" y="-221" type="curve" smooth="yes"/>
			<point x="139" y="-221"/>
			<point x="88" y="-186"/>
			<point x="88" y="-117" type="curve" smooth="yes"/>
			<point x="88" y="-65"/>
			<point x="115" y="-35"/>
			<point x="167" y="-1" type="curve"/>
			<point x="161" y="7" type="line"/>
			<point x="87" y="-24"/>
			<point x="42" y="-66"/>
			<point x="42" y="-125" type="curve" smooth="yes"/>
			<point x="42" y="-201"/>
			<point x="102" y="-249"/>
		</contour>
		<contour>
			<point x="233" y="150" type="curve" smooth="yes"/>
			<point x="329" y="150"/>
			<point x="400" y="213"/>
			<point x="400" y="314" type="curve" smooth="yes"/>
			<point x="400" y="366"/>
			<point x="382" y="408"/>
			<point x="351" y="436" type="curve"/>
			<point x="349" y="437" type="line"/>
			<point x="321" y="463"/>
			<point x="280" y="478"/>
			<point x="233" y="478" type="curve" smooth="yes"/>
			<point x="137" y="478"/>
			<point x="66" y="414"/>
			<point x="66" y="314" type="curve" smooth="yes"/>
			<point x="66" y="212"/>
			<point x="136" y="150"/>
		</contour>
		<contour>
			<point x="233" y="174" type="curve" smooth="yes"/>
			<point x="161" y="174"/>
			<point x="113" y="229"/>
			<point x="113" y="314" type="curve" smooth="yes"/>
			<point x="113" y="398"/>
			<point x="162" y="454"/>
			<point x="234" y="454" type="curve" smooth="yes"/>
			<point x="305" y="454"/>
			<point x="354" y="399"/>
			<point x="354" y="315" type="curve" smooth="yes"/>
			<point x="354" y="231"/>
			<point x="305" y="174"/>
		</contour>
		<contour>
			<point x="328" y="424" type="line"/>
			<point x="470" y="424" type="line"/>
			<point x="470" y="465" type="line"/>
			<point x="458" y="473" type="line"/>
			<point x="332" y="440" type="line"/>
			<point x="328" y="440" type="line"/>
		</contour>
	</outline>
	<anchor name="aboveLC" x="259" y="485"/>
	<anchor name="belowLC" x="247" y="-266"/>
</glyph>
<glyph name="h" format="2">
	<unicode hex="0068"/>
	<advance width="589"/>
	<outline>
		<contour>
			<point x="40" y="0" type="line"/>
			<point x="248" y="0" type="line"/>
			<point x="248" y="22" type="line"/>
			<point x="154" y="32" type="line"/>
			<point x="141" y="32" type="line"/>
			<point x="40" y="22" type="line"/>
		</contour>
		<contour>
			<point x="122" y="0" type="curve"/>
			<point x="174" y="0" type="line"/>
			<point x="172" y="45"/>
			<point x="171" y="148"/>
			<point x="171" y="210" type="curve" smooth="yes"/>
			<point x="171" y="355" type="line"/>
			<point x="170" y="363" type="line"/>
			<point x="170" y="585" type="line"/>
			<point x="173" y="738" type="line"/>
			<point x="160" y="745" type="line"/>
			<point x="39" y="723" type="line"/>
			<point x="39" y="702" type="line"/>
			<point x="125" y="697" type="line"/>
			<point x="125" y="210" type="line" smooth="yes"/>
			<point x="125" y="148"/>
			<point x="124" y="45"/>
		</contour>
		<contour>
			<point x="349" y="0" type="line"/>
			<point x="556" y="0" type="line"/>
			<point x="556" y="22" type="line"/>
			<point x="462" y="32" type="line"/>
			<point x="450" y="32" type="line"/>
			<point x="349" y="22" type="line"/>
		</contour>
		<contour>
			<point x="430" y="0" type="curve"/>
			<point x="482" y="0" type="line"/>
			<point x="480" y="45"/>
			<point x="479" y="146"/>
			<point x="479" y="210" type="curve" smooth="yes"/>
			<point x="479" y="308" type="line" smooth="yes"/>
			<point x="479" y="433"/>
			<point x="435" y="478"/>
			<point x="358" y="478" type="curve" smooth="yes"/>
			<point x="295" y="478"/>
			<point x="225" y="442"/>
			<point x="161" y="364" type="curve"/>
			<point x="154" y="364" type="line"/>
			<point x="164" y="339" type="line"/>
			<point x="236" y="419"/>
			<point x="296" y="438"/>
			<point x="340" y="438" type="curve" smooth="yes"/>
			<point x="400" y="438"/>
			<point x="433" y="404"/>
			<point x="433" y="306" type="curve" smooth="yes"/>
			<point x="433" y="210" type="line" smooth="yes"/>
			<point x="433" y="146"/>
			<point x="432" y="45"/>
		</contour>
	</outline>
	<anchor name="aboveLC" x="148" y="746"/>
	<anchor name="belowLC" x="299" y="-20"/>
</glyph>
<glyph name="i" format="2">
	<unicode hex="0069"/>
	<advance width="291"/>
	<outline>
		<contour>
			<point x="42" y="0" type="line"/>
			<point x="249" y="0" type="line"/>
			<point x="249" y="22" type="line"/>
			<point x="155" y="32" type="line"/>
			<point x="142" y="32" type="line"/>
			<point x="42" y="22" type="line"/>
		</contour>
		<contour>
			<point x="123" y="0" type="curve"/>
			<point x="175" y="0" type="line"/>
			<point x="173" y="45"/>
			<point x="172" y="148"/>
			<point x="172" y="210" type="curve" smooth="yes"/>
			<point x="172" y="346" type="line"/>
			<point x="174" y="467" type="line"/>
			<point x="164" y="474" type="line"/>
			<point x="37" y="447" type="line"/>
			<point x="37" y="425" type="line"/>
			<point x="123" y="421" type="line"/>
			<point x="125" y="372"/>
			<point x="126" y="320"/>
			<point x="126" y="257" type="curve" smooth="yes"/>
			<point x="126" y="210" type="line" smooth="yes"/>
			<point x="126" y="148"/>
			<point x="125" y="45"/>
		</contour>
		<contour>
			<point x="143" y="609" type="curve" smooth="yes"/>
			<point x="165" y="609"/>
			<point x="185" y="626"/>
			<point x="185" y="651" type="curve" smooth="yes"/>
			<point x="185" y="675"/>
			<point x="165" y="692"/>
			<point x="143" y="692" type="curve" smooth="yes"/>
			<point x="120" y="692"/>
			<point x="100" y="675"/>
			<point x="100" y="651" type="curve" smooth="yes"/>
			<point x="100" y="626"/>
			<point x="120" y="609"/>
		</contour>
	</outline>
	<anchor name="aboveLC" x="142" y="692"/>
	<anchor name="belowLC" x="150" y="-20"/>
	<anchor name="ogonek" x="177" y="0"/>
</glyph>
<glyph name="k" format="2">
	<unicode hex="006B"/>
	<advance width="531"/>
	<outline>
		<contour>
			<point x="39" y="0" type="line"/>
			<point x="251" y="0" type="line"/>
			<point x="251" y="22" type="line"/>
			<point x="153" y="32" type="line"/>
			<point x="141" y="32" type="line"/>
			<point x="39" y="22" type="line"/>
		</contour>
		<contour>
			<point x="122" y="0" type="curve"/>
			<point x="174" y="0" type="line"/>
			<point x="172" y="51"/>
			<point x="171" y="146"/>
			<point x="171" y="210" type="curve" smooth="yes"/>
			<point x="171" y="586" type="line"/>
			<point x="174" y="738" type="line"/>
			<point x="162" y="745" type="line"/>
			<point x="39" y="723" type="line"/>
			<point x="39" y="701" type="line"/>
			<point x="125" y="697" type="line"/>
			<point x="125" y="210" type="line" smooth="yes"/>
			<point x="125" y="146"/>
			<point x="124" y="51"/>
		</contour>
		<contour>
			<point x="149" y="161" type="line"/>
			<point x="447" y="466" type="line"/>
			<point x="409" y="466" type="line"/>
			<point x="152" y="199" type="line"/>
			<point x="149" y="199" type="line"/>
		</contour>
		<contour>
			<point x="415" y="0" type="line"/>
			<point x="526" y="0" type="line"/>
			<point x="526" y="22" type="line"/>
			<point x="452" y="29" type="line"/>
			<point x="279" y="308" type="line"/>
			<point x="246" y="275" type="line"/>
		</contour>
		<contour>
			<point x="288" y="443" type="line"/>
			<point x="387" y="432" type="line"/>
			<point x="401" y="433" type="line"/>
			<point x="506" y="443" type="line"/>
			<point x="506" y="466" type="line"/>
			<point x="288" y="466" type="line"/>
		</contour>
	</outline>
	<anchor name="aboveLC" x="146" y="746"/>
	<anchor name="belowLC" x="315" y="-20"/>
</glyph>
<glyph name="m" format="2">
	<unicode hex="006D"/>
	<advance width="869"/>
	<outline>
		<contour>
			<point x="41" y="0" type="line"/>
			<point x="248" y="0" type="line"/>
			<point x="248" y="22" type="line"/>
			<point x="154" y="32" type="line"/>
			<point x="141" y="32" type="line"/>
			<point x="41" y="22" type="line"/>
		</contour>
		<contour>
			<point x="122" y="0" type="curve"/>
			<point x="174" y="0" type="line"/>
			<point x="172" y="45"/>
			<point x="171" y="148"/>
			<point x="171" y="210" type="curve" smooth="yes"/>
			<point x="171" y="359" type="line"/>
			<point x="171" y="361" type="line"/>
			<point x="167" y="467" type="line"/>
			<point x="157" y="474" type="line"/>
			<point x="36" y="447" type="line"/>
			<point x="36" y="425" type="line"/>
			<point x="122" y="421" type="line"/>
			<point x="124" y="372"/>
			<point x="125" y="320"/>
			<point x="125" y="257" type="curve" smooth="yes"/>
			<point x="125" y="210" type="line" smooth="yes"/>
			<point x="125" y="148"/>
			<point x="124" y="45"/>
		</contour>
		<contour>
			<point x="335" y="0" type="line"/>
			<point x="542" y="0" type="line"/>
			<point x="542" y="22" type="line"/>
			<point x="448" y="32" type="line"/>
			<point x="436" y="32" type="line"/>
			<point x="335" y="22" type="line"/>
		</contour>
		<contour>
			<point x="416" y="0" type="curve"/>
			<point x="468" y="0" type="line"/>
			<point x="466" y="45"/>
			<point x="465" y="146"/>
			<point x="465" y="210" type="curve" smooth="yes"/>
			<point x="465" y="308" type="line" smooth="yes"/>
			<point x="465" y="432"/>
			<point x="422" y="478"/>
			<point x="348" y="478" type="curve" smooth="yes"/>
			<point x="285" y="478"/>
			<point x="223" y="440"/>
			<point x="160" y="363" type="curve"/>
			<point x="154" y="363" type="line"/>
			<point x="163" y="340" type="line"/>
			<point x="234" y="418"/>
			<point x="287" y="438"/>
			<point x="332" y="438" type="curve" smooth="yes"/>
			<point x="387" y="438"/>
			<point x="419" y="404"/>
			<point x="419" y="306" type="curve" smooth="yes"/>
			<point x="419" y="210" type="line" smooth="yes"/>
			<point x="419" y="146"/>
			<point x="418" y="45"/>
		</contour>
		<contour>
			<point x="630" y="0" type="line"/>
			<point x="836" y="0" type="line"/>
			<point x="836" y="22" type="line"/>
			<point x="743" y="32" type="line"/>
			<point x="730" y="32" type="line"/>
			<point x="630" y="22" type="line"/>
		</contour>
		<contour>
			<point x="710" y="0" type="curve"/>
			<point x="763" y="0" type="line"/>
			<point x="761" y="45"/>
			<point x="760" y="146"/>
			<point x="760" y="210" type="curve" smooth="yes"/>
			<point x="760" y="310" type="line" smooth="yes"/>
			<point x="760" y="432"/>
			<point x="716" y="478"/>
			<point x="639" y="478" type="curve" smooth="yes"/>
			<point x="576" y="478"/>
			<point x="512" y="442"/>
			<point x="452" y="367" type="curve"/>
			<point x="446" y="367" type="line"/>
			<point x="457" y="344" type="line"/>
			<point x="524" y="419"/>
			<point x="579" y="438"/>
			<point x="624" y="438" type="curve" smooth="yes"/>
			<point x="681" y="438"/>
			<point x="713" y="405"/>
			<point x="713" y="307" type="curve" smooth="yes"/>
			<point x="713" y="210" type="line" smooth="yes"/>
			<point x="713" y="146"/>
			<point x="713" y="45"/>
		</contour>
	</outline>
	<anchor name="aboveLC" x="440" y="485"/>
	<anchor name="belowLC" x="441" y="-20"/>
</glyph>
<glyph name="n" format="2">
	<unicode hex="006E"/>
	<advance width="588"/>
	<outline>
		<contour>
			<point x="41" y="0" type="line"/>
			<point x="248" y="0" type="line"/>
			<point x="248" y="22" type="line"/>
			<point x="154" y="32" type="line"/>
			<point x="141" y="32" type="line"/>
			<point x="41" y="22" type="line"/>
		</contour>
		<contour>
			<point x="122" y="0" type="curve"/>
			<point x="174" y="0" type="line"/>
			<point x="172" y="45"/>
			<point x="171" y="148"/>
			<point x="171" y="210" type="curve" smooth="yes"/>
			<point x="171" y="359" type="line"/>
			<point x="171" y="360" type="line"/>
			<point x="167" y="467" type="line"/>
			<point x="157" y="474" type="line"/>
			<point x="36" y="447" type="line"/>
			<point x="36" y="425" type="line"/>
			<point x="122" y="421" type="line"/>
			<point x="124" y="372"/>
			<point x="125" y="320"/>
			<point x="125" y="257" type="curve" smooth="yes"/>
			<point x="125" y="210" type="line" smooth="yes"/>
			<point x="125" y="148"/>
			<point x="124" y="45"/>
		</contour>
		<contour>
			<point x="348" y="0" type="line"/>
			<point x="555" y="0" type="line"/>
			<point x="555" y="22" type="line"/>
			<point x="461" y="32" type="line"/>
			<point x="449" y="32" type="line"/>
			<point x="348" y="22" type="line"/>
		</contour>
		<contour>
			<point x="429" y="0" type="curve"/>
			<point x="481" y="0" type="line"/>
			<point x="479" y="45"/>
			<point x="478" y="146"/>
			<point x="478" y="210" type="curve" smooth="yes"/>
			<point x="478" y="308" type="line" smooth="yes"/>
			<point x="478" y="433"/>
			<point x="434" y="478"/>
			<point x="357" y="478" type="curve" smooth="yes"/>
			<point x="294" y="478"/>
			<point x="224" y="442"/>
			<point x="160" y="363" type="curve"/>
			<point x="155" y="363" type="line"/>
			<point x="163" y="340" type="line"/>
			<point x="235" y="418"/>
			<point x="295" y="438"/>
			<point x="340" y="438" type="curve" smooth="yes"/>
			<point x="399" y="438"/>
			<point x="432" y="404"/>
			<point x="432" y="306" type="curve" smooth="yes"/>
			<point x="432" y="210" type="line" smooth="yes"/>
			<point x="432" y="146"/>
			<point x="431" y="45"/>
		</contour>
	</outline>
	<anchor name="aboveLC" x="301" y="485"/>
	<anchor name="belowLC" x="301" y="-20"/>
</glyph>
<glyph name="o" format="2">
	<unicode hex="006F"/>
	<advance width="526"/>
	<outline>
		<contour>
			<point x="263" y="-13" type="curve" smooth="yes"/>
			<point x="370" y="-13"/>
			<point x="477" y="66"/>
			<point x="477" y="232" type="curve" smooth="yes"/>
			<point x="477" y="398"/>
			<point x="370" y="478"/>
			<point x="263" y="478" type="curve" smooth="yes"/>
			<point x="156" y="478"/>
			<point x="49" y="397"/>
			<point x="49" y="230" type="curve" smooth="yes"/>
			<point x="49" y="64"/>
			<point x="155" y="-13"/>
		</contour>
		<contour>
			<point x="263" y="13" type="curve" smooth="yes"/>
			<point x="166" y="13"/>
			<point x="100" y="90"/>
			<point x="100" y="230" type="curve" smooth="yes"/>
			<point x="100" y="371"/>
			<point x="166" y="452"/>
			<point x="263" y="452" type="curve" smooth="yes"/>
			<point x="360" y="452"/>
			<point x="426" y="373"/>
			<point x="426" y="232" type="curve" smooth="yes"/>
			<point x="426" y="91"/>
			<point x="360" y="13"/>
		</contour>
	</outline>
	<anchor name="aboveLC" x="263" y="485"/>
	<anchor name="belowLC" x="263" y="-20"/>
	<anchor name="hornLC" x="391" y="389"/>
	<anchor name="ogonek" x="333" y="0"/>
</glyph>
<glyph name="p" format="2">
	<unicode hex="0070"/>
	<advance width="564"/>
	<outline>
		<contour>
			<point x="40" y="-249" type="line"/>
			<point x="268" y="-249" type="line"/>
			<point x="268" y="-227" type="line"/>
			<point x="154" y="-217" type="line"/>
			<point x="141" y="-217" type="line"/>
			<point x="40" y="-227" type="line"/>
		</contour>
		<contour>
			<point x="123" y="-249" type="curve"/>
			<point x="174" y="-249" type="line"/>
			<point x="172" y="-197"/>
			<point x="171" y="-102"/>
			<point x="171" y="-38" type="curve" smooth="yes"/>
			<point x="171" y="70" type="line"/>
			<point x="172" y="76" type="line"/>
			<point x="172" y="381" type="line"/>
			<point x="171" y="385" type="line"/>
			<point x="168" y="467" type="line"/>
			<point x="158" y="474" type="line"/>
			<point x="37" y="447" type="line"/>
			<point x="37" y="425" type="line"/>
			<point x="123" y="421" type="line"/>
			<point x="125" y="372"/>
			<point x="126" y="319"/>
			<point x="126" y="256" type="curve" smooth="yes"/>
			<point x="126" y="-39" type="line" smooth="yes"/>
			<point x="126" y="-103"/>
			<point x="125" y="-197"/>
		</contour>
		<contour>
			<point x="320" y="-13" type="curve" smooth="yes"/>
			<point x="433" y="-13"/>
			<point x="516" y="81"/>
			<point x="516" y="239" type="curve" smooth="yes"/>
			<point x="516" y="386"/>
			<point x="436" y="478"/>
			<point x="327" y="478" type="curve" smooth="yes"/>
			<point x="269" y="478"/>
			<point x="210" y="450"/>
			<point x="162" y="384" type="curve"/>
			<point x="150" y="384" type="line"/>
			<point x="158" y="354" type="line"/>
			<point x="213" y="420"/>
			<point x="263" y="445"/>
			<point x="315" y="445" type="curve" smooth="yes"/>
			<point x="402" y="445"/>
			<point x="466" y="374"/>
			<point x="466" y="236" type="curve" smooth="yes"/>
			<point x="466" y="85"/>
			<point x="395" y="20"/>
			<point x="312" y="20" type="curve" smooth="yes"/>
			<point x="256" y="20"/>
			<point x="212" y="41"/>
			<point x="159" y="101" type="curve"/>
			<point x="150" y="72" type="line"/>
			<point x="162" y="72" type="line"/>
			<point x="209" y="7"/>
			<point x="267" y="-13"/>
		</contour>
	</outline>
	<anchor name="aboveLC" x="307" y="485"/>
	<anchor name="belowLC" x="149" y="-269"/>
</glyph>
<glyph name="q" format="2">
	<unicode hex="0071"/>
	<advance width="538"/>
	<outline>
		<contour>
			<point x="299" y="-249" type="line"/>
			<point x="527" y="-249" type="line"/>
			<point x="527" y="-227" type="line"/>
			<point x="426" y="-217" type="line"/>
			<point x="413" y="-217" type="line"/>
			<point x="299" y="-227" type="line"/>
		</contour>
		<contour>
			<point x="242" y="-13" type="curve" smooth="yes"/>
			<point x="303" y="-13"/>
			<point x="358" y="15"/>
			<point x="402" y="80" type="curve"/>
			<point x="411" y="80" type="line"/>
			<point x="403" y="109" type="line"/>
			<point x="355" y="46"/>
			<point x="310" y="20"/>
			<point x="253" y="20" type="curve" smooth="yes"/>
			<point x="165" y="20"/>
			<point x="99" y="88"/>
			<point x="99" y="226" type="curve" smooth="yes"/>
			<point x="99" y="377"/>
			<point x="173" y="445"/>
			<point x="260" y="445" type="curve" smooth="yes"/>
			<point x="314" y="445"/>
			<point x="355" y="422"/>
			<point x="404" y="365" type="curve"/>
			<point x="413" y="392" type="line"/>
			<point x="403" y="392" type="line"/>
			<point x="359" y="454"/>
			<point x="305" y="478"/>
			<point x="254" y="478" type="curve" smooth="yes"/>
			<point x="141" y="478"/>
			<point x="49" y="384"/>
			<point x="49" y="225" type="curve" smooth="yes"/>
			<point x="49" y="80"/>
			<point x="130" y="-13"/>
		</contour>
		<contour>
			<point x="392" y="-249" type="curve"/>
			<point x="444" y="-249" type="line"/>
			<point x="442" y="-186"/>
			<point x="441" y="-106"/>
			<point x="441" y="-38" type="curve" smooth="yes"/>
			<point x="441" y="343" type="line"/>
			<point x="444" y="466" type="line"/>
			<point x="428" y="471" type="line"/>
			<point x="395" y="394" type="line"/>
			<point x="395" y="392" type="line"/>
			<point x="395" y="86" type="line"/>
			<point x="395" y="80" type="line"/>
			<point x="395" y="-38" type="line" smooth="yes"/>
			<point x="395" y="-106"/>
			<point x="394" y="-186"/>
		</contour>
	</outline>
	<anchor name="aboveLC" x="276" y="485"/>
	<anchor name="belowLC" x="414" y="-269"/>
</glyph>
<glyph name="r" format="2">
	<unicode hex="0072"/>
	<advance width="402"/>
	<outline>
		<contour>
			<point x="41" y="0" type="line"/>
			<point x="263" y="0" type="line"/>
			<point x="263" y="22" type="line"/>
			<point x="155" y="32" type="line"/>
			<point x="142" y="32" type="line"/>
			<point x="41" y="22" type="line"/>
		</contour>
		<contour>
			<point x="122" y="0" type="curve"/>
			<point x="174" y="0" type="line"/>
			<point x="172" y="45"/>
			<point x="171" y="148"/>
			<point x="171" y="210" type="curve" smooth="yes"/>
			<point x="171" y="333" type="line"/>
			<point x="171" y="335" type="line"/>
			<point x="167" y="467" type="line"/>
			<point x="157" y="474" type="line"/>
			<point x="36" y="447" type="line"/>
			<point x="36" y="425" type="line"/>
			<point x="122" y="421" type="line"/>
			<point x="124" y="372"/>
			<point x="125" y="320"/>
			<point x="125" y="257" type="curve" smooth="yes"/>
			<point x="125" y="210" type="line" smooth="yes"/>
			<point x="125" y="148"/>
			<point x="124" y="45"/>
		</contour>
		<contour>
			<point x="169" y="292" type="line"/>
			<point x="204" y="387"/>
			<point x="254" y="439"/>
			<point x="320" y="451" type="curve"/>
			<point x="278" y="451" type="line"/>
			<point x="300" y="432" type="line" smooth="yes"/>
			<point x="318" y="416"/>
			<point x="333" y="407"/>
			<point x="353" y="407" type="curve" smooth="yes"/>
			<point x="378" y="407"/>
			<point x="392" y="419"/>
			<point x="392" y="447" type="curve"/>
			<point x="385" y="465"/>
			<point x="358" y="478"/>
			<point x="327" y="478" type="curve" smooth="yes"/>
			<point x="260" y="478"/>
			<point x="197" y="420"/>
			<point x="168" y="333" type="curve"/>
			<point x="156" y="333" type="line"/>
		</contour>
	</outline>
	<anchor name="aboveLC" x="235" y="485"/>
	<anchor name="belowLC" x="148" y="-20"/>
</glyph>
<glyph name="s" format="2">
	<unicode hex="0073"/>
	<advance width="417"/>
	<outline>
		<contour>
			<point x="196" y="-13" type="curve" smooth="yes"/>
			<point x="313" y="-13"/>
			<point x="368" y="47"/>
			<point x="368" y="119" type="curve" smooth="yes"/>
			<point x="368" y="183"/>
			<point x="331" y="219"/>
			<point x="244" y="252" type="curve" smooth="yes"/>
			<point x="205" y="266" type="line" smooth="yes"/>
			<point x="139" y="291"/>
			<point x="108" y="313"/>
			<point x="108" y="364" type="curve" smooth="yes"/>
			<point x="108" y="414"/>
			<point x="143" y="452"/>
			<point x="217" y="452" type="curve" smooth="yes"/>
			<point x="257" y="452"/>
			<point x="292" y="442"/>
			<point x="329" y="416" type="curve"/>
			<point x="329" y="444" type="line"/>
			<point x="305" y="444" type="line"/>
			<point x="320" y="340" type="line"/>
			<point x="347" y="340" type="line"/>
			<point x="350" y="440" type="line"/>
			<point x="307" y="465"/>
			<point x="271" y="478"/>
			<point x="218" y="478" type="curve" smooth="yes"/>
			<point x="120" y="478"/>
			<point x="65" y="424"/>
			<point x="65" y="352" type="curve" smooth="yes"/>
			<point x="65" y="283"/>
			<point x="113" y="250"/>
			<point x="181" y="224" type="curve" smooth="yes"/>
			<point x="223" y="209" type="line" smooth="yes"/>
			<point x="297" y="182"/>
			<point x="324" y="156"/>
			<point x="324" y="108" type="curve" smooth="yes"/>
			<point x="324" y="52"/>
			<point x="283" y="12"/>
			<point x="198" y="12" type="curve" smooth="yes"/>
			<point x="144" y="12"/>
			<point x="109" y="24"/>
			<point x="74" y="45" type="curve"/>
			<point x="74" y="17" type="line"/>
			<point x="101" y="17" type="line"/>
			<point x="82" y="130" type="line"/>
			<point x="55" y="130" type="line"/>
			<point x="55" y="21" type="line"/>
			<point x="102" y="-2"/>
			<point x="142" y="-13"/>
		</contour>
	</outline>
	<anchor name="aboveLC" x="217" y="485"/>
	<anchor name="baseLC" x="199" y="0"/>
	<anchor name="belowLC" x="202" y="-20"/>
</glyph>
<glyph name="t" format="2">
	<unicode hex="0074"/>
	<advance width="320"/>
	<outline>
		<contour>
			<point x="133" y="436" type="line"/>
			<point x="294" y="436" type="line"/>
			<point x="294" y="465" type="line"/>
			<point x="133" y="465" type="line"/>
		</contour>
		<contour>
			<point x="209" y="-13" type="curve" smooth="yes"/>
			<point x="249" y="-13"/>
			<point x="279" y="1"/>
			<point x="302" y="26" type="curve"/>
			<point x="291" y="41" type="line"/>
			<point x="267" y="26"/>
			<point x="249" y="18"/>
			<point x="220" y="18" type="curve" smooth="yes"/>
			<point x="178" y="18"/>
			<point x="155" y="45"/>
			<point x="155" y="105" type="curve" smooth="yes"/>
			<point x="155" y="443" type="line"/>
			<point x="155" y="453" type="line"/>
			<point x="160" y="611" type="line"/>
			<point x="130" y="611" type="line"/>
			<point x="109" y="453" type="line"/>
			<point x="128" y="469" type="line"/>
			<point x="13" y="459" type="line"/>
			<point x="13" y="436" type="line"/>
			<point x="109" y="436" type="line"/>
			<point x="109" y="178" type="line" smooth="yes"/>
			<point x="109" y="146"/>
			<point x="108" y="127"/>
			<point x="108" y="99" type="curve" smooth="yes"/>
			<point x="108" y="25"/>
			<point x="140" y="-13"/>
		</contour>
	</outline>
	<anchor name="aboveLC" x="144" y="585"/>
	<anchor name="baseLC" x="199" y="0"/>
	<anchor name="belowLC" x="204" y="-20"/>
</glyph>
<glyph name="u" format="2">
	<unicode hex="0075"/>
	<advance width="582"/>
	<outline>
		<contour>
			<point x="242" y="-13" type="curve" smooth="yes"/>
			<point x="314" y="-13"/>
			<point x="374" y="28"/>
			<point x="427" y="98" type="curve"/>
			<point x="436" y="98" type="line"/>
			<point x="423" y="121" type="line"/>
			<point x="368" y="55"/>
			<point x="313" y="26"/>
			<point x="258" y="26" type="curve" smooth="yes"/>
			<point x="194" y="26"/>
			<point x="157" y="63"/>
			<point x="157" y="168" type="curve" smooth="yes"/>
			<point x="157" y="346" type="line"/>
			<point x="161" y="461" type="line"/>
			<point x="153" y="471" type="line"/>
			<point x="33" y="459" type="line"/>
			<point x="33" y="438" type="line"/>
			<point x="128" y="427" type="line"/>
			<point x="113" y="442" type="line"/>
			<point x="112" y="162" type="line" smooth="yes"/>
			<point x="111" y="32"/>
			<point x="158" y="-13"/>
		</contour>
		<contour>
			<point x="420" y="-6" type="line"/>
			<point x="540" y="0" type="line"/>
			<point x="540" y="22" type="line"/>
			<point x="464" y="30" type="line"/>
			<point x="464" y="346" type="line"/>
			<point x="468" y="461" type="line"/>
			<point x="459" y="471" type="line"/>
			<point x="339" y="459" type="line"/>
			<point x="339" y="437" type="line"/>
			<point x="419" y="430" type="line"/>
			<point x="418" y="106" type="line"/>
			<point x="418" y="104" type="line"/>
		</contour>
	</outline>
	<anchor name="aboveLC" x="283" y="485"/>
	<anchor name="belowLC" x="295" y="-20"/>
	<anchor name="hornLC" x="444" y="423"/>
	<anchor name="ogonek" x="487" y="0"/>
</glyph>
<glyph name="v" format="2">
	<unicode hex="0076"/>
	<advance width="489"/>
	<outline>
		<contour>
			<point x="235" y="-5" type="line"/>
			<point x="259" y="-5" type="line"/>
			<point x="433" y="465" type="line"/>
			<point x="402" y="465" type="line"/>
			<point x="254" y="50" type="line"/>
			<point x="250" y="40" type="line"/>
			<point x="264" y="40" type="line"/>
			<point x="105" y="465" type="line"/>
			<point x="51" y="465" type="line"/>
		</contour>
		<contour>
			<point x="-2" y="443" type="line"/>
			<point x="86" y="433" type="line"/>
			<point x="99" y="433" type="line"/>
			<point x="201" y="443" type="line"/>
			<point x="201" y="465" type="line"/>
			<point x="-2" y="465" type="line"/>
		</contour>
		<contour>
			<point x="308" y="443" type="line"/>
			<point x="401" y="434" type="line"/>
			<point x="412" y="434" type="line"/>
			<point x="485" y="443" type="line"/>
			<point x="485" y="465" type="line"/>
			<point x="308" y="465" type="line"/>
		</contour>
	</outline>
	<anchor name="aboveLC" x="256" y="485"/>
	<anchor name="belowLC" x="245" y="-20"/>
</glyph>
<glyph name="w" format="2">
	<unicode hex="0077"/>
	<advance width="748"/>
	<outline>
		<contour>
			<point x="216" y="-5" type="line"/>
			<point x="238" y="-5" type="line"/>
			<point x="383" y="413" type="line"/>
			<point x="387" y="424" type="line"/>
			<point x="370" y="424" type="line"/>
			<point x="516" y="-5" type="line"/>
			<point x="537" y="-5" type="line"/>
			<point x="690" y="465" type="line"/>
			<point x="658" y="465" type="line"/>
			<point x="531" y="53" type="line"/>
			<point x="527" y="41" type="line"/>
			<point x="543" y="41" type="line"/>
			<point x="398" y="465" type="line"/>
			<point x="374" y="465" type="line"/>
			<point x="232" y="54" type="line"/>
			<point x="227" y="41" type="line"/>
			<point x="245" y="41" type="line"/>
			<point x="107" y="465" type="line"/>
			<point x="54" y="465" type="line"/>
		</contour>
		<contour>
			<point x="1" y="443" type="line"/>
			<point x="86" y="433" type="line"/>
			<point x="98" y="433" type="line"/>
			<point x="200" y="443" type="line"/>
			<point x="200" y="465" type="line"/>
			<point x="1" y="465" type="line"/>
		</contour>
		<contour>
			<point x="292" y="443" type="line"/>
			<point x="379" y="434" type="line"/>
			<point x="396" y="434" type="line"/>
			<point x="481" y="443" type="line"/>
			<point x="481" y="465" type="line"/>
			<point x="292" y="465" type="line"/>
		</contour>
		<contour>
			<point x="566" y="443" type="line"/>
			<point x="661" y="434" type="line"/>
			<point x="672" y="434" type="line"/>
			<point x="741" y="443" type="line"/>
			<point x="741" y="465" type="line"/>
			<point x="566" y="465" type="line"/>
		</contour>
	</outline>
	<anchor name="aboveLC" x="386" y="485"/>
	<anchor name="belowLC" x="378" y="-20"/>
</glyph>
<glyph name="x" format="2">
	<unicode hex="0078"/>
	<advance width="493"/>
	<outline>
		<contour>
			<point x="10" y="0" type="line"/>
			<point x="181" y="0" type="line"/>
			<point x="181" y="22" type="line"/>
			<point x="100" y="31" type="line"/>
			<point x="88" y="31" type="line"/>
			<point x="10" y="22" type="line"/>
		</contour>
		<contour>
			<point x="53" y="0" type="line"/>
			<point x="89" y="0" type="line"/>
			<point x="171" y="115" type="line"/>
			<point x="253" y="229" type="line"/>
			<point x="253" y="230" type="line"/>
			<point x="237" y="246" type="line"/>
		</contour>
		<contour>
			<point x="287" y="0" type="line"/>
			<point x="483" y="0" type="line"/>
			<point x="483" y="22" type="line"/>
			<point x="395" y="32" type="line"/>
			<point x="383" y="32" type="line"/>
			<point x="287" y="22" type="line"/>
		</contour>
		<contour>
			<point x="254" y="223" type="line"/>
			<point x="435" y="465" type="line"/>
			<point x="400" y="465" type="line"/>
			<point x="319" y="353" type="line"/>
			<point x="239" y="241" type="line"/>
			<point x="239" y="239" type="line"/>
		</contour>
		<contour>
			<point x="382" y="0" type="line"/>
			<point x="438" y="0" type="line"/>
			<point x="261" y="251" type="line"/>
			<point x="114" y="465" type="line"/>
			<point x="60" y="465" type="line"/>
			<point x="231" y="220" type="line"/>
		</contour>
		<contour>
			<point x="16" y="443" type="line"/>
			<point x="103" y="433" type="line"/>
			<point x="116" y="433" type="line"/>
			<point x="206" y="443" type="line"/>
			<point x="206" y="465" type="line"/>
			<point x="16" y="465" type="line"/>
		</contour>
		<contour>
			<point x="305" y="443" type="line"/>
			<point x="388" y="434" type="line"/>
			<point x="400" y="434" type="line"/>
			<point x="474" y="443" type="line"/>
			<point x="474" y="465" type="line"/>
			<point x="305" y="465" type="line"/>
		</contour>
	</outline>
	<anchor name="aboveLC" x="256" y="485"/>
	<anchor name="belowLC" x="237" y="-20"/>
</glyph>
<glyph name="y" format="2">
	<unicode hex="0079"/>
	<advance width="492"/>
	<outline>
		<contour>
			<point x="66" y="-256" type="curve" smooth="yes"/>
			<point x="139" y="-256"/>
			<point x="198" y="-187"/>
			<point x="248" y="-50" type="curve" smooth="yes"/>
			<point x="439" y="465" type="line"/>
			<point x="407" y="465" type="line"/>
			<point x="329" y="246" type="line"/>
			<point x="246" y="18" type="line"/>
			<point x="244" y="13" type="line"/>
			<point x="218" y="-59" type="line" smooth="yes"/>
			<point x="183" y="-155"/>
			<point x="134" y="-220"/>
			<point x="73" y="-231" type="curve"/>
			<point x="93" y="-243" type="line"/>
			<point x="116" y="-234" type="line"/>
			<point x="92" y="-214" type="line" smooth="yes"/>
			<point x="72" y="-197"/>
			<point x="53" y="-188"/>
			<point x="34" y="-188" type="curve" smooth="yes"/>
			<point x="13" y="-188"/>
			<point x="-4" y="-198"/>
			<point x="-8" y="-216" type="curve"/>
			<point x="-2" y="-242"/>
			<point x="32" y="-256"/>
		</contour>
		<contour>
			<point x="242" y="-27" type="line"/>
			<point x="263" y="20" type="line"/>
			<point x="263" y="38" type="line"/>
			<point x="105" y="465" type="line"/>
			<point x="51" y="465" type="line"/>
		</contour>
		<contour>
			<point x="-2" y="443" type="line"/>
			<point x="86" y="434" type="line"/>
			<point x="99" y="434" type="line"/>
			<point x="201" y="443" type="line"/>
			<point x="201" y="465" type="line"/>
			<point x="-2" y="465" type="line"/>
		</contour>
		<contour>
			<point x="311" y="443" type="line"/>
			<point x="406" y="435" type="line"/>
			<point x="418" y="435" type="line"/>
			<point x="490" y="443" type="line"/>
			<point x="490" y="465" type="line"/>
			<point x="311" y="465" type="line"/>
		</contour>
	</outline>
	<anchor name="aboveLC" x="260" y="485"/>
	<anchor name="belowLC" x="119" y="-261"/>
</glyph>
<glyph name="z" format="2">
	<unicode hex="007A"/>
	<advance width="443"/>
	<outline>
		<contour>
			<point x="44" y="0" type="line"/>
			<point x="402" y="0" type="line"/>
			<point x="410" y="147" type="line"/>
			<point x="384" y="147" type="line"/>
			<point x="355" y="10" type="line"/>
			<point x="378" y="25" type="line"/>
			<point x="228" y="25" type="line"/>
			<point x="93" y="25" type="line"/>
			<point x="93" y="41" type="line"/>
			<point x="87" y="8" type="line"/>
			<point x="396" y="444" type="line"/>
			<point x="396" y="465" type="line"/>
			<point x="54" y="465" type="line"/>
			<point x="48" y="331" type="line"/>
			<point x="74" y="328" type="line"/>
			<point x="100" y="455" type="line"/>
			<point x="77" y="440" type="line"/>
			<point x="218" y="440" type="line"/>
			<point x="346" y="440" type="line"/>
			<point x="352" y="433" type="line"/>
			<point x="352" y="457" type="line"/>
			<point x="44" y="21" type="line"/>
		</contour>
	</outline>
	<anchor name="aboveLC" x="229" y="485"/>
	<anchor name="belowLC" x="231" y="-20"/>
</glyph>
<glyph name="braceleft" format="2">
	<unicode hex="007B"/>
	<advance width="341"/>
	<outline>
		<contour>
			<point x="42" y="267" type="line"/>
			<point x="127" y="258"/>
			<point x="166" y="225"/>
			<point x="166" y="170" type="curve" smooth="yes"/>
			<point x="166" y="119"/>
			<point x="119" y="43"/>
			<point x="119" y="-37" type="curve" smooth="yes"/>
			<point x="119" y="-114"/>
			<point x="162" y="-159"/>
			<point x="272" y="-159" type="curve" smooth="yes"/>
			<point x="309" y="-159" type="line"/>
			<point x="309" y="-135" type="line"/>
			<point x="277" y="-133" type="line" smooth="yes"/>
			<point x="185" y="-126"/>
			<point x="161" y="-100"/>
			<point x="161" y="-34" type="curve" smooth="yes"/>
			<point x="161" y="43"/>
			<point x="196" y="112"/>
			<point x="196" y="165" type="curve" smooth="yes"/>
			<point x="196" y="230"/>
			<point x="158" y="277"/>
			<point x="62" y="282" type="curve"/>
			<point x="62" y="275" type="line"/>
			<point x="158" y="279"/>
			<point x="196" y="326"/>
			<point x="196" y="391" type="curve" smooth="yes"/>
			<point x="196" y="445"/>
			<point x="161" y="513"/>
			<point x="161" y="590" type="curve" smooth="yes"/>
			<point x="161" y="656"/>
			<point x="185" y="682"/>
			<point x="277" y="689" type="curve" smooth="yes"/>
			<point x="309" y="692" type="line"/>
			<point x="309" y="715" type="line"/>
			<point x="272" y="715" type="line" smooth="yes"/>
			<point x="162" y="715"/>
			<point x="119" y="670"/>
			<point x="119" y="593" type="curve" smooth="yes"/>
			<point x="119" y="513"/>
			<point x="166" y="437"/>
			<point x="166" y="386" type="curve" smooth="yes"/>
			<point x="166" y="331"/>
			<point x="127" y="299"/>
			<point x="42" y="290" type="curve"/>
		</contour>
	</outline>
</glyph>
<glyph name="bar" format="2">
	<unicode hex="007C"/>
	<advance width="283"/>
	<outline>
		<contour>
			<point x="124" y="-251" type="line"/>
			<point x="159" y="-251" type="line"/>
			<point x="159" y="749" type="line"/>
			<point x="124" y="749" type="line"/>
		</contour>
	</outline>
</glyph>
<glyph name="asciitilde" format="2">
	<unicode hex="007E"/>
	<advance width="522"/>
	<outline>
		<contour>
			<point x="275" y="354" type="curve" smooth="yes"/>
			<point x="243" y="385"/>
			<point x="211" y="407"/>
			<point x="167" y="407" type="curve" smooth="yes"/>
			<point x="103" y="407"/>
			<point x="64" y="363"/>
			<point x="58" y="291" type="curve"/>
			<point x="87" y="286" type="line"/>
			<point x="96" y="350"/>
			<point x="125" y="374"/>
			<point x="165" y="374" type="curve" smooth="yes"/>
			<point x="198" y="374"/>
			<point x="221" y="359"/>
			<point x="250" y="331" type="curve" smooth="yes"/>
			<point x="283" y="299"/>
			<point x="314" y="279"/>
			<point x="357" y="279" type="curve" smooth="yes"/>
			<point x="421" y="279"/>
			<point x="460" y="325"/>
			<point x="466" y="395" type="curve"/>
			<point x="437" y="400" type="line"/>
			<point x="427" y="337"/>
			<point x="399" y="312"/>
			<point x="360" y="312" type="curve" smooth="yes"/>
			<point x="328" y="312"/>
			<point x="304" y="326"/>
		</contour>
	</outline>
</glyph>
<glyph name="currency" format="2">
	<unicode hex="00A4"/>
	<advance width="485"/>
	<outline>
		<contour>
			<point x="352" y="433" type="line"/>
			<point x="397" y="466" type="line" smooth="yes"/>
			<point x="431" y="490"/>
			<point x="451" y="505"/>
			<point x="451" y="522" type="curve" smooth="yes"/>
			<point x="451" y="534"/>
			<point x="441" y="545"/>
			<point x="428" y="545" type="curve" smooth="yes"/>
			<point x="412" y="545"/>
			<point x="396" y="523"/>
			<point x="372" y="488" type="curve" smooth="yes"/>
			<point x="341" y="444" type="line"/>
		</contour>
		<contour>
			<point x="117" y="334" type="curve" smooth="yes"/>
			<point x="117" y="409"/>
			<point x="173" y="463"/>
			<point x="244" y="463" type="curve" smooth="yes"/>
			<point x="313" y="463"/>
			<point x="369" y="409"/>
			<point x="369" y="334" type="curve" smooth="yes"/>
			<point x="369" y="259"/>
			<point x="314" y="204"/>
			<point x="244" y="204" type="curve" smooth="yes"/>
			<point x="174" y="204"/>
			<point x="117" y="258"/>
		</contour>
		<contour>
			<point x="86" y="334" type="curve" smooth="yes"/>
			<point x="86" y="240"/>
			<point x="159" y="177"/>
			<point x="244" y="177" type="curve" smooth="yes"/>
			<point x="328" y="177"/>
			<point x="401" y="240"/>
			<point x="401" y="334" type="curve" smooth="yes"/>
			<point x="401" y="427"/>
			<point x="328" y="490"/>
			<point x="244" y="490" type="curve" smooth="yes"/>
			<point x="159" y="490"/>
			<point x="86" y="427"/>
		</contour>
		<contour>
			<point x="146" y="444" type="line"/>
			<point x="114" y="488" type="line" smooth="yes"/>
			<point x="90" y="524"/>
			<point x="75" y="545"/>
			<point x="58" y="545" type="curve" smooth="yes"/>
			<point x="46" y="545"/>
			<point x="36" y="535"/>
			<point x="36" y="523" type="curve" smooth="yes"/>
			<point x="36" y="505"/>
			<point x="56" y="490"/>
			<point x="90" y="466" type="curve" smooth="yes"/>
			<point x="134" y="434" type="line"/>
		</contour>
		<contour>
			<point x="134" y="234" type="line"/>
			<point x="90" y="201" type="line" smooth="yes"/>
			<point x="55" y="177"/>
			<point x="36" y="163"/>
			<point x="36" y="145" type="curve" smooth="yes"/>
			<point x="36" y="133"/>
			<point x="45" y="123"/>
			<point x="58" y="123" type="curve" smooth="yes"/>
			<point x="75" y="123"/>
			<point x="90" y="144"/>
			<point x="114" y="179" type="curve" smooth="yes"/>
			<point x="146" y="224" type="line"/>
		</contour>
		<contour>
			<point x="340" y="223" type="line"/>
			<point x="372" y="179" type="line" smooth="yes"/>
			<point x="396" y="143"/>
			<point x="411" y="122"/>
			<point x="428" y="122" type="curve" smooth="yes"/>
			<point x="441" y="122"/>
			<point x="451" y="133"/>
			<point x="451" y="145" type="curve" smooth="yes"/>
			<point x="451" y="162"/>
			<point x="430" y="177"/>
			<point x="396" y="201" type="curve" smooth="yes"/>
			<point x="352" y="234" type="line"/>
		</contour>
	</outline>
</glyph>
<glyph name="yen" format="2">
	<unicode hex="00A5"/>
	<advance width="485"/>
	<outline>
		<contour>
			<point x="253" y="243" type="line"/>
			<point x="437" y="652" type="line"/>
			<point x="407" y="652" type="line"/>
			<point x="251" y="297" type="line"/>
			<point x="247" y="288" type="line"/>
			<point x="260" y="288" type="line"/>
			<point x="98" y="652" type="line"/>
			<point x="46" y="652" type="line"/>
			<point x="233" y="242" type="line"/>
		</contour>
		<contour>
			<point x="81" y="620" type="line"/>
			<point x="96" y="620" type="line"/>
			<point x="204" y="629" type="line"/>
			<point x="204" y="652" type="line"/>
			<point x="-6" y="652" type="line"/>
			<point x="-6" y="629" type="line"/>
		</contour>
		<contour>
			<point x="234" y="32" type="line"/>
			<point x="113" y="23" type="line"/>
			<point x="113" y="0" type="line"/>
			<point x="372" y="0" type="line"/>
			<point x="372" y="23" type="line"/>
			<point x="251" y="32" type="line"/>
		</contour>
		<contour>
			<point x="220" y="176" type="line" smooth="yes"/>
			<point x="220" y="122"/>
			<point x="219" y="78"/>
			<point x="218" y="0" type="curve"/>
			<point x="268" y="0" type="line"/>
			<point x="266" y="79"/>
			<point x="265" y="122"/>
			<point x="265" y="176" type="curve" smooth="yes"/>
			<point x="265" y="292" type="line"/>
			<point x="220" y="292" type="line"/>
		</contour>
		<contour>
			<point x="403" y="620" type="line"/>
			<point x="415" y="620" type="line"/>
			<point x="490" y="629" type="line"/>
			<point x="490" y="652" type="line"/>
			<point x="302" y="652" type="line"/>
			<point x="302" y="629" type="line"/>
		</contour>
		<contour>
			<point x="55" y="153" type="line"/>
			<point x="429" y="153" type="line"/>
			<point x="429" y="181" type="line"/>
			<point x="55" y="181" type="line"/>
		</contour>
		<contour>
			<point x="55" y="268" type="line"/>
			<point x="429" y="268" type="line"/>
			<point x="429" y="296" type="line"/>
			<point x="55" y="296" type="line"/>
		</contour>
	</outline>
</glyph>
<glyph name="section" format="2">
	<unicode hex="00A7"/>
	<advance width="479"/>
	<outline>
		<contour>
			<point x="220" y="-106" type="curve" smooth="yes"/>
			<point x="330" y="-106"/>
			<point x="382" y="-49"/>
			<point x="382" y="27" type="curve" smooth="yes"/>
			<point x="382" y="86"/>
			<point x="351" y="121"/>
			<point x="309" y="147" type="curve"/>
			<point x="309" y="151" type="line"/>
			<point x="285" y="166"/>
			<point x="254" y="181"/>
			<point x="223" y="195" type="curve" smooth="yes"/>
			<point x="131" y="237"/>
			<point x="99" y="266"/>
			<point x="99" y="321" type="curve" smooth="yes"/>
			<point x="99" y="369"/>
			<point x="123" y="408"/>
			<point x="193" y="435" type="curve"/>
			<point x="183" y="459" type="line"/>
			<point x="183" y="452" type="line"/>
			<point x="99" y="425"/>
			<point x="60" y="372"/>
			<point x="60" y="310" type="curve" smooth="yes"/>
			<point x="60" y="235"/>
			<point x="112" y="196"/>
			<point x="202" y="155" type="curve" smooth="yes"/>
			<point x="298" y="111"/>
			<point x="343" y="82"/>
			<point x="343" y="18" type="curve" smooth="yes"/>
			<point x="343" y="-44"/>
			<point x="300" y="-82"/>
			<point x="217" y="-82" type="curve" smooth="yes"/>
			<point x="182" y="-82"/>
			<point x="155" y="-73"/>
			<point x="129" y="-57" type="curve"/>
			<point x="153" y="-81" type="line"/>
			<point x="122" y="-6" type="line" smooth="yes"/>
			<point x="114" y="13"/>
			<point x="104" y="23"/>
			<point x="88" y="23" type="curve" smooth="yes"/>
			<point x="74" y="23"/>
			<point x="64" y="16"/>
			<point x="60" y="0" type="curve"/>
			<point x="75" y="-65"/>
			<point x="135" y="-106"/>
		</contour>
		<contour>
			<point x="262" y="687" type="curve" smooth="yes"/>
			<point x="157" y="687"/>
			<point x="102" y="632"/>
			<point x="102" y="557" type="curve" smooth="yes"/>
			<point x="102" y="504"/>
			<point x="127" y="469"/>
			<point x="173" y="442" type="curve"/>
			<point x="174" y="438" type="line"/>
			<point x="198" y="422"/>
			<point x="227" y="407"/>
			<point x="259" y="393" type="curve" smooth="yes"/>
			<point x="352" y="351"/>
			<point x="385" y="320"/>
			<point x="385" y="268" type="curve" smooth="yes"/>
			<point x="385" y="217"/>
			<point x="358" y="180"/>
			<point x="291" y="153" type="curve"/>
			<point x="301" y="129" type="line"/>
			<point x="301" y="136" type="line"/>
			<point x="386" y="163"/>
			<point x="425" y="217"/>
			<point x="425" y="276" type="curve" smooth="yes"/>
			<point x="425" y="350"/>
			<point x="377" y="388"/>
			<point x="280" y="433" type="curve" smooth="yes"/>
			<point x="188" y="475"/>
			<point x="142" y="502"/>
			<point x="142" y="566" type="curve" smooth="yes"/>
			<point x="142" y="627"/>
			<point x="183" y="664"/>
			<point x="264" y="664" type="curve" smooth="yes"/>
			<point x="300" y="664"/>
			<point x="325" y="655"/>
			<point x="353" y="638" type="curve"/>
			<point x="325" y="663" type="line"/>
			<point x="356" y="588" type="line" smooth="yes"/>
			<point x="364" y="568"/>
			<point x="375" y="558"/>
			<point x="390" y="558" type="curve" smooth="yes"/>
			<point x="404" y="558"/>
			<point x="414" y="566"/>
			<point x="418" y="581" type="curve"/>
			<point x="402" y="649"/>
			<point x="341" y="687"/>
		</contour>
	</outline>
</glyph>
<glyph name="copyright" format="2">
	<unicode hex="00A9"/>
	<advance width="758"/>
	<outline>
		<contour>
			<point x="379" y="-14" type="curve" smooth="yes"/>
			<point x="570" y="-14"/>
			<point x="728" y="120"/>
			<point x="728" y="339" type="curve" smooth="yes"/>
			<point x="728" y="557"/>
			<point x="570" y="687"/>
			<point x="379" y="687" type="curve" smooth="yes"/>
			<point x="188" y="687"/>
			<point x="30" y="557"/>
			<point x="30" y="339" type="curve" smooth="yes"/>
			<point x="30" y="120"/>
			<point x="188" y="-14"/>
		</contour>
		<contour>
			<point x="379" y="11" type="curve" smooth="yes"/>
			<point x="200" y="11"/>
			<point x="62" y="135"/>
			<point x="62" y="339" type="curve" smooth="yes"/>
			<point x="62" y="540"/>
			<point x="200" y="662"/>
			<point x="379" y="662" type="curve" smooth="yes"/>
			<point x="558" y="662"/>
			<point x="696" y="539"/>
			<point x="696" y="339" type="curve" smooth="yes"/>
			<point x="696" y="138"/>
			<point x="559" y="11"/>
		</contour>
		<contour>
			<point x="393" y="131" type="curve" smooth="yes"/>
			<point x="435" y="131"/>
			<point x="471" y="138"/>
			<point x="510" y="160" type="curve"/>
			<point x="513" y="250" type="line"/>
			<point x="488" y="250" type="line"/>
			<point x="471" y="159" type="line"/>
			<point x="497" y="185" type="line"/>
			<point x="466" y="161"/>
			<point x="429" y="154"/>
			<point x="395" y="154" type="curve" smooth="yes"/>
			<point x="308" y="154"/>
			<point x="245" y="221"/>
			<point x="245" y="339" type="curve" smooth="yes"/>
			<point x="245" y="456"/>
			<point x="308" y="527"/>
			<point x="397" y="527" type="curve" smooth="yes"/>
			<point x="434" y="527"/>
			<point x="462" y="517"/>
			<point x="495" y="494" type="curve"/>
			<point x="466" y="522" type="line"/>
			<point x="484" y="430" type="line"/>
			<point x="509" y="430" type="line"/>
			<point x="505" y="519" type="line"/>
			<point x="469" y="541"/>
			<point x="437" y="549"/>
			<point x="394" y="549" type="curve" smooth="yes"/>
			<point x="282" y="549"/>
			<point x="200" y="464"/>
			<point x="200" y="339" type="curve" smooth="yes"/>
			<point x="200" y="215"/>
			<point x="278" y="131"/>
		</contour>
	</outline>
</glyph>
<glyph name="registered" format="2">
	<unicode hex="00AE"/>
	<advance width="458"/>
	<outline>
		<contour>
			<point x="331" y="430" type="line"/>
			<point x="294" y="434" type="line"/>
			<point x="310" y="424" type="line"/>
			<point x="290" y="481" type="line" smooth="yes"/>
			<point x="282" y="507"/>
			<point x="266" y="516"/>
			<point x="233" y="518" type="curve"/>
			<point x="230" y="515" type="line"/>
			<point x="280" y="516"/>
			<point x="303" y="541"/>
			<point x="303" y="569" type="curve" smooth="yes"/>
			<point x="303" y="602"/>
			<point x="277" y="621"/>
			<point x="230" y="621" type="curve" smooth="yes"/>
			<point x="190" y="621" type="line"/>
			<point x="190" y="609" type="line"/>
			<point x="225" y="609" type="line" smooth="yes"/>
			<point x="258" y="609"/>
			<point x="272" y="593"/>
			<point x="272" y="568" type="curve" smooth="yes"/>
			<point x="272" y="542"/>
			<point x="257" y="523"/>
			<point x="226" y="523" type="curve" smooth="yes"/>
			<point x="190" y="523" type="line"/>
			<point x="190" y="511" type="line"/>
			<point x="221" y="511" type="line" smooth="yes"/>
			<point x="243" y="511"/>
			<point x="252" y="503"/>
			<point x="258" y="484" type="curve" smooth="yes"/>
			<point x="273" y="437" type="line" smooth="yes"/>
			<point x="278" y="422"/>
			<point x="286" y="417"/>
			<point x="308" y="417" type="curve" smooth="yes"/>
			<point x="317" y="417"/>
			<point x="323" y="418"/>
			<point x="331" y="419" type="curve"/>
		</contour>
		<contour>
			<point x="186" y="434" type="line"/>
			<point x="148" y="430" type="line"/>
			<point x="148" y="419" type="line"/>
			<point x="233" y="419" type="line"/>
			<point x="233" y="430" type="line"/>
			<point x="194" y="434" type="line"/>
		</contour>
		<contour>
			<point x="186" y="606" type="line"/>
			<point x="193" y="609" type="line"/>
			<point x="193" y="621" type="line"/>
			<point x="148" y="621" type="line"/>
			<point x="148" y="610" type="line"/>
		</contour>
		<contour>
			<point x="54" y="516" type="curve" smooth="yes"/>
			<point x="54" y="621"/>
			<point x="137" y="690"/>
			<point x="229" y="690" type="curve" smooth="yes"/>
			<point x="322" y="690"/>
			<point x="404" y="621"/>
			<point x="404" y="516" type="curve" smooth="yes"/>
			<point x="404" y="411"/>
			<point x="322" y="339"/>
			<point x="229" y="339" type="curve" smooth="yes"/>
			<point x="136" y="339"/>
			<point x="54" y="411"/>
		</contour>
		<contour>
			<point x="176" y="419" type="line"/>
			<point x="206" y="419" type="line"/>
			<point x="206" y="621" type="line"/>
			<point x="176" y="621" type="line"/>
		</contour>
		<contour>
			<point x="30" y="516" type="curve" smooth="yes"/>
			<point x="30" y="396"/>
			<point x="124" y="318"/>
			<point x="229" y="318" type="curve" smooth="yes"/>
			<point x="333" y="318"/>
			<point x="428" y="396"/>
			<point x="428" y="516" type="curve" smooth="yes"/>
			<point x="428" y="636"/>
			<point x="333" y="712"/>
			<point x="229" y="712" type="curve" smooth="yes"/>
			<point x="125" y="712"/>
			<point x="30" y="636"/>
		</contour>
	</outline>
</glyph>
<glyph name="degree" format="2">
	<unicode hex="00B0"/>
	<advance width="310"/>
	<outline>
		<contour>
			<point x="155" y="475" type="curve" smooth="yes"/>
			<point x="106" y="475"/>
			<point x="67" y="512"/>
			<point x="67" y="568" type="curve" smooth="yes"/>
			<point x="67" y="623"/>
			<point x="106" y="662"/>
			<point x="155" y="662" type="curve" smooth="yes"/>
			<point x="205" y="662"/>
			<point x="243" y="623"/>
			<point x="243" y="568" type="curve" smooth="yes"/>
			<point x="243" y="512"/>
			<point x="205" y="475"/>
		</contour>
		<contour>
			<point x="155" y="449" type="curve" smooth="yes"/>
			<point x="219" y="449"/>
			<point x="273" y="495"/>
			<point x="273" y="568" type="curve" smooth="yes"/>
			<point x="273" y="639"/>
			<point x="219" y="687"/>
			<point x="155" y="687" type="curve" smooth="yes"/>
			<point x="91" y="687"/>
			<point x="38" y="639"/>
			<point x="38" y="568" type="curve" smooth="yes"/>
			<point x="38" y="495"/>
			<point x="91" y="449"/>
		</contour>
	</outline>
</glyph>
<glyph name="two.sups" format="2">
	<unicode hex="00B2"/>
	<advance width="341"/>
	<outline>
		<contour>
			<point x="47" y="433" type="line"/>
			<point x="305" y="433" type="line"/>
			<point x="305" y="474" type="line"/>
			<point x="80" y="474" type="line"/>
			<point x="79" y="481" type="line"/>
			<point x="71" y="460" type="line"/>
			<point x="180" y="565" type="line" smooth="yes"/>
			<point x="255" y="640"/>
			<point x="287" y="683"/>
			<point x="287" y="734" type="curve" smooth="yes"/>
			<point x="287" y="795"/>
			<point x="249" y="839"/>
			<point x="170" y="839" type="curve" smooth="yes"/>
			<point x="108" y="839"/>
			<point x="57" y="808"/>
			<point x="45" y="752" type="curve"/>
			<point x="50" y="742"/>
			<point x="58" y="735"/>
			<point x="69" y="735" type="curve" smooth="yes"/>
			<point x="82" y="735"/>
			<point x="90" y="744"/>
			<point x="96" y="767" type="curve" smooth="yes"/>
			<point x="114" y="821" type="line"/>
			<point x="86" y="798" type="line"/>
			<point x="112" y="814"/>
			<point x="134" y="818"/>
			<point x="158" y="818" type="curve" smooth="yes"/>
			<point x="212" y="818"/>
			<point x="243" y="784"/>
			<point x="243" y="731" type="curve" smooth="yes"/>
			<point x="243" y="684"/>
			<point x="216" y="639"/>
			<point x="159" y="578" type="curve" smooth="yes"/>
			<point x="47" y="463" type="line"/>
		</contour>
	</outline>
</glyph>
<glyph name="three.sups" format="2">
	<unicode hex="00B3"/>
	<advance width="340"/>
	<outline>
		<contour>
			<point x="163" y="420" type="curve" smooth="yes"/>
			<point x="240" y="420"/>
			<point x="301" y="463"/>
			<point x="301" y="535" type="curve" smooth="yes"/>
			<point x="301" y="597"/>
			<point x="256" y="637"/>
			<point x="174" y="640" type="curve"/>
			<point x="176" y="635" type="line"/>
			<point x="244" y="642"/>
			<point x="286" y="685"/>
			<point x="286" y="738" type="curve" smooth="yes"/>
			<point x="286" y="795"/>
			<point x="241" y="835"/>
			<point x="169" y="835" type="curve" smooth="yes"/>
			<point x="114" y="835"/>
			<point x="64" y="810"/>
			<point x="52" y="755" type="curve"/>
			<point x="56" y="744"/>
			<point x="64" y="738"/>
			<point x="74" y="738" type="curve" smooth="yes"/>
			<point x="88" y="738"/>
			<point x="96" y="747"/>
			<point x="101" y="767" type="curve" smooth="yes"/>
			<point x="116" y="818" type="line"/>
			<point x="93" y="798" type="line"/>
			<point x="118" y="811"/>
			<point x="138" y="815"/>
			<point x="161" y="815" type="curve" smooth="yes"/>
			<point x="213" y="815"/>
			<point x="243" y="783"/>
			<point x="243" y="735" type="curve" smooth="yes"/>
			<point x="243" y="682"/>
			<point x="204" y="649"/>
			<point x="145" y="649" type="curve" smooth="yes"/>
			<point x="119" y="649" type="line"/>
			<point x="119" y="626" type="line"/>
			<point x="148" y="626" type="line" smooth="yes"/>
			<point x="223" y="626"/>
			<point x="257" y="590"/>
			<point x="257" y="535" type="curve" smooth="yes"/>
			<point x="257" y="479"/>
			<point x="220" y="440"/>
			<point x="154" y="440" type="curve" smooth="yes"/>
			<point x="128" y="440"/>
			<point x="107" y="445"/>
			<point x="85" y="457" type="curve"/>
			<point x="106" y="436" type="line"/>
			<point x="90" y="489" type="line" smooth="yes"/>
			<point x="85" y="512"/>
			<point x="77" y="519"/>
			<point x="63" y="519" type="curve" smooth="yes"/>
			<point x="52" y="519"/>
			<point x="44" y="514"/>
			<point x="40" y="501" type="curve"/>
			<point x="53" y="448"/>
			<point x="98" y="420"/>
		</contour>
	</outline>
</glyph>
<glyph name="paragraph" format="2">
	<unicode hex="00B6"/>
	<advance width="599"/>
	<outline>
		<contour>
			<point x="332" y="168" type="curve"/>
			<point x="332" y="645" type="line"/>
			<point x="417" y="645" type="line"/>
			<point x="417" y="674" type="line"/>
			<point x="360" y="674" type="line" smooth="yes"/>
			<point x="166" y="674"/>
			<point x="48" y="574"/>
			<point x="48" y="422" type="curve" smooth="yes"/>
			<point x="48" y="265"/>
			<point x="165" y="168"/>
		</contour>
		<contour>
			<point x="396" y="-129" type="curve"/>
			<point x="444" y="-129" type="line"/>
			<point x="441" y="-32"/>
			<point x="441" y="79"/>
			<point x="441" y="184" type="curve" smooth="yes"/>
			<point x="441" y="362" type="line" smooth="yes"/>
			<point x="441" y="467"/>
			<point x="441" y="577"/>
			<point x="444" y="674" type="curve"/>
			<point x="399" y="674" type="line"/>
			<point x="399" y="184" type="line" smooth="yes"/>
			<point x="399" y="78"/>
			<point x="399" y="-32"/>
		</contour>
		<contour>
			<point x="416" y="640" type="line"/>
			<point x="425" y="640" type="line"/>
			<point x="545" y="650" type="line"/>
			<point x="545" y="674" type="line"/>
			<point x="416" y="674" type="line"/>
		</contour>
	</outline>
</glyph>
<glyph name="one.sups" format="2">
	<unicode hex="00B9"/>
	<advance width="341"/>
	<outline>
		<contour>
			<point x="63" y="433" type="line"/>
			<point x="295" y="433" type="line"/>
			<point x="295" y="450" type="line"/>
			<point x="196" y="460" type="line"/>
			<point x="165" y="460" type="line"/>
			<point x="63" y="450" type="line"/>
		</contour>
		<contour>
			<point x="160" y="433" type="line"/>
			<point x="202" y="433" type="line"/>
			<point x="202" y="831" type="line"/>
			<point x="194" y="837" type="line"/>
			<point x="71" y="805" type="line"/>
			<point x="71" y="785" type="line"/>
			<point x="160" y="797" type="line"/>
		</contour>
	</outline>
</glyph>
<glyph name="AE" format="2">
	<unicode hex="00C6"/>
	<advance width="895"/>
	<outline>
		<contour>
			<point x="460" y="0" type="curve"/>
			<point x="514" y="0" type="line"/>
			<point x="512" y="97"/>
			<point x="512" y="209"/>
			<point x="512" y="330" type="curve" smooth="yes"/>
			<point x="512" y="354" type="line" smooth="yes"/>
			<point x="512" y="467"/>
			<point x="512" y="578"/>
			<point x="514" y="674" type="curve"/>
			<point x="463" y="674" type="line"/>
			<point x="463" y="286" type="line" smooth="yes"/>
			<point x="463" y="197"/>
			<point x="462" y="91"/>
		</contour>
		<contour>
			<point x="10" y="0" type="line"/>
			<point x="215" y="0" type="line"/>
			<point x="215" y="23" type="line"/>
			<point x="117" y="32" type="line"/>
			<point x="101" y="32" type="line"/>
			<point x="10" y="23" type="line"/>
		</contour>
		<contour>
			<point x="698" y="232" type="line"/>
			<point x="722" y="232" type="line"/>
			<point x="722" y="453" type="line"/>
			<point x="698" y="453" type="line"/>
			<point x="684" y="352" type="line"/>
			<point x="684" y="334" type="line"/>
		</contour>
		<contour>
			<point x="809" y="510" type="line"/>
			<point x="838" y="510" type="line"/>
			<point x="829" y="674" type="line"/>
			<point x="487" y="674" type="line"/>
			<point x="487" y="646" type="line"/>
			<point x="785" y="646" type="line"/>
		</contour>
		<contour>
			<point x="487" y="0" type="line"/>
			<point x="844" y="0" type="line"/>
			<point x="854" y="167" type="line"/>
			<point x="824" y="167" type="line"/>
			<point x="801" y="28" type="line"/>
			<point x="487" y="28" type="line"/>
		</contour>
		<contour>
			<point x="335" y="651" type="line"/>
			<point x="443" y="641" type="line"/>
			<point x="486" y="641" type="line"/>
			<point x="486" y="674" type="line"/>
			<point x="335" y="674" type="line"/>
		</contour>
		<contour>
			<point x="364" y="0" type="line"/>
			<point x="488" y="0" type="line"/>
			<point x="488" y="32" type="line"/>
			<point x="478" y="32" type="line"/>
			<point x="364" y="23" type="line"/>
		</contour>
		<contour>
			<point x="74" y="0" type="line"/>
			<point x="108" y="0" type="line"/>
			<point x="251" y="267" type="line"/>
			<point x="468" y="674" type="line"/>
			<point x="434" y="674" type="line"/>
		</contour>
		<contour>
			<point x="233" y="254" type="line"/>
			<point x="487" y="254" type="line"/>
			<point x="487" y="280" type="line"/>
			<point x="233" y="280" type="line"/>
		</contour>
		<contour>
			<point x="487" y="329" type="line"/>
			<point x="700" y="329" type="line"/>
			<point x="700" y="356" type="line"/>
			<point x="487" y="356" type="line"/>
		</contour>
	</outline>
	<anchor name="aboveUC" x="577" y="694"/>
</glyph>
<glyph name="Idieresis" format="2">
	<unicode hex="00CF"/>
	<advance width="350"/>
	<outline>
		<contour>
			<point x="90" y="752" type="curve" smooth="yes"/>
			<point x="112" y="752"/>
			<point x="129" y="768"/>
			<point x="129" y="791" type="curve" smooth="yes"/>
			<point x="129" y="815"/>
			<point x="112" y="830"/>
			<point x="90" y="830" type="curve" smooth="yes"/>
			<point x="70" y="830"/>
			<point x="51" y="815"/>
			<point x="51" y="791" type="curve" smooth="yes"/>
			<point x="51" y="768"/>
			<point x="70" y="752"/>
		</contour>
		<contour>
			<point x="261" y="752" type="curve" smooth="yes"/>
			<point x="281" y="752"/>
			<point x="300" y="768"/>
			<point x="300" y="791" type="curve" smooth="yes"/>
			<point x="300" y="815"/>
			<point x="281" y="830"/>
			<point x="261" y="830" type="curve" smooth="yes"/>
			<point x="239" y="830"/>
			<point x="221" y="815"/>
			<point x="221" y="791" type="curve" smooth="yes"/>
			<point x="221" y="768"/>
			<point x="239" y="752"/>
		</contour>
		<component base="I"/>
	</outline>
</glyph>
<glyph name="Eth" format="2">
	<unicode hex="00D0"/>
	<advance width="687"/>
	<outline>
		<contour>
			<point x="380" y="332" type="line"/>
			<point x="380" y="359" type="line"/>
			<point x="51" y="359" type="line"/>
			<point x="51" y="332" type="line"/>
		</contour>
		<component base="D"/>
	</outline>
</glyph>
<glyph name="multiply" format="2">
	<unicode hex="00D7"/>
	<advance width="521"/>
	<outline>
		<contour>
			<point x="446" y="122" type="line"/>
			<point x="470" y="146" type="line"/>
			<point x="76" y="546" type="line"/>
			<point x="52" y="522" type="line"/>
		</contour>
		<contour>
			<point x="469" y="521" type="line"/>
			<point x="446" y="545" type="line"/>
			<point x="52" y="146" type="line"/>
			<point x="76" y="122" type="line"/>
		</contour>
	</outline>
</glyph>
<glyph name="Oslash" format="2">
	<unicode hex="00D8"/>
	<advance width="688"/>
	<outline>
		<contour>
			<point x="624" y="675" type="line"/>
			<point x="601" y="693" type="line"/>
			<point x="62" y="1" type="line"/>
			<point x="85" y="-17" type="line"/>
		</contour>
		<contour>
			<point x="110" y="337" type="curve" smooth="yes"/>
			<point x="110" y="513"/>
			<point x="193" y="660"/>
			<point x="344" y="660" type="curve" smooth="yes"/>
			<point x="495" y="660"/>
			<point x="578" y="514"/>
			<point x="578" y="337" type="curve" smooth="yes"/>
			<point x="578" y="160"/>
			<point x="495" y="14"/>
			<point x="344" y="14" type="curve" smooth="yes"/>
			<point x="193" y="14"/>
			<point x="110" y="160"/>
		</contour>
		<contour>
			<point x="344" y="687" type="curve" smooth="yes"/>
			<point x="187" y="687"/>
			<point x="57" y="552"/>
			<point x="57" y="337" type="curve" smooth="yes"/>
			<point x="57" y="117"/>
			<point x="186" y="-14"/>
			<point x="344" y="-14" type="curve" smooth="yes"/>
			<point x="502" y="-14"/>
			<point x="631" y="121"/>
			<point x="631" y="337" type="curve" smooth="yes"/>
			<point x="631" y="556"/>
			<point x="502" y="687"/>
		</contour>
	</outline>
	<anchor name="aboveUC" x="344" y="694"/>
</glyph>
<glyph name="Thorn" format="2">
	<unicode hex="00DE"/>
	<advance width="578"/>
	<outline>
		<contour>
			<point x="174" y="170" type="line"/>
			<point x="292" y="170" type="line" smooth="yes"/>
			<point x="472" y="170"/>
			<point x="541" y="251"/>
			<point x="541" y="354" type="curve" smooth="yes"/>
			<point x="541" y="465"/>
			<point x="464" y="539"/>
			<point x="299" y="539" type="curve" smooth="yes"/>
			<point x="174" y="539" type="line"/>
			<point x="174" y="512" type="line"/>
			<point x="294" y="512" type="line" smooth="yes"/>
			<point x="428" y="512"/>
			<point x="489" y="456"/>
			<point x="489" y="356" type="curve" smooth="yes"/>
			<point x="489" y="257"/>
			<point x="428" y="197"/>
			<point x="295" y="197" type="curve" smooth="yes"/>
			<point x="174" y="197" type="line"/>
		</contour>
		<contour>
			<point x="147" y="0" type="curve"/>
			<point x="203" y="0" type="line"/>
			<point x="200" y="97"/>
			<point x="200" y="210"/>
			<point x="200" y="313" type="curve" smooth="yes"/>
			<point x="200" y="363" type="line" smooth="yes"/>
			<point x="200" y="467"/>
			<point x="200" y="577"/>
			<point x="203" y="674" type="curve"/>
			<point x="147" y="674" type="line"/>
			<point x="150" y="577"/>
			<point x="150" y="466"/>
			<point x="150" y="363" type="curve" smooth="yes"/>
			<point x="150" y="313" type="line" smooth="yes"/>
			<point x="150" y="208"/>
			<point x="150" y="97"/>
		</contour>
		<contour>
			<point x="166" y="641" type="line"/>
			<point x="185" y="641" type="line"/>
			<point x="303" y="651" type="line"/>
			<point x="303" y="674" type="line"/>
			<point x="50" y="674" type="line"/>
			<point x="50" y="651" type="line"/>
		</contour>
		<contour>
			<point x="50" y="0" type="line"/>
			<point x="303" y="0" type="line"/>
			<point x="303" y="23" type="line"/>
			<point x="185" y="32" type="line"/>
			<point x="166" y="32" type="line"/>
			<point x="50" y="23" type="line"/>
		</contour>
	</outline>
</glyph>
<glyph name="germandbls" format="2">
	<unicode hex="00DF"/>
	<advance width="573"/>
	<outline>
		<contour>
			<point x="32" y="0" type="line"/>
			<point x="144" y="0" type="line"/>
			<point x="144" y="32" type="line"/>
			<point x="138" y="32" type="line"/>
			<point x="32" y="22" type="line"/>
		</contour>
		<contour>
			<point x="119" y="0" type="curve"/>
			<point x="172" y="0" type="line"/>
			<point x="170" y="70"/>
			<point x="168" y="140"/>
			<point x="168" y="210" type="curve" smooth="yes"/>
			<point x="168" y="459" type="line" smooth="yes"/>
			<point x="168" y="586"/>
			<point x="186" y="648"/>
			<point x="227" y="689" type="curve" smooth="yes"/>
			<point x="255" y="718"/>
			<point x="292" y="730"/>
			<point x="337" y="730" type="curve" smooth="yes"/>
			<point x="414" y="730"/>
			<point x="444" y="683"/>
			<point x="444" y="625" type="curve" smooth="yes"/>
			<point x="444" y="576"/>
			<point x="419" y="543"/>
			<point x="375" y="502" type="curve" smooth="yes"/>
			<point x="331" y="460"/>
			<point x="294" y="418"/>
			<point x="294" y="360" type="curve" smooth="yes"/>
			<point x="294" y="298"/>
			<point x="336" y="262"/>
			<point x="391" y="231" type="curve" smooth="yes"/>
			<point x="461" y="191"/>
			<point x="489" y="157"/>
			<point x="489" y="111" type="curve" smooth="yes"/>
			<point x="489" y="51"/>
			<point x="453" y="13"/>
			<point x="381" y="13" type="curve" smooth="yes"/>
			<point x="342" y="13"/>
			<point x="306" y="22"/>
			<point x="269" y="43" type="curve"/>
			<point x="297" y="15" type="line"/>
			<point x="277" y="128" type="line"/>
			<point x="252" y="128" type="line"/>
			<point x="252" y="16" type="line"/>
			<point x="295" y="-2"/>
			<point x="336" y="-13"/>
			<point x="380" y="-13" type="curve" smooth="yes"/>
			<point x="479" y="-13"/>
			<point x="534" y="39"/>
			<point x="534" y="119" type="curve" smooth="yes"/>
			<point x="534" y="181"/>
			<point x="498" y="222"/>
			<point x="416" y="271" type="curve" smooth="yes"/>
			<point x="363" y="302"/>
			<point x="335" y="328"/>
			<point x="335" y="372" type="curve" smooth="yes"/>
			<point x="335" y="416"/>
			<point x="361" y="452"/>
			<point x="403" y="490" type="curve" smooth="yes"/>
			<point x="452" y="534"/>
			<point x="489" y="573"/>
			<point x="489" y="630" type="curve" smooth="yes"/>
			<point x="489" y="705"/>
			<point x="434" y="756"/>
			<point x="343" y="756" type="curve" smooth="yes"/>
			<point x="290" y="756"/>
			<point x="240" y="741"/>
			<point x="200" y="702" type="curve" smooth="yes"/>
			<point x="145" y="649"/>
			<point x="122" y="575"/>
			<point x="122" y="448" type="curve" smooth="yes"/>
			<point x="122" y="210" type="line" smooth="yes"/>
			<point x="122" y="140"/>
			<point x="121" y="70"/>
		</contour>
	</outline>
</glyph>
<glyph name="ae" format="2">
	<unicode hex="00E6"/>
	<advance width="759"/>
	<outline>
		<contour>
			<point x="176" y="-13" type="curve" smooth="yes"/>
			<point x="245" y="-13"/>
			<point x="292" y="22"/>
			<point x="369" y="108" type="curve"/>
			<point x="375" y="108" type="line"/>
			<point x="360" y="126" type="line"/>
			<point x="280" y="47"/>
			<point x="244" y="24"/>
			<point x="193" y="24" type="curve" smooth="yes"/>
			<point x="135" y="24"/>
			<point x="100" y="57"/>
			<point x="100" y="113" type="curve" smooth="yes"/>
			<point x="100" y="158"/>
			<point x="127" y="196"/>
			<point x="209" y="227" type="curve" smooth="yes"/>
			<point x="250" y="243"/>
			<point x="306" y="259"/>
			<point x="356" y="270" type="curve"/>
			<point x="356" y="291" type="line"/>
			<point x="304" y="280"/>
			<point x="248" y="267"/>
			<point x="201" y="251" type="curve" smooth="yes"/>
			<point x="92" y="214"/>
			<point x="51" y="170"/>
			<point x="51" y="104" type="curve" smooth="yes"/>
			<point x="51" y="28"/>
			<point x="103" y="-13"/>
		</contour>
		<contour>
			<point x="546" y="-13" type="curve" smooth="yes"/>
			<point x="618" y="-13"/>
			<point x="676" y="20"/>
			<point x="715" y="78" type="curve"/>
			<point x="702" y="90" type="line"/>
			<point x="663" y="46"/>
			<point x="614" y="25"/>
			<point x="555" y="25" type="curve" smooth="yes"/>
			<point x="451" y="25"/>
			<point x="381" y="97"/>
			<point x="381" y="241" type="curve" smooth="yes"/>
			<point x="381" y="367"/>
			<point x="451" y="452"/>
			<point x="539" y="452" type="curve" smooth="yes"/>
			<point x="621" y="452"/>
			<point x="666" y="387"/>
			<point x="666" y="308" type="curve" smooth="yes"/>
			<point x="666" y="278"/>
			<point x="658" y="266"/>
			<point x="631" y="266" type="curve" smooth="yes"/>
			<point x="355" y="266" type="line"/>
			<point x="355" y="241" type="line"/>
			<point x="707" y="241" type="line"/>
			<point x="711" y="255"/>
			<point x="712" y="273"/>
			<point x="712" y="295" type="curve" smooth="yes"/>
			<point x="712" y="399"/>
			<point x="646" y="478"/>
			<point x="540" y="478" type="curve" smooth="yes"/>
			<point x="457" y="478"/>
			<point x="384" y="421"/>
			<point x="352" y="328" type="curve"/>
			<point x="377" y="330" type="line"/>
			<point x="377" y="433"/>
			<point x="327" y="478"/>
			<point x="234" y="478" type="curve" smooth="yes"/>
			<point x="150" y="478"/>
			<point x="84" y="437"/>
			<point x="65" y="363" type="curve"/>
			<point x="67" y="346"/>
			<point x="78" y="336"/>
			<point x="95" y="336" type="curve" smooth="yes"/>
			<point x="111" y="336"/>
			<point x="123" y="346"/>
			<point x="128" y="365" type="curve" smooth="yes"/>
			<point x="146" y="442" type="line"/>
			<point x="117" y="416" type="line"/>
			<point x="154" y="442"/>
			<point x="187" y="452"/>
			<point x="225" y="452" type="curve" smooth="yes"/>
			<point x="298" y="452"/>
			<point x="333" y="422"/>
			<point x="333" y="318" type="curve" smooth="yes"/>
			<point x="333" y="234" type="line" smooth="yes"/>
			<point x="333" y="68"/>
			<point x="423" y="-13"/>
		</contour>
	</outline>
	<anchor name="aboveLC" x="371" y="485"/>
	<anchor name="belowLC" x="357" y="-20"/>
</glyph>
<glyph name="eth" format="2">
	<unicode hex="00F0"/>
	<advance width="526"/>
	<outline>
		<contour>
			<point x="258" y="-13" type="curve" smooth="yes"/>
			<point x="385" y="-13"/>
			<point x="472" y="86"/>
			<point x="472" y="269" type="curve" smooth="yes"/>
			<point x="472" y="487"/>
			<point x="371" y="651"/>
			<point x="158" y="756" type="curve"/>
			<point x="145" y="736" type="line"/>
			<point x="340" y="628"/>
			<point x="403" y="503"/>
			<point x="426" y="328" type="curve"/>
			<point x="436" y="322" type="line"/>
			<point x="410" y="416"/>
			<point x="344" y="469"/>
			<point x="259" y="469" type="curve" smooth="yes"/>
			<point x="147" y="469"/>
			<point x="49" y="382"/>
			<point x="49" y="228" type="curve" smooth="yes"/>
			<point x="49" y="73"/>
			<point x="145" y="-13"/>
		</contour>
		<contour>
			<point x="261" y="13" type="curve" smooth="yes"/>
			<point x="169" y="13"/>
			<point x="100" y="91"/>
			<point x="100" y="227" type="curve" smooth="yes"/>
			<point x="100" y="366"/>
			<point x="167" y="443"/>
			<point x="261" y="443" type="curve" smooth="yes"/>
			<point x="351" y="443"/>
			<point x="423" y="373"/>
			<point x="423" y="233" type="curve" smooth="yes"/>
			<point x="423" y="100"/>
			<point x="359" y="13"/>
		</contour>
		<contour>
			<point x="155" y="543" type="line"/>
			<point x="479" y="713" type="line"/>
			<point x="468" y="735" type="line"/>
			<point x="145" y="565" type="line"/>
		</contour>
	</outline>
</glyph>
<glyph name="divide" format="2">
	<unicode hex="00F7"/>
	<advance width="521"/>
	<outline>
		<contour>
			<point x="260" y="102" type="curve" smooth="yes"/>
			<point x="285" y="102"/>
			<point x="303" y="120"/>
			<point x="303" y="143" type="curve" smooth="yes"/>
			<point x="303" y="168"/>
			<point x="285" y="184"/>
			<point x="260" y="184" type="curve" smooth="yes"/>
			<point x="237" y="184"/>
			<point x="218" y="168"/>
			<point x="218" y="143" type="curve" smooth="yes"/>
			<point x="218" y="120"/>
			<point x="237" y="102"/>
		</contour>
		<contour>
			<point x="260" y="480" type="curve" smooth="yes"/>
			<point x="285" y="480"/>
			<point x="303" y="498"/>
			<point x="303" y="521" type="curve" smooth="yes"/>
			<point x="303" y="546"/>
			<point x="285" y="563"/>
			<point x="260" y="563" type="curve" smooth="yes"/>
			<point x="237" y="563"/>
			<point x="218" y="546"/>
			<point x="218" y="521" type="curve" smooth="yes"/>
			<point x="218" y="498"/>
			<point x="237" y="480"/>
		</contour>
		<component base="minus"/>
	</outline>
</glyph>
<glyph name="oslash" format="2">
	<unicode hex="00F8"/>
	<advance width="526"/>
	<outline>
		<contour>
			<point x="469" y="472" type="line"/>
			<point x="450" y="488" type="line"/>
			<point x="54" y="-6" type="line"/>
			<point x="73" y="-21" type="line"/>
		</contour>
		<contour>
			<point x="263" y="-13" type="curve" smooth="yes"/>
			<point x="370" y="-13"/>
			<point x="477" y="66"/>
			<point x="477" y="232" type="curve" smooth="yes"/>
			<point x="477" y="398"/>
			<point x="370" y="478"/>
			<point x="263" y="478" type="curve" smooth="yes"/>
			<point x="156" y="478"/>
			<point x="49" y="397"/>
			<point x="49" y="230" type="curve" smooth="yes"/>
			<point x="49" y="64"/>
			<point x="155" y="-13"/>
		</contour>
		<contour>
			<point x="263" y="13" type="curve" smooth="yes"/>
			<point x="165" y="13"/>
			<point x="99" y="88"/>
			<point x="99" y="230" type="curve" smooth="yes"/>
			<point x="99" y="371"/>
			<point x="165" y="452"/>
			<point x="263" y="452" type="curve" smooth="yes"/>
			<point x="361" y="452"/>
			<point x="427" y="374"/>
			<point x="427" y="232" type="curve" smooth="yes"/>
			<point x="427" y="91"/>
			<point x="361" y="13"/>
		</contour>
	</outline>
	<anchor name="aboveLC" x="263" y="485"/>
</glyph>
<glyph name="thorn" format="2">
	<unicode hex="00FE"/>
	<advance width="557"/>
	<outline>
		<contour>
			<point x="115" y="-248" type="curve"/>
			<point x="166" y="-248" type="line"/>
			<point x="164" y="-194"/>
			<point x="163" y="-103"/>
			<point x="163" y="-38" type="curve" smooth="yes"/>
			<point x="163" y="73" type="line"/>
			<point x="164" y="79" type="line"/>
			<point x="164" y="380" type="line"/>
			<point x="163" y="388" type="line"/>
			<point x="163" y="588" type="line"/>
			<point x="166" y="738" type="line"/>
			<point x="153" y="745" type="line"/>
			<point x="32" y="723" type="line"/>
			<point x="32" y="701" type="line"/>
			<point x="118" y="697" type="line"/>
			<point x="118" y="-38" type="line" smooth="yes"/>
			<point x="118" y="-103"/>
			<point x="117" y="-196"/>
		</contour>
		<contour>
			<point x="312" y="-13" type="curve" smooth="yes"/>
			<point x="428" y="-13"/>
			<point x="508" y="85"/>
			<point x="508" y="239" type="curve" smooth="yes"/>
			<point x="508" y="383"/>
			<point x="431" y="478"/>
			<point x="320" y="478" type="curve" smooth="yes"/>
			<point x="259" y="478"/>
			<point x="194" y="448"/>
			<point x="144" y="372" type="curve"/>
			<point x="140" y="372" type="line"/>
			<point x="150" y="355" type="line"/>
			<point x="205" y="421"/>
			<point x="255" y="446"/>
			<point x="307" y="446" type="curve" smooth="yes"/>
			<point x="394" y="446"/>
			<point x="458" y="374"/>
			<point x="458" y="237" type="curve" smooth="yes"/>
			<point x="458" y="85"/>
			<point x="387" y="20"/>
			<point x="306" y="20" type="curve" smooth="yes"/>
			<point x="249" y="20"/>
			<point x="203" y="45"/>
			<point x="150" y="105" type="curve"/>
			<point x="140" y="90" type="line"/>
			<point x="144" y="90" type="line"/>
			<point x="194" y="13"/>
			<point x="255" y="-13"/>
		</contour>
		<contour>
			<point x="32" y="-248" type="line"/>
			<point x="259" y="-248" type="line"/>
			<point x="259" y="-226" type="line"/>
			<point x="146" y="-216" type="line"/>
			<point x="133" y="-216" type="line"/>
			<point x="32" y="-226" type="line"/>
		</contour>
	</outline>
	<anchor name="aboveLC" x="140" y="746"/>
	<anchor name="belowLC" x="363" y="-20"/>
</glyph>
<glyph name="aogonek" format="2">
	<unicode hex="0105"/>
	<advance width="492"/>
	<outline>
		<contour>
			<point x="174" y="-13" type="curve" smooth="yes"/>
			<point x="237" y="-13"/>
			<point x="280" y="17"/>
			<point x="338" y="82" type="curve"/>
			<point x="354" y="82" type="line"/>
			<point x="350" y="119" type="line"/>
			<point x="278" y="47"/>
			<point x="239" y="24"/>
			<point x="191" y="24" type="curve" smooth="yes"/>
			<point x="136" y="24"/>
			<point x="100" y="55"/>
			<point x="100" y="113" type="curve" smooth="yes"/>
			<point x="100" y="157"/>
			<point x="127" y="197"/>
			<point x="209" y="227" type="curve" smooth="yes"/>
			<point x="254" y="243"/>
			<point x="307" y="258"/>
			<point x="356" y="271" type="curve"/>
			<point x="356" y="292" type="line"/>
			<point x="304" y="279"/>
			<point x="251" y="266"/>
			<point x="201" y="250" type="curve" smooth="yes"/>
			<point x="91" y="216"/>
			<point x="51" y="169"/>
			<point x="51" y="104" type="curve" smooth="yes"/>
			<point x="51" y="28"/>
			<point x="104" y="-13"/>
		</contour>
		<contour>
			<point x="391" y="-225" type="curve" smooth="yes"/>
			<point x="425" y="-225"/>
			<point x="450" y="-213"/>
			<point x="472" y="-190" type="curve"/>
			<point x="463" y="-175" type="line"/>
			<point x="442" y="-187"/>
			<point x="426" y="-192"/>
			<point x="407" y="-192" type="curve" smooth="yes"/>
			<point x="373" y="-192"/>
			<point x="349" y="-168"/>
			<point x="349" y="-127" type="curve" smooth="yes"/>
			<point x="349" y="-76"/>
			<point x="394" y="-36"/>
			<point x="442" y="-4" type="curve" smooth="yes"/>
			<point x="456" y="6"/>
			<point x="466" y="14"/>
			<point x="476" y="26" type="curve"/>
			<point x="465" y="39" type="line"/>
			<point x="449" y="26"/>
			<point x="436" y="20"/>
			<point x="421" y="20" type="curve" smooth="yes"/>
			<point x="395" y="20"/>
			<point x="380" y="37"/>
			<point x="380" y="95" type="curve" smooth="yes"/>
			<point x="380" y="326" type="line" smooth="yes"/>
			<point x="380" y="433"/>
			<point x="331" y="478"/>
			<point x="234" y="478" type="curve" smooth="yes"/>
			<point x="150" y="478"/>
			<point x="85" y="438"/>
			<point x="64" y="365" type="curve"/>
			<point x="67" y="348"/>
			<point x="77" y="338"/>
			<point x="94" y="338" type="curve" smooth="yes"/>
			<point x="111" y="338"/>
			<point x="122" y="346"/>
			<point x="127" y="367" type="curve" smooth="yes"/>
			<point x="146" y="443" type="line"/>
			<point x="117" y="416" type="line"/>
			<point x="156" y="442"/>
			<point x="188" y="452"/>
			<point x="226" y="452" type="curve" smooth="yes"/>
			<point x="299" y="452"/>
			<point x="334" y="423"/>
			<point x="334" y="319" type="curve" smooth="yes"/>
			<point x="334" y="90" type="line"/>
			<point x="334" y="86" type="line" smooth="yes"/>
			<point x="336" y="24"/>
			<point x="359" y="-10"/>
			<point x="408" y="-10" type="curve" smooth="yes"/>
			<point x="410" y="-10"/>
			<point x="414" y="-10"/>
			<point x="419" y="-9" type="curve"/>
			<point x="418" y="-4" type="line"/>
			<point x="361" y="-39"/>
			<point x="310" y="-81"/>
			<point x="310" y="-143" type="curve" smooth="yes"/>
			<point x="310" y="-194"/>
			<point x="345" y="-225"/>
		</contour>
	</outline>
	<anchor name="aboveLC" x="234" y="485"/>
</glyph>
<glyph name="dcroat" format="2">
	<unicode hex="0111"/>
	<advance width="557"/>
	<outline>
		<contour>
			<point x="201" y="572" type="line"/>
			<point x="525" y="572" type="line"/>
			<point x="525" y="599" type="line"/>
			<point x="201" y="599" type="line"/>
		</contour>
		<contour>
			<point x="99" y="223" type="curve" smooth="yes"/>
			<point x="99" y="368"/>
			<point x="173" y="434"/>
			<point x="261" y="434" type="curve" smooth="yes"/>
			<point x="314" y="434"/>
			<point x="355" y="410"/>
			<point x="404" y="354" type="curve"/>
			<point x="414" y="371" type="line"/>
			<point x="409" y="371" type="line"/>
			<point x="364" y="441"/>
			<point x="310" y="467"/>
			<point x="254" y="467" type="curve" smooth="yes"/>
			<point x="141" y="467"/>
			<point x="49" y="376"/>
			<point x="49" y="221" type="curve" smooth="yes"/>
			<point x="49" y="79"/>
			<point x="130" y="-13"/>
			<point x="242" y="-13" type="curve" smooth="yes"/>
			<point x="306" y="-13"/>
			<point x="363" y="18"/>
			<point x="408" y="89" type="curve"/>
			<point x="406" y="103" type="line"/>
			<point x="403" y="109" type="line"/>
			<point x="355" y="46"/>
			<point x="310" y="20"/>
			<point x="253" y="20" type="curve" smooth="yes"/>
			<point x="165" y="20"/>
			<point x="99" y="88"/>
		</contour>
		<contour>
			<point x="530" y="0" type="line"/>
			<point x="530" y="22" type="line"/>
			<point x="440" y="29" type="line"/>
			<point x="440" y="580" type="line"/>
			<point x="442" y="738" type="line"/>
			<point x="431" y="745" type="line"/>
			<point x="308" y="723" type="line"/>
			<point x="308" y="702" type="line"/>
			<point x="394" y="698" type="line"/>
			<point x="394" y="380" type="line"/>
			<point x="394" y="375" type="line"/>
			<point x="394" y="89" type="line"/>
			<point x="394" y="86" type="line"/>
			<point x="395" y="-7" type="line"/>
		</contour>
	</outline>
</glyph>
<glyph name="eogonek" format="2">
	<unicode hex="0119"/>
	<advance width="482"/>
	<outline>
		<contour>
			<point x="325" y="-225" type="curve" smooth="yes"/>
			<point x="360" y="-225"/>
			<point x="384" y="-213"/>
			<point x="406" y="-190" type="curve"/>
			<point x="398" y="-175" type="line"/>
			<point x="377" y="-187"/>
			<point x="361" y="-192"/>
			<point x="341" y="-192" type="curve" smooth="yes"/>
			<point x="307" y="-192"/>
			<point x="283" y="-167"/>
			<point x="283" y="-124" type="curve" smooth="yes"/>
			<point x="283" y="-68"/>
			<point x="322" y="-21"/>
			<point x="364" y="9" type="curve" smooth="yes"/>
			<point x="392" y="29"/>
			<point x="416" y="49"/>
			<point x="434" y="79" type="curve"/>
			<point x="421" y="91" type="line"/>
			<point x="383" y="49"/>
			<point x="336" y="25"/>
			<point x="275" y="25" type="curve" smooth="yes"/>
			<point x="176" y="25"/>
			<point x="98" y="98"/>
			<point x="98" y="242" type="curve" smooth="yes"/>
			<point x="98" y="370"/>
			<point x="170" y="452"/>
			<point x="260" y="452" type="curve" smooth="yes"/>
			<point x="344" y="452"/>
			<point x="390" y="387"/>
			<point x="390" y="309" type="curve" smooth="yes"/>
			<point x="390" y="279"/>
			<point x="382" y="266"/>
			<point x="354" y="266" type="curve" smooth="yes"/>
			<point x="72" y="266" type="line"/>
			<point x="72" y="241" type="line"/>
			<point x="430" y="241" type="line"/>
			<point x="434" y="256"/>
			<point x="436" y="273"/>
			<point x="436" y="295" type="curve" smooth="yes"/>
			<point x="436" y="399"/>
			<point x="369" y="478"/>
			<point x="260" y="478" type="curve" smooth="yes"/>
			<point x="147" y="478"/>
			<point x="48" y="381"/>
			<point x="48" y="232" type="curve" smooth="yes"/>
			<point x="48" y="69"/>
			<point x="146" y="-13"/>
			<point x="265" y="-13" type="curve" smooth="yes"/>
			<point x="289" y="-13"/>
			<point x="315" y="-9"/>
			<point x="338" y="-1" type="curve"/>
			<point x="341" y="10" type="line"/>
			<point x="298" y="-19"/>
			<point x="245" y="-71"/>
			<point x="245" y="-142" type="curve" smooth="yes"/>
			<point x="245" y="-194"/>
			<point x="279" y="-225"/>
		</contour>
	</outline>
	<anchor name="aboveLC" x="261" y="485"/>
</glyph>
<glyph name="Hbar" format="2">
	<unicode hex="0126"/>
	<advance width="765"/>
	<outline>
		<contour>
			<point x="147" y="0" type="curve"/>
			<point x="203" y="0" type="line"/>
			<point x="200" y="97"/>
			<point x="200" y="209"/>
			<point x="200" y="331" type="curve" smooth="yes"/>
			<point x="200" y="363" type="line" smooth="yes"/>
			<point x="200" y="467"/>
			<point x="200" y="578"/>
			<point x="203" y="674" type="curve"/>
			<point x="147" y="674" type="line"/>
			<point x="150" y="577"/>
			<point x="150" y="466"/>
			<point x="150" y="363" type="curve" smooth="yes"/>
			<point x="150" y="313" type="line" smooth="yes"/>
			<point x="150" y="208"/>
			<point x="150" y="97"/>
		</contour>
		<contour>
			<point x="562" y="0" type="curve"/>
			<point x="618" y="0" type="line"/>
			<point x="615" y="97"/>
			<point x="615" y="209"/>
			<point x="615" y="313" type="curve" smooth="yes"/>
			<point x="615" y="363" type="line" smooth="yes"/>
			<point x="615" y="467"/>
			<point x="615" y="578"/>
			<point x="618" y="674" type="curve"/>
			<point x="562" y="674" type="line"/>
			<point x="565" y="577"/>
			<point x="565" y="466"/>
			<point x="565" y="363" type="curve" smooth="yes"/>
			<point x="565" y="331" type="line" smooth="yes"/>
			<point x="565" y="208"/>
			<point x="565" y="97"/>
		</contour>
		<contour>
			<point x="50" y="0" type="line"/>
			<point x="300" y="0" type="line"/>
			<point x="300" y="23" type="line"/>
			<point x="184" y="32" type="line"/>
			<point x="166" y="32" type="line"/>
			<point x="50" y="23" type="line"/>
		</contour>
		<contour>
			<point x="50" y="651" type="line"/>
			<point x="166" y="641" type="line"/>
			<point x="184" y="641" type="line"/>
			<point x="300" y="651" type="line"/>
			<point x="300" y="674" type="line"/>
			<point x="50" y="674" type="line"/>
		</contour>
		<contour>
			<point x="466" y="0" type="line"/>
			<point x="715" y="0" type="line"/>
			<point x="715" y="23" type="line"/>
			<point x="599" y="32" type="line"/>
			<point x="582" y="32" type="line"/>
			<point x="466" y="23" type="line"/>
		</contour>
		<contour>
			<point x="466" y="651" type="line"/>
			<point x="582" y="641" type="line"/>
			<point x="599" y="641" type="line"/>
			<point x="715" y="651" type="line"/>
			<point x="715" y="674" type="line"/>
			<point x="466" y="674" type="line"/>
		</contour>
		<contour>
			<point x="34" y="489" type="line"/>
			<point x="731" y="489" type="line"/>
			<point x="731" y="515" type="line"/>
			<point x="34" y="515" type="line"/>
		</contour>
		<contour>
			<point x="174" y="320" type="line"/>
			<point x="592" y="320" type="line"/>
			<point x="592" y="347" type="line"/>
			<point x="174" y="347" type="line"/>
		</contour>
	</outline>
</glyph>
<glyph name="hbar" format="2">
	<unicode hex="0127"/>
	<advance width="589"/>
	<outline>
		<contour>
			<point x="122" y="0" type="curve"/>
			<point x="174" y="0" type="line"/>
			<point x="172" y="45"/>
			<point x="171" y="148"/>
			<point x="171" y="210" type="curve" smooth="yes"/>
			<point x="171" y="336" type="line"/>
			<point x="170" y="346" type="line"/>
			<point x="170" y="578" type="line"/>
			<point x="173" y="738" type="line"/>
			<point x="160" y="745" type="line"/>
			<point x="39" y="723" type="line"/>
			<point x="39" y="702" type="line"/>
			<point x="125" y="697" type="line"/>
			<point x="125" y="210" type="line" smooth="yes"/>
			<point x="125" y="148"/>
			<point x="124" y="45"/>
		</contour>
		<contour>
			<point x="40" y="0" type="line"/>
			<point x="248" y="0" type="line"/>
			<point x="248" y="22" type="line"/>
			<point x="154" y="32" type="line"/>
			<point x="141" y="32" type="line"/>
			<point x="40" y="22" type="line"/>
		</contour>
		<contour>
			<point x="349" y="0" type="line"/>
			<point x="556" y="0" type="line"/>
			<point x="556" y="22" type="line"/>
			<point x="462" y="32" type="line"/>
			<point x="450" y="32" type="line"/>
			<point x="349" y="22" type="line"/>
		</contour>
		<contour>
			<point x="39" y="570" type="line"/>
			<point x="362" y="570" type="line"/>
			<point x="362" y="598" type="line"/>
			<point x="39" y="598" type="line"/>
		</contour>
		<contour>
			<point x="430" y="0" type="curve"/>
			<point x="482" y="0" type="line"/>
			<point x="480" y="45"/>
			<point x="479" y="146"/>
			<point x="479" y="210" type="curve" smooth="yes"/>
			<point x="479" y="292" type="line" smooth="yes"/>
			<point x="479" y="417"/>
			<point x="435" y="462"/>
			<point x="358" y="462" type="curve" smooth="yes"/>
			<point x="296" y="462"/>
			<point x="226" y="426"/>
			<point x="162" y="348" type="curve"/>
			<point x="150" y="348" type="line"/>
			<point x="164" y="323" type="line"/>
			<point x="236" y="402"/>
			<point x="296" y="422"/>
			<point x="340" y="422" type="curve" smooth="yes"/>
			<point x="400" y="422"/>
			<point x="433" y="388"/>
			<point x="433" y="290" type="curve" smooth="yes"/>
			<point x="433" y="210" type="line" smooth="yes"/>
			<point x="433" y="146"/>
			<point x="432" y="45"/>
		</contour>
	</outline>
</glyph>
<glyph name="dotlessi" format="2">
	<unicode hex="0131"/>
	<advance width="291"/>
	<outline>
		<contour>
			<point x="42" y="0" type="line"/>
			<point x="249" y="0" type="line"/>
			<point x="249" y="22" type="line"/>
			<point x="155" y="32" type="line"/>
			<point x="142" y="32" type="line"/>
			<point x="42" y="22" type="line"/>
		</contour>
		<contour>
			<point x="123" y="0" type="curve"/>
			<point x="175" y="0" type="line"/>
			<point x="173" y="45"/>
			<point x="172" y="148"/>
			<point x="172" y="210" type="curve" smooth="yes"/>
			<point x="172" y="346" type="line"/>
			<point x="174" y="467" type="line"/>
			<point x="164" y="474" type="line"/>
			<point x="37" y="447" type="line"/>
			<point x="37" y="425" type="line"/>
			<point x="123" y="421" type="line"/>
			<point x="125" y="372"/>
			<point x="126" y="320"/>
			<point x="126" y="257" type="curve" smooth="yes"/>
			<point x="126" y="210" type="line" smooth="yes"/>
			<point x="126" y="148"/>
			<point x="125" y="45"/>
		</contour>
	</outline>
	<anchor name="aboveLC" x="145" y="485"/>
	<anchor name="belowLC" x="149" y="-20"/>
	<anchor name="ogonek" x="175" y="0"/>
</glyph>
<glyph name="kgreenlandic" format="2">
	<unicode hex="0138"/>
	<advance width="530"/>
	<outline>
		<contour>
			<point x="38" y="0" type="line"/>
			<point x="246" y="0" type="line"/>
			<point x="246" y="22" type="line"/>
			<point x="152" y="32" type="line"/>
			<point x="139" y="32" type="line"/>
			<point x="38" y="22" type="line"/>
		</contour>
		<contour>
			<point x="119" y="0" type="curve"/>
			<point x="172" y="0" type="line"/>
			<point x="170" y="45"/>
			<point x="169" y="148"/>
			<point x="169" y="210" type="curve" smooth="yes"/>
			<point x="169" y="346" type="line"/>
			<point x="171" y="465" type="line"/>
			<point x="161" y="472" type="line"/>
			<point x="34" y="445" type="line"/>
			<point x="34" y="424" type="line"/>
			<point x="119" y="419" type="line"/>
			<point x="121" y="370"/>
			<point x="122" y="319"/>
			<point x="122" y="256" type="curve" smooth="yes"/>
			<point x="122" y="210" type="line" smooth="yes"/>
			<point x="122" y="148"/>
			<point x="121" y="45"/>
		</contour>
		<contour>
			<point x="146" y="158" type="line"/>
			<point x="445" y="465" type="line"/>
			<point x="407" y="465" type="line"/>
			<point x="278" y="331" type="line"/>
			<point x="149" y="196" type="line"/>
			<point x="146" y="196" type="line"/>
		</contour>
		<contour>
			<point x="412" y="0" type="line"/>
			<point x="523" y="0" type="line"/>
			<point x="523" y="22" type="line"/>
			<point x="424" y="32" type="line"/>
			<point x="459" y="14" type="line"/>
			<point x="276" y="308" type="line"/>
			<point x="243" y="275" type="line"/>
		</contour>
		<contour>
			<point x="388" y="431" type="line"/>
			<point x="400" y="433" type="line"/>
			<point x="504" y="443" type="line"/>
			<point x="504" y="465" type="line"/>
			<point x="287" y="465" type="line"/>
			<point x="287" y="443" type="line"/>
		</contour>
	</outline>
</glyph>
<glyph name="Lslash" format="2">
	<unicode hex="0141"/>
	<advance width="558"/>
	<outline>
		<contour>
			<point x="384" y="447" type="line"/>
			<point x="176" y="328" type="line"/>
			<point x="176" y="299" type="line"/>
			<point x="384" y="418" type="line"/>
		</contour>
		<contour>
			<point x="175" y="330" type="line"/>
			<point x="52" y="260" type="line"/>
			<point x="52" y="231" type="line"/>
			<point x="175" y="300" type="line"/>
		</contour>
		<component base="L"/>
	</outline>
</glyph>
<glyph name="lslash" format="2">
	<unicode hex="0142"/>
	<advance width="291"/>
	<outline>
		<contour>
			<point x="147" y="399" type="line"/>
			<point x="33" y="335" type="line"/>
			<point x="33" y="307" type="line"/>
			<point x="147" y="370" type="line"/>
		</contour>
		<contour>
			<point x="258" y="459" type="line"/>
			<point x="145" y="395" type="line"/>
			<point x="145" y="367" type="line"/>
			<point x="258" y="429" type="line"/>
		</contour>
		<component base="l"/>
	</outline>
</glyph>
<glyph name="Eng" format="2">
	<unicode hex="014A"/>
	<advance width="720"/>
	<outline>
		<contour>
			<point x="45" y="0" type="line"/>
			<point x="271" y="0" type="line"/>
			<point x="271" y="23" type="line"/>
			<point x="158" y="33" type="line"/>
			<point x="144" y="33" type="line"/>
			<point x="45" y="23" type="line"/>
		</contour>
		<contour>
			<point x="134" y="0" type="line"/>
			<point x="164" y="0" type="line"/>
			<point x="164" y="336" type="line"/>
			<point x="164" y="657" type="line"/>
			<point x="134" y="657" type="line"/>
		</contour>
		<contour>
			<point x="436" y="-125" type="curve" smooth="yes"/>
			<point x="478" y="-125"/>
			<point x="513" y="-108"/>
			<point x="543" y="-70" type="curve" smooth="yes"/>
			<point x="577" y="-27"/>
			<point x="592" y="27"/>
			<point x="592" y="151" type="curve" smooth="yes"/>
			<point x="592" y="674" type="line"/>
			<point x="562" y="674" type="line"/>
			<point x="562" y="337" type="line"/>
			<point x="563" y="119" type="line" smooth="yes"/>
			<point x="563" y="-6"/>
			<point x="533" y="-63"/>
			<point x="474" y="-99" type="curve"/>
			<point x="474" y="-106" type="line"/>
			<point x="493" y="-106" type="line"/>
			<point x="493" y="-100" type="line"/>
			<point x="474" y="-86" type="line" smooth="yes"/>
			<point x="452" y="-70"/>
			<point x="437" y="-63"/>
			<point x="417" y="-63" type="curve" smooth="yes"/>
			<point x="394" y="-63"/>
			<point x="376" y="-72"/>
			<point x="373" y="-91" type="curve"/>
			<point x="376" y="-116"/>
			<point x="405" y="-125"/>
		</contour>
		<contour>
			<point x="565" y="0" type="line"/>
			<point x="576" y="0" type="line"/>
			<point x="576" y="73" type="line"/>
			<point x="573" y="73" type="line"/>
			<point x="176" y="674" type="line"/>
			<point x="41" y="674" type="line"/>
			<point x="41" y="650" type="line"/>
			<point x="136" y="645" type="line"/>
			<point x="156" y="613" type="line"/>
			<point x="157" y="613" type="line"/>
		</contour>
		<contour>
			<point x="570" y="641" type="line"/>
			<point x="584" y="641" type="line"/>
			<point x="680" y="650" type="line"/>
			<point x="680" y="674" type="line"/>
			<point x="456" y="674" type="line"/>
			<point x="456" y="650" type="line"/>
		</contour>
	</outline>
</glyph>
<glyph name="eng" format="2">
	<unicode hex="014B"/>
	<advance width="583"/>
	<outline>
		<contour>
			<point x="41" y="0" type="line"/>
			<point x="248" y="0" type="line"/>
			<point x="248" y="22" type="line"/>
			<point x="154" y="32" type="line"/>
			<point x="141" y="32" type="line"/>
			<point x="41" y="22" type="line"/>
		</contour>
		<contour>
			<point x="122" y="0" type="curve"/>
			<point x="174" y="0" type="line"/>
			<point x="172" y="45"/>
			<point x="171" y="148"/>
			<point x="171" y="210" type="curve" smooth="yes"/>
			<point x="171" y="359" type="line"/>
			<point x="171" y="360" type="line"/>
			<point x="167" y="467" type="line"/>
			<point x="157" y="474" type="line"/>
			<point x="36" y="447" type="line"/>
			<point x="36" y="425" type="line"/>
			<point x="122" y="421" type="line"/>
			<point x="124" y="372"/>
			<point x="125" y="320"/>
			<point x="125" y="257" type="curve" smooth="yes"/>
			<point x="125" y="210" type="line" smooth="yes"/>
			<point x="125" y="148"/>
			<point x="124" y="45"/>
		</contour>
		<contour>
			<point x="317" y="-256" type="curve" smooth="yes"/>
			<point x="359" y="-256"/>
			<point x="390" y="-241"/>
			<point x="418" y="-212" type="curve" smooth="yes"/>
			<point x="470" y="-160"/>
			<point x="478" y="-94"/>
			<point x="478" y="100" type="curve" smooth="yes"/>
			<point x="478" y="308" type="line" smooth="yes"/>
			<point x="478" y="433"/>
			<point x="434" y="478"/>
			<point x="357" y="478" type="curve" smooth="yes"/>
			<point x="293" y="478"/>
			<point x="221" y="440"/>
			<point x="156" y="358" type="curve"/>
			<point x="153" y="358" type="line"/>
			<point x="163" y="340" type="line"/>
			<point x="235" y="418"/>
			<point x="295" y="438"/>
			<point x="340" y="438" type="curve" smooth="yes"/>
			<point x="399" y="438"/>
			<point x="432" y="404"/>
			<point x="432" y="306" type="curve" smooth="yes"/>
			<point x="432" y="67" type="line" smooth="yes"/>
			<point x="432" y="-58"/>
			<point x="428" y="-147"/>
			<point x="401" y="-191" type="curve" smooth="yes"/>
			<point x="388" y="-211"/>
			<point x="369" y="-225"/>
			<point x="350" y="-232" type="curve"/>
			<point x="350" y="-241" type="line"/>
			<point x="375" y="-241" type="line"/>
			<point x="375" y="-235" type="line"/>
			<point x="346" y="-215" type="line" smooth="yes"/>
			<point x="324" y="-201"/>
			<point x="307" y="-195"/>
			<point x="289" y="-195" type="curve" smooth="yes"/>
			<point x="266" y="-195"/>
			<point x="252" y="-205"/>
			<point x="249" y="-223" type="curve"/>
			<point x="253" y="-240"/>
			<point x="276" y="-256"/>
		</contour>
	</outline>
</glyph>
<glyph name="OE" format="2">
	<unicode hex="0152"/>
	<advance width="900"/>
	<outline>
		<contour>
			<point x="114" y="337" type="curve" smooth="yes"/>
			<point x="114" y="515"/>
			<point x="199" y="660"/>
			<point x="375" y="660" type="curve" smooth="yes"/>
			<point x="416" y="660"/>
			<point x="449" y="655"/>
			<point x="486" y="641" type="curve"/>
			<point x="486" y="673" type="line"/>
			<point x="447" y="683"/>
			<point x="409" y="687"/>
			<point x="373" y="687" type="curve" smooth="yes"/>
			<point x="188" y="687"/>
			<point x="57" y="549"/>
			<point x="57" y="337" type="curve" smooth="yes"/>
			<point x="57" y="125"/>
			<point x="186" y="-14"/>
			<point x="372" y="-14" type="curve" smooth="yes"/>
			<point x="409" y="-14"/>
			<point x="446" y="-10"/>
			<point x="487" y="1" type="curve"/>
			<point x="486" y="34" type="line"/>
			<point x="448" y="18"/>
			<point x="414" y="14"/>
			<point x="374" y="14" type="curve" smooth="yes"/>
			<point x="200" y="14"/>
			<point x="114" y="159"/>
		</contour>
		<contour>
			<point x="463" y="0" type="curve"/>
			<point x="519" y="0" type="line"/>
			<point x="516" y="98"/>
			<point x="516" y="208"/>
			<point x="516" y="330" type="curve" smooth="yes"/>
			<point x="516" y="354" type="line" smooth="yes"/>
			<point x="516" y="467"/>
			<point x="516" y="577"/>
			<point x="519" y="674" type="curve"/>
			<point x="463" y="674" type="line"/>
			<point x="465" y="577"/>
			<point x="465" y="467"/>
			<point x="465" y="363" type="curve" smooth="yes"/>
			<point x="465" y="313" type="line" smooth="yes"/>
			<point x="465" y="208"/>
			<point x="465" y="97"/>
		</contour>
		<contour>
			<point x="702" y="232" type="line"/>
			<point x="726" y="232" type="line"/>
			<point x="726" y="453" type="line"/>
			<point x="702" y="453" type="line"/>
			<point x="688" y="352" type="line"/>
			<point x="688" y="334" type="line"/>
		</contour>
		<contour>
			<point x="491" y="329" type="line"/>
			<point x="704" y="329" type="line"/>
			<point x="704" y="356" type="line"/>
			<point x="491" y="356" type="line"/>
		</contour>
		<contour>
			<point x="813" y="510" type="line"/>
			<point x="843" y="510" type="line"/>
			<point x="833" y="674" type="line"/>
			<point x="491" y="674" type="line"/>
			<point x="491" y="646" type="line"/>
			<point x="790" y="646" type="line"/>
		</contour>
		<contour>
			<point x="829" y="167" type="line"/>
			<point x="805" y="28" type="line"/>
			<point x="491" y="28" type="line"/>
			<point x="491" y="0" type="line"/>
			<point x="849" y="0" type="line"/>
			<point x="858" y="167" type="line"/>
		</contour>
	</outline>
	<anchor name="aboveUC" x="492" y="694"/>
</glyph>
<glyph name="oe" format="2">
	<unicode hex="0153"/>
	<advance width="854"/>
	<outline>
		<contour>
			<point x="261" y="-13" type="curve" smooth="yes"/>
			<point x="345" y="-13"/>
			<point x="429" y="39"/>
			<point x="457" y="145" type="curve"/>
			<point x="435" y="145" type="line"/>
			<point x="461" y="39"/>
			<point x="538" y="-13"/>
			<point x="638" y="-13" type="curve" smooth="yes"/>
			<point x="712" y="-13"/>
			<point x="771" y="21"/>
			<point x="810" y="79" type="curve"/>
			<point x="797" y="91" type="line"/>
			<point x="758" y="48"/>
			<point x="708" y="25"/>
			<point x="647" y="25" type="curve" smooth="yes"/>
			<point x="541" y="25"/>
			<point x="469" y="97"/>
			<point x="469" y="241" type="curve" smooth="yes"/>
			<point x="469" y="367"/>
			<point x="541" y="452"/>
			<point x="632" y="452" type="curve" smooth="yes"/>
			<point x="715" y="452"/>
			<point x="761" y="387"/>
			<point x="761" y="308" type="curve" smooth="yes"/>
			<point x="761" y="278"/>
			<point x="753" y="266"/>
			<point x="726" y="266" type="curve" smooth="yes"/>
			<point x="443" y="266" type="line"/>
			<point x="443" y="241" type="line"/>
			<point x="801" y="241" type="line"/>
			<point x="805" y="255"/>
			<point x="807" y="273"/>
			<point x="807" y="295" type="curve" smooth="yes"/>
			<point x="807" y="399"/>
			<point x="741" y="478"/>
			<point x="633" y="478" type="curve" smooth="yes"/>
			<point x="544" y="478"/>
			<point x="467" y="417"/>
			<point x="438" y="319" type="curve"/>
			<point x="458" y="318" type="line"/>
			<point x="432" y="426"/>
			<point x="344" y="478"/>
			<point x="261" y="478" type="curve" smooth="yes"/>
			<point x="154" y="478"/>
			<point x="49" y="396"/>
			<point x="49" y="230" type="curve" smooth="yes"/>
			<point x="49" y="65"/>
			<point x="154" y="-13"/>
		</contour>
		<contour>
			<point x="261" y="13" type="curve" smooth="yes"/>
			<point x="164" y="13"/>
			<point x="100" y="90"/>
			<point x="100" y="230" type="curve" smooth="yes"/>
			<point x="100" y="371"/>
			<point x="164" y="452"/>
			<point x="261" y="452" type="curve" smooth="yes"/>
			<point x="358" y="452"/>
			<point x="422" y="371"/>
			<point x="422" y="231" type="curve" smooth="yes"/>
			<point x="422" y="91"/>
			<point x="358" y="13"/>
		</contour>
	</outline>
	<anchor name="aboveLC" x="448" y="485"/>
</glyph>
<glyph name="Tbar" format="2">
	<unicode hex="0166"/>
	<advance width="587"/>
	<outline>
		<contour>
			<point x="76" y="327" type="line"/>
			<point x="510" y="327" type="line"/>
			<point x="510" y="353" type="line"/>
			<point x="76" y="353" type="line"/>
		</contour>
		<component base="T"/>
	</outline>
</glyph>
<glyph name="tbar" format="2">
	<unicode hex="0167"/>
	<advance width="320"/>
	<outline>
		<contour>
			<point x="13" y="263" type="line"/>
			<point x="294" y="263" type="line"/>
			<point x="294" y="290" type="line"/>
			<point x="13" y="290" type="line"/>
		</contour>
		<component base="t"/>
	</outline>
</glyph>
<glyph name="Uogonek" format="2">
	<unicode hex="0172"/>
	<advance width="718"/>
	<outline>
		<contour>
			<point x="156" y="641" type="line"/>
			<point x="173" y="641" type="line"/>
			<point x="289" y="651" type="line"/>
			<point x="289" y="674" type="line"/>
			<point x="46" y="674" type="line"/>
			<point x="46" y="651" type="line"/>
		</contour>
		<contour>
			<point x="439" y="-225" type="curve" smooth="yes"/>
			<point x="474" y="-225"/>
			<point x="498" y="-213"/>
			<point x="520" y="-190" type="curve"/>
			<point x="512" y="-175" type="line"/>
			<point x="491" y="-187"/>
			<point x="475" y="-192"/>
			<point x="455" y="-192" type="curve" smooth="yes"/>
			<point x="421" y="-192"/>
			<point x="397" y="-167"/>
			<point x="397" y="-124" type="curve" smooth="yes"/>
			<point x="397" y="-67"/>
			<point x="432" y="-18"/>
			<point x="486" y="17" type="curve" smooth="yes"/>
			<point x="551" y="57"/>
			<point x="587" y="131"/>
			<point x="587" y="252" type="curve" smooth="yes"/>
			<point x="587" y="674" type="line"/>
			<point x="557" y="674" type="line"/>
			<point x="557" y="274" type="line" smooth="yes"/>
			<point x="557" y="93"/>
			<point x="497" y="25"/>
			<point x="365" y="25" type="curve" smooth="yes"/>
			<point x="258" y="25"/>
			<point x="187" y="86"/>
			<point x="187" y="256" type="curve" smooth="yes"/>
			<point x="187" y="352" type="line" smooth="yes"/>
			<point x="187" y="472"/>
			<point x="187" y="573"/>
			<point x="189" y="674" type="curve"/>
			<point x="134" y="674" type="line"/>
			<point x="136" y="573"/>
			<point x="136" y="471"/>
			<point x="136" y="352" type="curve" smooth="yes"/>
			<point x="136" y="244" type="line" smooth="yes"/>
			<point x="136" y="60"/>
			<point x="226" y="-14"/>
			<point x="363" y="-14" type="curve" smooth="yes"/>
			<point x="394" y="-14"/>
			<point x="422" y="-9"/>
			<point x="446" y="-1" type="curve"/>
			<point x="447" y="5" type="line"/>
			<point x="400" y="-28"/>
			<point x="359" y="-75"/>
			<point x="359" y="-141" type="curve" smooth="yes"/>
			<point x="359" y="-194"/>
			<point x="393" y="-225"/>
		</contour>
		<contour>
			<point x="565" y="642" type="line"/>
			<point x="579" y="642" type="line"/>
			<point x="673" y="651" type="line"/>
			<point x="673" y="674" type="line"/>
			<point x="450" y="674" type="line"/>
			<point x="450" y="651" type="line"/>
		</contour>
	</outline>
	<anchor name="aboveUC" x="373" y="694"/>
</glyph>
<glyph name="uogonek" format="2">
	<unicode hex="0173"/>
	<advance width="583"/>
	<outline>
		<contour>
			<point x="471" y="-225" type="curve" smooth="yes"/>
			<point x="506" y="-225"/>
			<point x="530" y="-213"/>
			<point x="552" y="-189" type="curve"/>
			<point x="543" y="-175" type="line"/>
			<point x="523" y="-187"/>
			<point x="507" y="-192"/>
			<point x="487" y="-192" type="curve" smooth="yes"/>
			<point x="453" y="-192"/>
			<point x="430" y="-167"/>
			<point x="430" y="-124" type="curve" smooth="yes"/>
			<point x="430" y="-77"/>
			<point x="456" y="-26"/>
			<point x="495" y="6" type="curve"/>
			<point x="475" y="8" type="line"/>
			<point x="475" y="5" type="line"/>
			<point x="431" y="-26"/>
			<point x="391" y="-81"/>
			<point x="391" y="-142" type="curve" smooth="yes"/>
			<point x="391" y="-194"/>
			<point x="425" y="-225"/>
		</contour>
		<component base="u"/>
	</outline>
	<anchor name="aboveLC" x="284" y="486"/>
</glyph>
<glyph name="longs" format="2">
	<unicode hex="017F"/>
	<advance width="340"/>
	<outline>
		<contour>
			<point x="32" y="0" type="line"/>
			<point x="267" y="0" type="line"/>
			<point x="267" y="22" type="line"/>
			<point x="152" y="32" type="line"/>
			<point x="138" y="32" type="line"/>
			<point x="32" y="22" type="line"/>
		</contour>
		<contour>
			<point x="119" y="0" type="curve"/>
			<point x="172" y="0" type="line"/>
			<point x="170" y="63"/>
			<point x="168" y="142"/>
			<point x="168" y="210" type="curve" smooth="yes"/>
			<point x="168" y="445" type="line" smooth="yes"/>
			<point x="168" y="600"/>
			<point x="187" y="658"/>
			<point x="229" y="701" type="curve" smooth="yes"/>
			<point x="251" y="722"/>
			<point x="275" y="735"/>
			<point x="300" y="737" type="curve"/>
			<point x="302" y="740" type="line"/>
			<point x="283" y="742" type="line"/>
			<point x="269" y="738" type="line"/>
			<point x="297" y="718" type="line" smooth="yes"/>
			<point x="322" y="698"/>
			<point x="339" y="689"/>
			<point x="358" y="689" type="curve" smooth="yes"/>
			<point x="380" y="689"/>
			<point x="394" y="701"/>
			<point x="395" y="718" type="curve"/>
			<point x="387" y="741"/>
			<point x="354" y="756"/>
			<point x="316" y="756" type="curve" smooth="yes"/>
			<point x="275" y="756"/>
			<point x="235" y="741"/>
			<point x="201" y="708" type="curve" smooth="yes"/>
			<point x="148" y="656"/>
			<point x="122" y="581"/>
			<point x="122" y="444" type="curve" smooth="yes"/>
			<point x="122" y="210" type="line" smooth="yes"/>
			<point x="122" y="142"/>
			<point x="121" y="63"/>
		</contour>
	</outline>
</glyph>
<glyph name="Schwa" format="2">
	<unicode hex="018F"/>
	<advance width="641"/>
	<outline>
		<contour>
			<point x="55" y="276" type="curve" smooth="yes"/>
			<point x="55" y="113"/>
			<point x="146" y="-14"/>
			<point x="319" y="-14" type="curve" smooth="yes"/>
			<point x="468" y="-14"/>
			<point x="585" y="119"/>
			<point x="585" y="342" type="curve" smooth="yes"/>
			<point x="585" y="571"/>
			<point x="453" y="687"/>
			<point x="301" y="687" type="curve" smooth="yes"/>
			<point x="215" y="687"/>
			<point x="143" y="649"/>
			<point x="92" y="585" type="curve"/>
			<point x="107" y="570" type="line"/>
			<point x="155" y="622"/>
			<point x="217" y="654"/>
			<point x="293" y="654" type="curve" smooth="yes"/>
			<point x="422" y="654"/>
			<point x="530" y="552"/>
			<point x="530" y="339" type="curve" smooth="yes"/>
			<point x="530" y="139"/>
			<point x="454" y="14"/>
			<point x="321" y="14" type="curve" smooth="yes"/>
			<point x="178" y="14"/>
			<point x="108" y="137"/>
			<point x="108" y="268" type="curve" smooth="yes"/>
			<point x="108" y="295"/>
			<point x="109" y="310"/>
			<point x="112" y="330" type="curve"/>
			<point x="549" y="330" type="line"/>
			<point x="549" y="357" type="line"/>
			<point x="63" y="357" type="line"/>
			<point x="58" y="337"/>
			<point x="55" y="311"/>
		</contour>
	</outline>
	<anchor name="aboveUC" x="311" y="694"/>
	<anchor name="belowLC" x="320" y="-20"/>
</glyph>
<glyph name="florin" format="2">
	<unicode hex="0192"/>
	<advance width="485"/>
	<outline>
		<contour>
			<point x="65" y="-100" type="curve" smooth="yes"/>
			<point x="103" y="-100"/>
			<point x="140" y="-87"/>
			<point x="174" y="-53" type="curve" smooth="yes"/>
			<point x="225" y="-4"/>
			<point x="246" y="75"/>
			<point x="258" y="224" type="curve" smooth="yes"/>
			<point x="269" y="359" type="line" smooth="yes"/>
			<point x="279" y="493"/>
			<point x="291" y="554"/>
			<point x="327" y="600" type="curve" smooth="yes"/>
			<point x="344" y="623"/>
			<point x="372" y="641"/>
			<point x="409" y="645" type="curve"/>
			<point x="408" y="646" type="line"/>
			<point x="370" y="648" type="line"/>
			<point x="400" y="626" type="line" smooth="yes"/>
			<point x="426" y="608"/>
			<point x="447" y="598"/>
			<point x="466" y="598" type="curve" smooth="yes"/>
			<point x="488" y="598"/>
			<point x="499" y="611"/>
			<point x="501" y="627" type="curve"/>
			<point x="485" y="650"/>
			<point x="453" y="665"/>
			<point x="414" y="665" type="curve" smooth="yes"/>
			<point x="376" y="665"/>
			<point x="339" y="651"/>
			<point x="308" y="621" type="curve" smooth="yes"/>
			<point x="254" y="568"/>
			<point x="233" y="496"/>
			<point x="223" y="361" type="curve" smooth="yes"/>
			<point x="212" y="216" type="line" smooth="yes"/>
			<point x="201" y="75"/>
			<point x="188" y="11"/>
			<point x="153" y="-35" type="curve" smooth="yes"/>
			<point x="136" y="-58"/>
			<point x="107" y="-76"/>
			<point x="71" y="-80" type="curve" smooth="yes"/>
			<point x="71" y="-81" type="line"/>
			<point x="108" y="-85" type="line"/>
			<point x="77" y="-62" type="line" smooth="yes"/>
			<point x="52" y="-43"/>
			<point x="32" y="-33"/>
			<point x="12" y="-33" type="curve" smooth="yes"/>
			<point x="-9" y="-33"/>
			<point x="-21" y="-46"/>
			<point x="-22" y="-62" type="curve"/>
			<point x="-6" y="-85"/>
			<point x="26" y="-100"/>
		</contour>
		<contour>
			<point x="102" y="357" type="line"/>
			<point x="407" y="357" type="line"/>
			<point x="407" y="385" type="line"/>
			<point x="102" y="385" type="line"/>
		</contour>
	</outline>
</glyph>
<glyph name="Uhorn" format="2">
	<unicode hex="01AF"/>
	<advance width="718"/>
	<outline>
		<contour>
			<point x="361" y="-14" type="curve" smooth="yes"/>
			<point x="507" y="-14"/>
			<point x="587" y="73"/>
			<point x="587" y="253" type="curve" smooth="yes"/>
			<point x="587" y="674" type="line"/>
			<point x="557" y="674" type="line"/>
			<point x="557" y="275" type="line" smooth="yes"/>
			<point x="557" y="94"/>
			<point x="497" y="25"/>
			<point x="367" y="25" type="curve" smooth="yes"/>
			<point x="258" y="25"/>
			<point x="187" y="87"/>
			<point x="187" y="257" type="curve" smooth="yes"/>
			<point x="187" y="352" type="line" smooth="yes"/>
			<point x="187" y="472"/>
			<point x="187" y="574"/>
			<point x="189" y="674" type="curve"/>
			<point x="134" y="674" type="line"/>
			<point x="136" y="573"/>
			<point x="136" y="470"/>
			<point x="136" y="352" type="curve" smooth="yes"/>
			<point x="136" y="245" type="line" smooth="yes"/>
			<point x="136" y="61"/>
			<point x="226" y="-14"/>
		</contour>
		<contour>
			<point x="578" y="643" type="line"/>
			<point x="657" y="648"/>
			<point x="699" y="677"/>
			<point x="699" y="750" type="curve" smooth="yes"/>
			<point x="699" y="778"/>
			<point x="689" y="804"/>
			<point x="680" y="818" type="curve"/>
			<point x="674" y="823"/>
			<point x="667" y="825"/>
			<point x="660" y="825" type="curve" smooth="yes"/>
			<point x="646" y="825"/>
			<point x="635" y="813"/>
			<point x="635" y="800" type="curve" smooth="yes"/>
			<point x="635" y="778"/>
			<point x="661" y="759"/>
			<point x="661" y="719" type="curve" smooth="yes"/>
			<point x="661" y="686"/>
			<point x="642" y="674"/>
			<point x="578" y="674" type="curve"/>
		</contour>
		<contour>
			<point x="46" y="651" type="line"/>
			<point x="156" y="641" type="line"/>
			<point x="173" y="641" type="line"/>
			<point x="289" y="651" type="line"/>
			<point x="289" y="674" type="line"/>
			<point x="46" y="674" type="line"/>
		</contour>
		<contour>
			<point x="450" y="651" type="line"/>
			<point x="564" y="642" type="line"/>
			<point x="573" y="642" type="line"/>
			<point x="573" y="674" type="line"/>
			<point x="450" y="674" type="line"/>
		</contour>
	</outline>
	<anchor name="aboveUC" x="373" y="694"/>
	<anchor name="belowLC" x="365" y="-20"/>
</glyph>
<glyph name="uhorn" format="2">
	<unicode hex="01B0"/>
	<advance width="582"/>
	<outline>
		<contour>
			<point x="242" y="-13" type="curve" smooth="yes"/>
			<point x="314" y="-13"/>
			<point x="374" y="28"/>
			<point x="427" y="98" type="curve"/>
			<point x="436" y="98" type="line"/>
			<point x="423" y="121" type="line"/>
			<point x="368" y="55"/>
			<point x="313" y="26"/>
			<point x="258" y="26" type="curve" smooth="yes"/>
			<point x="194" y="26"/>
			<point x="157" y="63"/>
			<point x="157" y="168" type="curve" smooth="yes"/>
			<point x="157" y="346" type="line"/>
			<point x="161" y="461" type="line"/>
			<point x="153" y="471" type="line"/>
			<point x="33" y="459" type="line"/>
			<point x="33" y="438" type="line"/>
			<point x="128" y="427" type="line"/>
			<point x="113" y="442" type="line"/>
			<point x="112" y="162" type="line" smooth="yes"/>
			<point x="111" y="32"/>
			<point x="158" y="-13"/>
		</contour>
		<contour>
			<point x="420" y="-6" type="line"/>
			<point x="540" y="0" type="line"/>
			<point x="540" y="22" type="line"/>
			<point x="464" y="30" type="line"/>
			<point x="464" y="346" type="line"/>
			<point x="468" y="461" type="line"/>
			<point x="445" y="449" type="line"/>
			<point x="522" y="457"/>
			<point x="556" y="511"/>
			<point x="556" y="567" type="curve" smooth="yes"/>
			<point x="556" y="596"/>
			<point x="547" y="615"/>
			<point x="537" y="632" type="curve"/>
			<point x="531" y="638"/>
			<point x="524" y="639"/>
			<point x="517" y="639" type="curve" smooth="yes"/>
			<point x="503" y="639"/>
			<point x="492" y="628"/>
			<point x="492" y="615" type="curve" smooth="yes"/>
			<point x="492" y="593"/>
			<point x="517" y="579"/>
			<point x="517" y="538" type="curve" smooth="yes"/>
			<point x="517" y="503"/>
			<point x="499" y="473"/>
			<point x="446" y="469" type="curve" smooth="yes"/>
			<point x="339" y="459" type="line"/>
			<point x="339" y="437" type="line"/>
			<point x="419" y="430" type="line"/>
			<point x="418" y="106" type="line"/>
			<point x="418" y="104" type="line"/>
		</contour>
	</outline>
	<anchor name="aboveLC" x="283" y="485"/>
	<anchor name="belowLC" x="294" y="-20"/>
</glyph>
<glyph name="dotlessj" format="2">
	<unicode hex="0237"/>
	<advance width="271"/>
	<outline>
		<contour>
			<point x="8" y="-256" type="curve" smooth="yes"/>
			<point x="51" y="-256"/>
			<point x="80" y="-242"/>
			<point x="109" y="-213" type="curve" smooth="yes"/>
			<point x="163" y="-158"/>
			<point x="169" y="-84"/>
			<point x="169" y="91" type="curve" smooth="yes"/>
			<point x="169" y="346" type="line"/>
			<point x="171" y="467" type="line"/>
			<point x="161" y="474" type="line"/>
			<point x="35" y="447" type="line"/>
			<point x="35" y="425" type="line"/>
			<point x="120" y="421" type="line"/>
			<point x="122" y="372"/>
			<point x="123" y="320"/>
			<point x="123" y="257" type="curve" smooth="yes"/>
			<point x="123" y="67" type="line" smooth="yes"/>
			<point x="123" y="-58"/>
			<point x="119" y="-147"/>
			<point x="92" y="-191" type="curve" smooth="yes"/>
			<point x="80" y="-211"/>
			<point x="61" y="-225"/>
			<point x="42" y="-233" type="curve"/>
			<point x="42" y="-242" type="line"/>
			<point x="68" y="-242" type="line"/>
			<point x="68" y="-235" type="line"/>
			<point x="38" y="-215" type="line" smooth="yes"/>
			<point x="16" y="-202"/>
			<point x="-2" y="-195"/>
			<point x="-19" y="-195" type="curve" smooth="yes"/>
			<point x="-42" y="-195"/>
			<point x="-56" y="-205"/>
			<point x="-60" y="-223" type="curve"/>
			<point x="-56" y="-240"/>
			<point x="-33" y="-256"/>
		</contour>
	</outline>
	<anchor name="aboveLC" x="143" y="485"/>
	<anchor name="belowLC" x="60" y="-268"/>
</glyph>
